<?xml version="1.0" encoding="UTF-8"?>
<svg id="Layer_2" data-name="Layer 2" xmlns="http://www.w3.org/2000/svg" xmlns:xlink="http://www.w3.org/1999/xlink" viewBox="972 520 958.76 926.05">
  <defs>
    <style>
      .cls-1 {
        fill: url(#linear-gradient-15);
      }

      .cls-2 {
        fill: url(#linear-gradient-13);
      }

      .cls-3 {
        fill: url(#linear-gradient-2);
      }

      .cls-4 {
        fill: url(#linear-gradient-10);
      }

      .cls-5 {
        fill: url(#linear-gradient-12);
      }

      .cls-6 {
        fill: #fff;
      }

      .cls-7 {
        fill: #0d0d0d;
      }

      .cls-8, .cls-9, .cls-10 {
        fill: none;
      }

      .cls-11 {
        fill: url(#linear-gradient-4);
      }

      .cls-12 {
        fill: url(#radial-gradient);
      }

      .cls-13 {
        fill: url(#radial-gradient-3);
      }

      .cls-14 {
        fill: url(#linear-gradient-3);
      }

      .cls-15 {
        clip-path: url(#clippath-1);
      }

      .cls-16 {
        fill: url(#linear-gradient-5);
      }

      .cls-17 {
        fill: url(#linear-gradient-22);
      }

      .cls-18 {
        fill: #2b2928;
      }

      .cls-19 {
        fill: url(#linear-gradient-8);
      }

      .cls-20 {
        fill: url(#radial-gradient-2);
      }

      .cls-21 {
        fill: #fdbe13;
      }

      .cls-22 {
        fill: url(#linear-gradient-14);
      }

      .cls-23 {
        fill: #231f20;
        font-family: Assistant-Bold, Assistant;
        font-size: 69.72px;
        font-weight: 700;
      }

      .cls-24 {
        fill: url(#linear-gradient-20);
      }

      .cls-25 {
        fill: url(#radial-gradient-4);
      }

      .cls-26 {
        fill: url(#linear-gradient-17);
      }

      .cls-27 {
        fill: url(#linear-gradient-7);
      }

      .cls-28 {
        fill: url(#linear-gradient-9);
      }

      .cls-29 {
        fill: url(#linear-gradient-11);
      }

      .cls-9 {
        stroke-width: 4px;
      }

      .cls-9, .cls-10 {
        stroke: #000;
        stroke-miterlimit: 10;
      }

      .cls-30 {
        fill: url(#linear-gradient-19);
      }

      .cls-31 {
        fill: url(#linear-gradient-6);
      }

      .cls-32 {
        fill: url(#linear-gradient-21);
      }

      .cls-10 {
        stroke-width: 3px;
      }

      .cls-33 {
        fill: url(#linear-gradient-16);
      }

      .cls-34 {
        fill: url(#linear-gradient);
      }

      .cls-35 {
        fill: url(#linear-gradient-23);
      }

      .cls-36 {
        clip-path: url(#clippath);
      }

      .cls-37 {
        fill: url(#linear-gradient-18);
      }

      .cls-38 {
        fill: #171717;
      }
    </style>
    <clipPath id="clippath">
      <path class="cls-8" d="M1063.58,301.88h775.16c49.74,0,90.12,40.38,90.12,90.12v1183.78c0,49.43-40.13,89.56-89.56,89.56h-774.87c-50.21,0-90.97-40.76-90.97-90.97V392c0-49.74,40.38-90.12,90.12-90.12Z"/>
    </clipPath>
    <clipPath id="clippath-1">
      <rect class="cls-8" x="975.34" y="306.35" width="951.01" height="1357.24" rx="90.74" ry="90.74"/>
    </clipPath>
    <linearGradient id="linear-gradient" x1="1451.16" y1="301.88" x2="1451.16" y2="1500.39" gradientUnits="userSpaceOnUse">
      <stop offset="0" stop-color="#b3daf4"/>
      <stop offset=".42" stop-color="#d8ecf9"/>
      <stop offset=".78" stop-color="#f0f8fd"/>
      <stop offset="1" stop-color="#fafdff"/>
    </linearGradient>
    <linearGradient id="linear-gradient-2" x1="1453.62" y1="383.11" x2="1453.62" y2="532.45" gradientUnits="userSpaceOnUse">
      <stop offset="0" stop-color="#fec010"/>
      <stop offset=".46" stop-color="#fdbd10"/>
      <stop offset=".73" stop-color="#fcb513"/>
      <stop offset=".95" stop-color="#faa718"/>
      <stop offset="1" stop-color="#faa31a"/>
    </linearGradient>
    <linearGradient id="linear-gradient-3" x1="1156.86" y1="1015.14" x2="1007.78" y2="1015.14" xlink:href="#linear-gradient-2"/>
    <linearGradient id="linear-gradient-4" x1="1748.32" y1="1387.01" x2="1748.32" y2="1536.09" gradientTransform="translate(2722.71 -986.72) rotate(90)" xlink:href="#linear-gradient-2"/>
    <linearGradient id="linear-gradient-5" x1="1163.23" y1="551.37" x2="1002.13" y2="551.37" gradientUnits="userSpaceOnUse">
      <stop offset="0" stop-color="#fec010"/>
      <stop offset="1" stop-color="#faa31a"/>
    </linearGradient>
    <linearGradient id="linear-gradient-6" x1="1162.14" y1="983.13" x2="1001.04" y2="983.13" xlink:href="#linear-gradient-5"/>
    <radialGradient id="radial-gradient" cx="1759.12" cy="1384.97" fx="1759.12" fy="1384.97" r="51.03" gradientTransform="translate(2.19)" gradientUnits="userSpaceOnUse">
      <stop offset=".27" stop-color="#2d2d2d"/>
      <stop offset="1" stop-color="#414042"/>
    </radialGradient>
    <radialGradient id="radial-gradient-2" cx="1770.73" cy="1397.07" fx="1770.73" fy="1397.07" r="21.94" gradientTransform="translate(2.19)" gradientUnits="userSpaceOnUse">
      <stop offset=".03" stop-color="#2d2d2d"/>
      <stop offset="1" stop-color="#58595b"/>
    </radialGradient>
    <linearGradient id="linear-gradient-7" x1="1695.62" y1="1277.38" x2="1726.96" y2="1277.38" xlink:href="#linear-gradient-2"/>
    <linearGradient id="linear-gradient-8" x1="1793.71" y1="1277.38" x2="1825.05" y2="1277.38" xlink:href="#linear-gradient-2"/>
    <linearGradient id="linear-gradient-9" x1="1760.34" y1="1234.75" x2="1760.34" y2="1268.18" gradientUnits="userSpaceOnUse">
      <stop offset="0" stop-color="#414042"/>
      <stop offset=".07" stop-color="#57575a"/>
      <stop offset=".14" stop-color="#6d6e71"/>
      <stop offset=".38" stop-color="#a5a7a9"/>
      <stop offset=".5" stop-color="#bcbec0"/>
      <stop offset=".59" stop-color="#a8a9ac"/>
      <stop offset=".79" stop-color="#7d7e81"/>
      <stop offset=".89" stop-color="#6d6e71"/>
      <stop offset="1" stop-color="#414042"/>
    </linearGradient>
    <radialGradient id="radial-gradient-3" cx="1686.11" cy="1300.78" fx="1668.18" fy="1300.78" r="33.52" gradientTransform="translate(157.77) scale(.95 1)" gradientUnits="userSpaceOnUse">
      <stop offset=".03" stop-color="#e6e7e8"/>
      <stop offset="1" stop-color="#808285"/>
    </radialGradient>
    <radialGradient id="radial-gradient-4" cx="1679.06" cy="1322.74" fx="1679.06" fy="1322.74" r="39.9" gradientTransform="translate(157.77) scale(.95 1)" gradientUnits="userSpaceOnUse">
      <stop offset=".03" stop-color="#e6e7e8"/>
      <stop offset="1" stop-color="#808285"/>
    </radialGradient>
    <linearGradient id="linear-gradient-10" x1="1760.31" y1="1284.13" x2="1760.31" y2="1326.54" gradientUnits="userSpaceOnUse">
      <stop offset="0" stop-color="#fed700"/>
      <stop offset=".4" stop-color="#fdd401"/>
      <stop offset=".64" stop-color="#fccc06"/>
      <stop offset=".83" stop-color="#fbbe0e"/>
      <stop offset="1" stop-color="#f9aa1a"/>
      <stop offset="1" stop-color="#f9aa1b"/>
    </linearGradient>
    <linearGradient id="linear-gradient-11" x1="1171.35" y1="1507.99" x2="993.53" y2="1507.99" xlink:href="#linear-gradient-5"/>
    <linearGradient id="linear-gradient-12" x1="1162.87" y1="1020.41" x2="1001.77" y2="1020.41" gradientUnits="userSpaceOnUse">
      <stop offset="0" stop-color="#a7a9ac"/>
      <stop offset="1" stop-color="#808285"/>
    </linearGradient>
    <linearGradient id="linear-gradient-13" x1="1339.79" y1="414.55" x2="1186.93" y2="414.55" gradientTransform="translate(-72.43 43.23)" xlink:href="#linear-gradient-5"/>
    <linearGradient id="linear-gradient-14" x1="1339.79" y1="563.63" x2="1186.93" y2="563.63" gradientTransform="translate(76.65 -105.85)" xlink:href="#linear-gradient-5"/>
    <linearGradient id="linear-gradient-15" x1="1339.79" y1="224.14" x2="1186.93" y2="224.14" gradientTransform="translate(-262.85 233.64)" xlink:href="#linear-gradient-5"/>
    <linearGradient id="linear-gradient-16" x1="1559.97" y1="519.89" x2="642.58" y2="519.89" gradientTransform="translate(350.66 6.32)" gradientUnits="userSpaceOnUse">
      <stop offset="0" stop-color="#fec010"/>
      <stop offset=".25" stop-color="#fcb314"/>
      <stop offset=".63" stop-color="#faa718"/>
      <stop offset="1" stop-color="#faa31a"/>
    </linearGradient>
    <linearGradient id="linear-gradient-17" x1="1910.63" y1="360.76" x2="993.25" y2="360.76" xlink:href="#linear-gradient-12"/>
    <linearGradient id="linear-gradient-18" x1="1062.88" y1="364.19" x2="1039.98" y2="364.19" xlink:href="#linear-gradient-12"/>
    <linearGradient id="linear-gradient-19" x1="1299.45" y1="365.69" x2="1276.55" y2="365.69" xlink:href="#linear-gradient-12"/>
    <linearGradient id="linear-gradient-20" x1="1535.04" y1="363.79" x2="1512.14" y2="363.79" xlink:href="#linear-gradient-12"/>
    <linearGradient id="linear-gradient-21" x1="1771.78" y1="364.07" x2="1748.89" y2="364.07" xlink:href="#linear-gradient-12"/>
    <linearGradient id="linear-gradient-22" x1="2100.59" y1="764.93" x2="1939.2" y2="764.93" gradientTransform="translate(-125.72 -305.32)" xlink:href="#linear-gradient-12"/>
    <linearGradient id="linear-gradient-23" x1="1802.83" y1="544.38" x2="1779.93" y2="544.38" gradientTransform="translate(102.79 -19.36)" xlink:href="#linear-gradient-12"/>
  </defs>
  <g id="_עגורן_עמוד" data-name="עגורן עמוד">
    <g class="cls-36">
      <g id="_עמוד_כרטיס" data-name="עמוד כרטיס">
        <rect class="cls-21" x="975.34" y="306.4" width="951.13" height="1357.24" rx="90.74" ry="90.74"/>
        <g class="cls-15">
          <g>
            <polygon class="cls-7" points="2382.28 609.75 2352.93 660.7 1299.09 50.95 1328.45 0 2382.28 609.75"/>
            <polygon class="cls-7" points="2244.18 695.32 2214.83 746.28 1160.99 136.53 1190.35 85.58 2244.18 695.32"/>
            <polygon class="cls-7" points="2078.73 770.2 2049.38 821.16 995.54 211.41 1024.9 160.46 2078.73 770.2"/>
            <polygon class="cls-7" points="2678.76 1262.85 2649.4 1313.8 806.16 247.31 835.51 196.36 2678.76 1262.85"/>
            <polygon class="cls-7" points="2490.77 1319.57 2461.42 1370.52 618.17 304.02 647.52 253.07 2490.77 1319.57"/>
            <polygon class="cls-7" points="2256.61 1354.69 2227.25 1405.64 384 339.14 413.36 288.19 2256.61 1354.69"/>
            <polygon class="cls-7" points="2517.73 1668.04 2488.38 1719 645.13 652.5 674.48 601.55 2517.73 1668.04"/>
            <polygon class="cls-7" points="2329.75 1724.76 2300.39 1775.71 457.14 709.21 486.5 658.26 2329.75 1724.76"/>
            <polygon class="cls-7" points="2095.58 1759.88 2066.22 1810.83 222.97 744.34 252.33 693.38 2095.58 1759.88"/>
            <polygon class="cls-7" points="2296.24 2051.81 2266.89 2102.76 423.64 1036.26 452.99 985.31 2296.24 2051.81"/>
            <polygon class="cls-7" points="2106.48 2116.54 2077.12 2167.5 233.87 1101 263.23 1050.05 2106.48 2116.54"/>
            <polygon class="cls-7" points="1872.6 2135.1 1843.25 2186.05 0 1119.56 29.35 1068.6 1872.6 2135.1"/>
          </g>
        </g>
        <rect class="cls-6" x="1153.8" y="1527.21" width="596.35" height="111.39" rx="11.06" ry="11.06"/>
        <text class="cls-23" transform="translate(1290.93 1601.95)"><tspan x="0" y="0">עגורן עמוד</tspan></text>
      </g>
      <rect class="cls-34" x="973.45" y="301.88" width="955.41" height="1198.51"/>
      <g>
        <rect class="cls-3" x="996.61" y="383.11" width="914.02" height="149.34"/>
        <polygon class="cls-14" points="1099.92 981.95 1156.86 981.95 1156.86 544.09 1007.78 544.09 1007.78 1486.19 1156.86 1486.19 1156.86 1004.4 1099.62 1004.93 1099.92 981.95"/>
        <path class="cls-11" d="M1186.62,988.57v-456.11h149.08l-105.61,455.35c-.4,1.72-1.93,2.94-3.69,2.93l-37.64-.02c-1.18,0-2.14-.96-2.14-2.15Z"/>
        <rect class="cls-16" x="1002.13" y="544.09" width="161.1" height="14.56" rx="3.69" ry="3.69"/>
        <rect class="cls-31" x="1001.04" y="975.85" width="161.1" height="14.56" rx="3.69" ry="3.69"/>
        <g>
          <path class="cls-9" d="M1822.44,534.89c-4.31,502.18-8.71,713.51-13.08,713.57-4.37.06-9.27-211.42-14.76-714.13"/>
          <path class="cls-9" d="M1724.72,535.4c-4.31,501.82-8.71,713-13.08,713.06-4.37.06-9.27-211.27-14.76-713.63"/>
          <g>
            <path class="cls-12" d="M1801.63,1393.67c-.02-3.47,0-7.46-1.25-10.31l-.02-.05c-.86-2.01-2.73-3.21-4.77-3.41-7.24,6.07-8.83,16.61-13.57,25.14-4.53,7.68-12.9,9.78-20.92,9.08-7.67-.35-14.64-6.29-16.39-13.62-2.09-7.73.7-14.59,5.43-20.2,1.23-1.84,2.56-3.67,3.84-5.55,2.53-3.67,5.16-7.49,7.7-11.17,3.32-5.09,5.92-7.74,7.34-12.79.18-.74.27-1.51.27-2.27h0v-21.13h-18.94v9.93c0,2.37-.93,4.64-2.61,6.31,0,0-.02.02-.03.03-2.24,2.3-4.61,4.65-7.05,6.68-5.64,4.88-12.78,8.21-17.64,14.04-7.54,9.1-8.19,21.92-8.24,33.28.01,6.09-.16,12.3.89,18.31,1.91,11.82,10.83,21.95,22.35,25.02,6.84,1.98,13.75,1.45,20.93,1.55,7.22-.11,13.63.43,20.37-1.39,9.72-2.47,17.91-10.47,20.63-20.21,1.73-5.32,1.67-11.49,1.68-17.6,0-3.16,0-6.53-.01-9.68Z"/>
            <path class="cls-20" d="M1744.71,1400.51c1.74,7.34,8.72,13.27,16.39,13.62,8.02.7,16.39-1.4,20.92-9.08,4.73-8.54,6.33-19.07,13.57-25.14-.42-.04-.84-.04-1.27,0-4.37.58-6.75,5.35-8.88,9.03-1.99,3.65-3.87,7.44-5.99,11.02-3.54,6.24-8.66,10.66-15.69,11.24-9.11.81-17.61-6.81-18.31-15.88-.79-5.74,1.62-10.41,4.7-15.01-4.74,5.61-7.52,12.47-5.43,20.2Z"/>
            <rect class="cls-38" x="1747.25" y="1321.42" width="25.34" height="10.26" rx="3.22" ry="3.22"/>
          </g>
          <g>
            <path class="cls-27" d="M1726.96,1231.73c0-8.5-6.88-15.39-15.36-15.39h-.62c-8.48,0-15.36,6.89-15.36,15.39v91.3c0,8.5,6.88,15.39,15.36,15.39h.62c8.48,0,15.36-6.89,15.36-15.39v-91.3Z"/>
            <path d="M1717.06,1270.91h-11.54c0-17.85,0-35.71,0-53.56.75-.29,1.7-.59,2.82-.78,1.39-.24,2.47-.23,3.27-.22.75.01,1.71.03,2.96.28,1.05.21,1.91.49,2.54.74-.01,17.85-.03,35.7-.04,53.55Z"/>
          </g>
          <g>
            <path class="cls-19" d="M1809.69,1216.34h-.62c-8.48,0-15.36,6.89-15.36,15.39v91.3c0,8.5,6.88,15.39,15.36,15.39h.62c8.48,0,15.36-6.89,15.36-15.39v-91.3c0-8.5-6.88-15.39-15.36-15.39Z"/>
            <path d="M1815.15,1270.91h-11.54c0-17.85,0-35.71,0-53.56.75-.29,1.7-.59,2.82-.78,1.39-.24,2.47-.23,3.27-.22.75.01,1.71.03,2.96.28,1.05.21,1.91.49,2.54.74-.01,17.85-.03,35.7-.04,53.55Z"/>
          </g>
          <rect class="cls-28" x="1726.96" y="1234.75" width="66.75" height="33.43"/>
          <g>
            <path d="M1726.96,1234.75h1.96v96.45c0,.34-.28.62-.62.62h-.73c-.34,0-.62-.28-.62-.62v-96.45h0Z"/>
            <path d="M1791.75,1234.75h1.96v96.45c0,.34-.28.62-.62.62h-.73c-.34,0-.62-.28-.62-.62v-96.45h0Z"/>
          </g>
          <g>
            <path class="cls-13" d="M1742.44,1287.93c1.33,6.99,9.33,4.89,14.67,5.59,2,.35,3-2.79,5-3.14,2.67-.35,8,.35,7.33,3.84-1.33,4.19-11.33,5.24-7.67,9.78,2.33,3.49,9.33,6.99,5.67,12.23,1.33,1.05,3.33,1.75,4.33.7,3-1.75,0-5.59,1.33-8.03,1-1.75,4.33-5.59,5.33-3.49.67,2.1,1,5.94,3.67,5.24,4-.7,4-6.99,7-10.13,1.64-2.41,1.67,1.97,2.63,3.1v-19.47h-48.46c-.73,1.13-1.1,2.41-.84,3.8Z"/>
            <path class="cls-25" d="M1774.44,1323.2c-3.33-1.4-7.67,1.75-11.67,1.05-2.33-.35-3.67-4.19-4.33-6.64-3.33,2.1-2.33,7.68-5.67,8.73-3.67,1.05-6-2.45-9.33-3.84-.33,2.1-3.33,2.45-4,1.05-1.67-2.1-3-4.19-5-5.24-2.95-1.55-4.34,2.39-5.54,5.25v4.3h62.84v-1.83c-1.68-.68-3.92-.2-5.96-.73-3-1.05-7.67-.7-11.33-2.1Z"/>
            <path class="cls-4" d="M1789.11,1300.5c-3,3.14-3,9.43-7,10.13-2.67.7-3-3.14-3.67-5.24-1-2.1-4.33,1.75-5.33,3.49-1.33,2.45,1.67,6.29-1.33,8.03-1,1.05-3,.35-4.33-.7,3.67-5.24-3.33-8.73-5.67-12.23-3.67-4.54,6.33-5.59,7.67-9.78.67-3.49-4.67-4.19-7.33-3.84-2,.35-3,3.49-5,3.14-5.33-.7-13.33,1.4-14.67-5.59-.27-1.39.11-2.67.84-3.8h-14.38v39.43c1.2-2.86,2.59-6.79,5.54-5.25,2,1.05,3.33,3.14,5,5.24.67,1.4,3.67,1.05,4-1.05,3.33,1.4,5.67,4.89,9.33,3.84,3.33-1.05,2.33-6.64,5.67-8.73.67,2.45,2,6.29,4.33,6.64,4,.7,8.33-2.45,11.67-1.05,3.67,1.4,8.33,1.05,11.33,2.1,2.04.53,4.28.05,5.96.73v-22.44c-.96-1.13-.98-5.51-2.63-3.1Z"/>
          </g>
        </g>
        <rect class="cls-29" x="993.53" y="1485.54" width="177.83" height="44.9" rx="3.69" ry="3.69"/>
        <rect class="cls-5" x="1001.77" y="1002.65" width="161.1" height="35.51" rx="3.69" ry="3.69"/>
        <rect class="cls-18" x="1124.34" y="995.37" width="91.43" height="50.84" rx="1.43" ry="1.43"/>
        <rect class="cls-2" x="1114.5" y="450.51" width="152.86" height="14.53" rx="3.69" ry="3.69" transform="translate(733.15 1648.71) rotate(-90)"/>
        <rect class="cls-22" x="1263.58" y="450.51" width="152.86" height="14.53" rx="3.69" ry="3.69" transform="translate(882.23 1797.79) rotate(-90)"/>
        <rect class="cls-1" x="924.08" y="450.51" width="152.86" height="14.53" rx="3.69" ry="3.69" transform="translate(542.73 1458.29) rotate(-90)"/>
        <path class="cls-33" d="M993.25,515.72h917.39v17.3c0,2.04-1.65,3.69-3.69,3.69h-910.01c-2.04,0-3.69-1.65-3.69-3.69v-17.3h0Z"/>
        <rect class="cls-26" x="993.25" y="354.17" width="917.39" height="13.18" rx="3.11" ry="3.11"/>
        <path class="cls-37" d="M1045.62,345.31h11.86c2.98,0,5.39,2.42,5.39,5.39v32.37h-22.9v-32.12c0-3.12,2.53-5.65,5.65-5.65Z"/>
        <path class="cls-30" d="M1282.2,346.81h11.86c2.98,0,5.39,2.42,5.39,5.39v32.37h-22.9v-32.12c0-3.12,2.53-5.65,5.65-5.65Z"/>
        <path class="cls-24" d="M1517.79,344.91h11.86c2.98,0,5.39,2.42,5.39,5.39v32.37h-22.9v-32.12c0-3.12,2.53-5.65,5.65-5.65Z"/>
        <path class="cls-32" d="M1754.53,345.18h11.86c2.98,0,5.39,2.42,5.39,5.39v32.37h-22.9v-32.12c0-3.12,2.53-5.65,5.65-5.65Z"/>
        <path class="cls-10" d="M1049.64,382.95c17.4-15.6,52.69,200.49,120.07,200.49,62.37,0,97.09-196.65,118.28-200.49"/>
        <path class="cls-10" d="M1285.58,383.47c17.4-15.6,54.42,201.07,121.8,201.07,62.37,0,95.37-197.23,116.56-201.07"/>
        <path class="cls-10" d="M1522.37,384.52c17.4-15.6,51.59,202.32,118.98,202.32,62.37,0,98.19-198.47,119.38-202.32"/>
        <rect class="cls-17" x="1813.48" y="452.3" width="161.38" height="14.62" rx="3.69" ry="3.69" transform="translate(1434.56 2353.78) rotate(-90)"/>
        <path class="cls-35" d="M1888.37,506.13h11.86c2.98,0,5.39,2.42,5.39,5.39v32.37h-22.9v-32.12c0-3.12,2.53-5.65,5.65-5.65Z" transform="translate(3788.34 1050.02) rotate(180)"/>
      </g>
    </g>
  </g>
</svg>