<?xml version="1.0" encoding="UTF-8"?>
<svg id="Layer_2" data-name="Layer 2" xmlns="http://www.w3.org/2000/svg" xmlns:xlink="http://www.w3.org/1999/xlink" viewBox="972 520 958.76 926.05">
  <defs>
    <style>
      .cls-1 {
        fill: url(#radial-gradient-10);
      }

      .cls-2 {
        fill: url(#linear-gradient-15);
      }

      .cls-3 {
        fill: url(#linear-gradient-13);
      }

      .cls-4 {
        fill: #231f20;
        font-family: Assistant-Bold, Assistant;
        font-size: 69.69px;
        font-weight: 700;
      }

      .cls-5 {
        fill: #aa1d42;
      }

      .cls-6 {
        fill: #cccccb;
      }

      .cls-7 {
        fill: #818182;
      }

      .cls-8 {
        fill: #5e5f5f;
      }

      .cls-9 {
        fill: url(#linear-gradient-2);
      }

      .cls-10 {
        fill: url(#radial-gradient-9);
      }

      .cls-11 {
        fill: url(#linear-gradient-10);
      }

      .cls-12 {
        fill: url(#linear-gradient-12);
      }

      .cls-13 {
        fill: url(#radial-gradient-14);
      }

      .cls-14 {
        fill: #fff;
      }

      .cls-15 {
        fill: #0d0d0d;
      }

      .cls-16, .cls-17 {
        fill: none;
      }

      .cls-18 {
        fill: url(#linear-gradient-4);
      }

      .cls-19 {
        fill: url(#radial-gradient-5);
      }

      .cls-20 {
        fill: url(#radial-gradient);
      }

      .cls-21 {
        fill: url(#radial-gradient-3);
      }

      .cls-22 {
        fill: url(#linear-gradient-3);
      }

      .cls-23 {
        clip-path: url(#clippath-1);
      }

      .cls-24 {
        fill: url(#linear-gradient-5);
      }

      .cls-17 {
        stroke: #000;
        stroke-miterlimit: 10;
        stroke-width: 2px;
      }

      .cls-25 {
        fill: #eaeaea;
      }

      .cls-26 {
        fill: url(#radial-gradient-11);
      }

      .cls-27 {
        fill: url(#linear-gradient-8);
      }

      .cls-28 {
        fill: url(#radial-gradient-8);
      }

      .cls-29 {
        fill: url(#radial-gradient-2);
      }

      .cls-30 {
        fill: #fdbe13;
      }

      .cls-31 {
        fill: url(#linear-gradient-14);
      }

      .cls-32 {
        fill: url(#radial-gradient-4);
      }

      .cls-33 {
        fill: url(#linear-gradient-17);
      }

      .cls-34 {
        fill: url(#linear-gradient-7);
      }

      .cls-35 {
        fill: url(#linear-gradient-9);
      }

      .cls-36 {
        fill: url(#linear-gradient-11);
      }

      .cls-37 {
        fill: url(#radial-gradient-12);
      }

      .cls-38 {
        fill: url(#linear-gradient-6);
      }

      .cls-39 {
        fill: #d6d6d6;
      }

      .cls-40 {
        fill: url(#radial-gradient-6);
      }

      .cls-41 {
        fill: url(#radial-gradient-7);
      }

      .cls-42 {
        fill: url(#linear-gradient-16);
      }

      .cls-43 {
        fill: url(#radial-gradient-13);
      }

      .cls-44 {
        fill: url(#linear-gradient);
      }

      .cls-45 {
        clip-path: url(#clippath);
      }

      .cls-46 {
        fill: #bfbfbf;
      }

      .cls-47 {
        fill: #898989;
      }

      .cls-48 {
        fill: url(#linear-gradient-18);
      }

      .cls-49 {
        fill: #171717;
      }
    </style>
    <clipPath id="clippath">
      <rect class="cls-16" x="978" y="306.22" width="953.6" height="1356.69" rx="90.74" ry="90.74"/>
    </clipPath>
    <clipPath id="clippath-1">
      <path class="cls-16" d="M1066.85,301.15h776.84c49.74,0,90.12,40.38,90.12,90.12v1099.68c0,4.81-3.9,8.71-8.71,8.71h-938.13c-5.66,0-10.25-4.6-10.25-10.25V391.27c0-49.74,40.38-90.12,90.12-90.12Z"/>
    </clipPath>
    <linearGradient id="linear-gradient" x1="1454.14" y1="301.15" x2="1454.14" y2="1499.66" gradientUnits="userSpaceOnUse">
      <stop offset="0" stop-color="#b3daf4"/>
      <stop offset=".42" stop-color="#d8ecf9"/>
      <stop offset=".78" stop-color="#f0f8fd"/>
      <stop offset="1" stop-color="#fafdff"/>
    </linearGradient>
    <radialGradient id="radial-gradient" cx="1168.34" cy="1267.03" fx="1168.34" fy="1267.03" r="241.43" gradientTransform="translate(-1317.14 -491.74) rotate(8.82) scale(2.58 1.08)" gradientUnits="userSpaceOnUse">
      <stop offset="0" stop-color="#0f1041" stop-opacity=".1"/>
      <stop offset="1" stop-color="#fafdff" stop-opacity="0"/>
    </radialGradient>
    <radialGradient id="radial-gradient-2" cx="1684.8" cy="1403.25" fx="1684.8" fy="1403.25" r="29.93" gradientUnits="userSpaceOnUse">
      <stop offset="0" stop-color="#6d6e71"/>
      <stop offset=".6" stop-color="#4f4f51"/>
      <stop offset="1" stop-color="#414042"/>
    </radialGradient>
    <radialGradient id="radial-gradient-3" cx="979.11" cy="1271.77" fx="979.11" fy="1271.77" r="29.93" xlink:href="#radial-gradient-2"/>
    <radialGradient id="radial-gradient-4" cx="1211.44" cy="1221.91" fx="1211.44" fy="1221.91" r="29.93" xlink:href="#radial-gradient-2"/>
    <radialGradient id="radial-gradient-5" cx="1931.44" cy="1346.23" fx="1931.44" fy="1346.23" r="29.93" xlink:href="#radial-gradient-2"/>
    <linearGradient id="linear-gradient-2" x1="1805.63" y1="1306.72" x2="1805.63" y2="1364" gradientUnits="userSpaceOnUse">
      <stop offset="0" stop-color="#fed700"/>
      <stop offset=".4" stop-color="#fdd401"/>
      <stop offset=".64" stop-color="#fccc06"/>
      <stop offset=".83" stop-color="#fbbe0e"/>
      <stop offset="1" stop-color="#f9aa1a"/>
      <stop offset="1" stop-color="#f9aa1b"/>
    </linearGradient>
    <linearGradient id="linear-gradient-3" x1="1820.77" y1="1312.34" x2="1820.77" y2="1400.79" xlink:href="#linear-gradient-2"/>
    <linearGradient id="linear-gradient-4" x1="1656.92" y1="1354" x2="1656.92" y2="1400.79" xlink:href="#linear-gradient-2"/>
    <linearGradient id="linear-gradient-5" x1="1075.43" y1="1174.71" x2="1075.43" y2="1231.99" xlink:href="#linear-gradient-2"/>
    <linearGradient id="linear-gradient-6" x1="1089.51" y1="1180.33" x2="1089.51" y2="1268.78" xlink:href="#linear-gradient-2"/>
    <linearGradient id="linear-gradient-7" x1="926.72" y1="1222.68" x2="926.72" y2="1268.78" xlink:href="#linear-gradient-2"/>
    <linearGradient id="linear-gradient-8" x1="1092.65" y1="574.89" x2="1086.45" y2="1011.94" gradientTransform="translate(-28.59 -34.95) rotate(-2.18) scale(1 1.27) skewX(-.49)" gradientUnits="userSpaceOnUse">
      <stop offset="0" stop-color="#fed700"/>
      <stop offset="1" stop-color="#f9aa1b"/>
    </linearGradient>
    <linearGradient id="linear-gradient-9" x1="1454.34" y1="580.61" x2="1445.85" y2="511.44" gradientTransform="translate(-35.66 169.63) rotate(-3.05)" gradientUnits="userSpaceOnUse">
      <stop offset="0" stop-color="#f9aa1b"/>
      <stop offset=".3" stop-color="#f9ad18"/>
      <stop offset=".6" stop-color="#fab911"/>
      <stop offset=".89" stop-color="#fccd05"/>
      <stop offset="1" stop-color="#fed700"/>
    </linearGradient>
    <linearGradient id="linear-gradient-10" x1="1453.91" y1="569.23" x2="1445.81" y2="503.2" gradientTransform="translate(-30.37 154.82) rotate(-2.46)" gradientUnits="userSpaceOnUse">
      <stop offset="0" stop-color="#fed700"/>
      <stop offset=".59" stop-color="#fab911"/>
      <stop offset="1" stop-color="#f9aa1b"/>
    </linearGradient>
    <linearGradient id="linear-gradient-11" x1="1460.66" y1="505.33" x2="1460.66" y2="531.88" gradientTransform="translate(-79.17 324.37) rotate(-9.01)" gradientUnits="userSpaceOnUse">
      <stop offset=".68" stop-color="#fed700"/>
      <stop offset=".85" stop-color="#fdd501"/>
      <stop offset=".91" stop-color="#fdce05"/>
      <stop offset=".95" stop-color="#fbc20c"/>
      <stop offset=".99" stop-color="#f9b116"/>
      <stop offset="1" stop-color="#f9aa1b"/>
    </linearGradient>
    <linearGradient id="linear-gradient-12" x1="1825.83" y1="497.17" x2="1816.69" y2="1141.52" xlink:href="#linear-gradient-8"/>
    <linearGradient id="linear-gradient-13" x1="1789.16" y1="529.39" x2="1789.16" y2="1164.38" gradientTransform="translate(-1537.54 -201.91) rotate(.76) scale(1.86 1.29)" xlink:href="#linear-gradient-2"/>
    <linearGradient id="linear-gradient-14" x1="1416.92" y1="624.71" x2="1416.92" y2="1065.77" gradientTransform="translate(-1537.54 -201.91) rotate(.76) scale(1.86 1.29)" xlink:href="#linear-gradient-2"/>
    <radialGradient id="radial-gradient-6" cx="1683.54" cy="523.93" fx="1676.23" fy="517.03" r="10.06" gradientTransform="translate(-57.48 248.06) rotate(-8.02)" gradientUnits="userSpaceOnUse">
      <stop offset="0" stop-color="#6d6e71"/>
      <stop offset=".48" stop-color="#606164"/>
      <stop offset="1" stop-color="#58595b"/>
    </radialGradient>
    <radialGradient id="radial-gradient-7" cx="1230.52" cy="522.23" fx="1223.21" fy="515.32" r="10.06" xlink:href="#radial-gradient-6"/>
    <radialGradient id="radial-gradient-8" cx="1030.2" cy="521.57" fx="1022.89" fy="514.66" r="10.06" xlink:href="#radial-gradient-6"/>
    <radialGradient id="radial-gradient-9" cx="1435.01" cy="522.2" fx="1427.7" fy="515.29" r="10.06" xlink:href="#radial-gradient-6"/>
    <radialGradient id="radial-gradient-10" cx="1786.84" cy="1094.36" fx="1786.84" fy="1094.36" r="7.25" gradientUnits="userSpaceOnUse">
      <stop offset=".68" stop-color="#ef3d30"/>
      <stop offset=".85" stop-color="#ed3b2f"/>
      <stop offset=".91" stop-color="#e6372e"/>
      <stop offset=".95" stop-color="#da302b"/>
      <stop offset=".98" stop-color="#c92628"/>
      <stop offset="1" stop-color="#be2026"/>
    </radialGradient>
    <radialGradient id="radial-gradient-11" cx="1229.53" cy="1045.44" fx="1229.53" fy="1045.44" r="25.47" gradientTransform="translate(-4.74)" gradientUnits="userSpaceOnUse">
      <stop offset=".27" stop-color="#2d2d2d"/>
      <stop offset="1" stop-color="#414042"/>
    </radialGradient>
    <radialGradient id="radial-gradient-12" cx="1235.32" cy="1051.48" fx="1235.32" fy="1051.48" r="10.95" gradientTransform="translate(-4.74)" gradientUnits="userSpaceOnUse">
      <stop offset=".03" stop-color="#2d2d2d"/>
      <stop offset="1" stop-color="#58595b"/>
    </radialGradient>
    <linearGradient id="linear-gradient-15" x1="1191.39" y1="991.74" x2="1207.03" y2="991.74" gradientUnits="userSpaceOnUse">
      <stop offset="0" stop-color="#fec010"/>
      <stop offset=".46" stop-color="#fdbd10"/>
      <stop offset=".73" stop-color="#fcb513"/>
      <stop offset=".95" stop-color="#faa718"/>
      <stop offset="1" stop-color="#faa31a"/>
    </linearGradient>
    <linearGradient id="linear-gradient-16" x1="1240.34" y1="991.74" x2="1255.98" y2="991.74" xlink:href="#linear-gradient-15"/>
    <linearGradient id="linear-gradient-17" x1="1223.68" y1="970.47" x2="1223.68" y2="987.15" gradientUnits="userSpaceOnUse">
      <stop offset="0" stop-color="#414042"/>
      <stop offset=".07" stop-color="#57575a"/>
      <stop offset=".14" stop-color="#6d6e71"/>
      <stop offset=".38" stop-color="#a5a7a9"/>
      <stop offset=".5" stop-color="#bcbec0"/>
      <stop offset=".59" stop-color="#a8a9ac"/>
      <stop offset=".79" stop-color="#7d7e81"/>
      <stop offset=".89" stop-color="#6d6e71"/>
      <stop offset="1" stop-color="#414042"/>
    </linearGradient>
    <radialGradient id="radial-gradient-13" cx="1308.13" cy="1003.42" fx="1299.18" fy="1003.42" r="16.73" gradientTransform="translate(-21.48) scale(.95 1)" gradientUnits="userSpaceOnUse">
      <stop offset=".03" stop-color="#e6e7e8"/>
      <stop offset="1" stop-color="#808285"/>
    </radialGradient>
    <radialGradient id="radial-gradient-14" cx="1304.61" cy="1014.38" fx="1304.61" fy="1014.38" r="19.91" gradientTransform="translate(-21.48) scale(.95 1)" gradientUnits="userSpaceOnUse">
      <stop offset=".03" stop-color="#e6e7e8"/>
      <stop offset="1" stop-color="#808285"/>
    </radialGradient>
    <linearGradient id="linear-gradient-18" x1="1223.67" y1="995.11" x2="1223.67" y2="1016.28" xlink:href="#linear-gradient-2"/>
  </defs>
  <g id="_עגורן_שער" data-name="עגורן שער">
    <g id="_שער_כרטיס" data-name="שער כרטיס">
      <rect class="cls-30" x="978" y="306.28" width="953.73" height="1356.69" rx="90.74" ry="90.74"/>
      <g class="cls-45">
        <g>
          <rect class="cls-15" x="1816.3" y="-279.73" width="58.83" height="1219.89" transform="translate(636.27 1763.03) rotate(-59.98)"/>
          <rect class="cls-15" x="1677.82" y="-194.19" width="58.83" height="1219.89" transform="translate(493.02 1685.87) rotate(-59.98)"/>
          <rect class="cls-15" x="1511.92" y="-119.34" width="58.83" height="1219.89" transform="translate(345.33 1579.63) rotate(-59.98)"/>
          <rect class="cls-15" x="1717.8" y="-312.07" width="58.83" height="2133.69" transform="translate(219.47 1889.87) rotate(-59.98)"/>
          <rect class="cls-15" x="1529.3" y="-255.38" width="58.83" height="2133.69" transform="translate(76.21 1754.99) rotate(-59.98)"/>
          <rect class="cls-15" x="1294.5" y="-220.27" width="58.83" height="2133.69" transform="translate(-71.5 1569.23) rotate(-59.98)"/>
          <rect class="cls-15" x="1556.33" y="92.96" width="58.83" height="2133.69" transform="translate(-211.88 1952.43) rotate(-59.98)"/>
          <rect class="cls-15" x="1367.83" y="149.65" width="58.83" height="2133.69" transform="translate(-355.14 1817.55) rotate(-59.98)"/>
          <rect class="cls-15" x="1133.03" y="184.75" width="58.83" height="2133.69" transform="translate(-502.86 1631.8) rotate(-59.98)"/>
          <rect class="cls-15" x="1334.24" y="476.56" width="58.83" height="2133.69" transform="translate(-654.98 1951.8) rotate(-59.98)"/>
          <rect class="cls-15" x="1143.95" y="541.28" width="58.83" height="2133.69" transform="translate(-806.08 1819.39) rotate(-59.98)"/>
          <rect class="cls-15" x="909.44" y="559.82" width="58.83" height="2133.69" transform="translate(-939.31 1625.61) rotate(-59.98)"/>
        </g>
      </g>
      <rect class="cls-14" x="1156.95" y="1526.59" width="597.98" height="111.34" rx="11.06" ry="11.06"/>
      <text class="cls-4" transform="translate(1315.81 1603.91)"><tspan x="0" y="0">עגורן שער</tspan></text>
    </g>
    <g class="cls-23">
      <path class="cls-44" d="M1066.55,301.15h775.17c49.74,0,90.12,40.38,90.12,90.12v1098.71c0,5.34-4.34,9.68-9.68,9.68h-938.62c-3.93,0-7.12-3.19-7.12-7.12V391.27c0-49.74,40.38-90.12,90.12-90.12Z"/>
      <path class="cls-20" d="M2302.71,1430.72c-4.45,28.68-402.9,11.28-890.83-72.27-471.29-80.71-830.21-77.98-825.76-106.66s349.73-86.28,838.91-10.4c489.18,75.89,882.13,160.65,877.69,189.33Z"/>
      <g>
        <g>
          <ellipse class="cls-29" cx="1684.8" cy="1403.25" rx="32.08" ry="27.62"/>
          <ellipse class="cls-7" cx="1684.61" cy="1403.47" rx="9.57" ry="8.82"/>
        </g>
        <g>
          <ellipse class="cls-21" cx="979.11" cy="1271.77" rx="32.08" ry="27.62"/>
          <ellipse class="cls-7" cx="978.92" cy="1271.99" rx="9.57" ry="8.82"/>
        </g>
        <g>
          <ellipse class="cls-32" cx="1211.44" cy="1221.91" rx="32.08" ry="27.62"/>
          <ellipse class="cls-7" cx="1211.64" cy="1222.37" rx="9.57" ry="8.82"/>
        </g>
        <g>
          <ellipse class="cls-19" cx="1931.44" cy="1346.23" rx="32.08" ry="27.62"/>
          <ellipse class="cls-7" cx="1931.25" cy="1346.45" rx="9.57" ry="8.82"/>
        </g>
      </g>
      <g>
        <g>
          <g>
            <polygon class="cls-9" points="1941.57 1306.72 1641.79 1354 1672.06 1364 1969.47 1312.34 1941.57 1306.72"/>
            <polygon class="cls-22" points="1969.47 1340.39 1672.06 1400.79 1672.06 1364 1969.47 1312.34 1969.47 1340.39"/>
            <polygon class="cls-18" points="1672.06 1400.79 1642.2 1389.75 1641.79 1354 1672.06 1364 1672.06 1400.79"/>
            <g>
              <polygon class="cls-24" points="1210.31 1174.71 912.64 1222.68 940.8 1231.99 1238.22 1180.33 1210.31 1174.71"/>
              <polygon class="cls-38" points="1238.22 1211.38 940.8 1268.78 940.8 1231.99 1238.22 1180.33 1238.22 1211.38"/>
              <polygon class="cls-34" points="940.8 1268.78 913.61 1257.44 912.64 1222.68 940.8 1231.99 940.8 1268.78"/>
            </g>
          </g>
          <path class="cls-27" d="M1118.37,660.12l-9.7,471.6c.02,1.44.33,2.85.33,4.29,0,4.76.29,8.76.68,12.77,1.35,13.9,3.41,27.72,9.63,40.22l2.18,4.37-56.19,10.95,25.5-553.81"/>
          <polygon class="cls-35" points="1799.14 609.81 1089.72 699.9 1090.5 664.6 1790.83 563.32 1799.14 609.81"/>
          <polygon class="cls-11" points="1798.87 602.39 1089.67 694.1 1090.13 653.05 1790.72 550.5 1798.87 602.39"/>
          <polygon class="cls-36" points="1795.65 565.62 1088.9 666.92 1090.81 650.5 1794.87 549.87 1795.65 565.62"/>
          <path class="cls-12" d="M1862.44,559.47l-13.92,676.98c.03,2.06.48,4.1.47,6.16-.01,6.83.42,12.57.98,18.33,1.94,19.95,4.9,39.79,13.83,57.73l3.13,6.28-80.66,15.71,37.07-816.48"/>
          <path class="cls-3" d="M1823.34,524.18l-15.35,696.95c-.14,7-.77,45.53-.94,54.97-.03,1.86.5,14.8-2.31,30.35-2.03,11.27-6,21.83-18.48,34.2h-2.82s-31.39.08-31.39.08l.97-.68c6.39-4.44,11.38-10.26,14.44-16.92.63-1.36,1.27-2.85,1.93-4.48,9.75-23.9,9.06-65.3,8.91-77.33l11.53-607.81c0-.09,0-.18,0-.27.05-5.49.55-35.44-3.58-43.39-2.63-5.05-5.72-9.13-10.1-12.96-1.88-1.64-3.22-2.54-6-4.44l-25.01-36.88"/>
          <path class="cls-31" d="M1130.32,644.85l-12.55,9.62c-4.62,3.54-9.74,6.36-15.1,8.65-6.41,2.75-11.32,3.37-11.54,11.18,0,.07-.06.91-.06.97l-10.62,445.77c-.1,4.88-.54,31.72-.65,38.29-.02,1.3.35,10.31-1.61,21.15-1.42,7.85-4.18,15.2-12.87,23.82h-1.96s-21.87.06-21.87.06l.68-.47c4.45-3.09,7.93-7.14,10.06-11.79.44-.95.89-1.99,1.35-3.12,6.79-16.65,6.31-45.49,6.21-53.87l2.07-498.31"/>
        </g>
        <g>
          <path class="cls-17" d="M1255.72,605.12c3.41,32.42.39,193.89,55.3,190.95,58.44-3.13,19.62-204.54,55.7-207.59"/>
          <path class="cls-17" d="M1366.08,588.55c30.84-2.47,19.51,198.06,67.57,196.27,63.16-2.35,35.85-212.38,67.95-214.62"/>
          <path class="cls-17" d="M1500.31,570.41c.88-.13,2.95.29,3.25.38,31.53,10.05,12.62,206.29,60.52,203.02,52.34-3.58,8.21-224.84,50.02-218.54"/>
          <path class="cls-17" d="M1613.12,555.21c38.28.55,16.26,207.73,60.98,206.65,39.07-.94,18.74-214.13,37.93-212.81,11.7.8-1.09,104.14,40.46,98.92,15.78-1.98,44.27-37.61,49.64-76.4"/>
          <path class="cls-17" d="M1255.72,604.5c-2.15,250.63-5.39,372.78-7.57,372.81-2.18.03-7.92-119.57-10.65-370.46"/>
          <path class="cls-17" d="M1203.29,611.83c-2.15,250.45-1.72,365.45-3.9,365.48-2.18.03-7.2-113.36-9.94-364.07"/>
        </g>
        <g>
          <polygon class="cls-6" points="1081.98 637.24 1083.05 632.84 1802.63 531.36 1802.18 536.59 1081.98 637.24"/>
          <polygon class="cls-8" points="1061.81 645.4 1061.72 630.37 1783.84 527.84 1788.72 529.25 1787.54 544.18 1061.81 645.4"/>
        </g>
        <line class="cls-17" x1="1802.92" y1="524.76" x2="1793.56" y2="1078.62"/>
        <g>
          <polygon class="cls-40" points="1689.09 525.14 1676.97 527.49 1676.26 539.06 1689.05 537.26 1689.09 525.14"/>
          <polygon class="cls-47" points="1689.05 537.26 1676.26 539.06 1727.01 552.55 1736.94 551.15 1689.05 537.26"/>
          <polygon class="cls-46" points="1736.95 542.38 1689.09 525.14 1689.05 537.26 1736.94 551.15 1736.95 542.38"/>
        </g>
        <g>
          <polygon class="cls-41" points="1240.26 586.63 1228.14 588.97 1227.43 600.54 1240.22 598.74 1240.26 586.63"/>
          <polygon class="cls-47" points="1240.22 598.74 1227.43 600.54 1278.18 614.03 1288.11 612.63 1240.22 598.74"/>
          <polygon class="cls-46" points="1288.12 603.86 1240.26 586.63 1240.22 598.74 1288.11 612.63 1288.12 603.86"/>
        </g>
        <g>
          <polygon class="cls-28" points="1041.81 613.91 1029.68 616.26 1028.98 627.83 1041.77 626.03 1041.81 613.91"/>
          <polygon class="cls-47" points="1041.77 626.03 1028.98 627.83 1079.73 641.32 1089.65 639.92 1041.77 626.03"/>
          <polygon class="cls-46" points="1089.67 631.15 1041.81 613.91 1041.77 626.03 1089.65 639.92 1089.67 631.15"/>
        </g>
        <g>
          <polygon class="cls-10" points="1442.75 558.08 1430.63 560.43 1429.92 572 1442.71 570.2 1442.75 558.08"/>
          <polygon class="cls-47" points="1442.71 570.2 1429.92 572 1480.67 585.49 1490.6 584.09 1442.71 570.2"/>
          <polygon class="cls-46" points="1490.61 575.32 1442.75 558.08 1442.71 570.2 1490.6 584.09 1490.61 575.32"/>
        </g>
        <g>
          <polygon class="cls-39" points="1806.46 1117.85 1798.5 1119.42 1776.74 1119.41 1777.99 1070.91 1805.43 1070.91 1806.46 1117.85"/>
          <polygon class="cls-47" points="1806.46 1117.85 1798.5 1119.41 1798.88 1070.91 1807.08 1070.3 1806.46 1117.85"/>
          <polygon class="cls-25" points="1798.88 1070.91 1777.99 1070.91 1783.46 1070.36 1807.14 1070.3 1798.88 1070.91"/>
        </g>
        <g>
          <ellipse class="cls-5" cx="1787.44" cy="1094.24" rx="7" ry="7.49"/>
          <ellipse class="cls-1" cx="1786.84" cy="1094.36" rx="7" ry="7.49"/>
        </g>
        <g>
          <path class="cls-26" d="M1244.29,1049.78c-.01-1.73,0-3.72-.62-5.14v-.02c-.44-1-1.37-1.6-2.39-1.7-3.61,3.03-4.41,8.29-6.77,12.55-2.26,3.84-6.44,4.88-10.44,4.53-3.83-.17-7.31-3.14-8.18-6.8-1.04-3.86.35-7.28,2.71-10.08.61-.92,1.28-1.83,1.92-2.77,1.26-1.83,2.57-3.74,3.84-5.58,1.66-2.54,2.96-3.86,3.66-6.39.09-.37.13-.75.14-1.13h0v-10.54h-9.45v4.96c0,1.18-.46,2.32-1.3,3.15,0,0,0,0-.01.01-1.12,1.15-2.3,2.32-3.52,3.34-2.82,2.44-6.38,4.1-8.81,7.01-3.76,4.54-4.09,10.94-4.11,16.61,0,3.04-.08,6.14.44,9.14.95,5.9,5.41,10.96,11.15,12.48,3.41.99,6.86.72,10.45.77,3.6-.06,6.8.22,10.17-.69,4.85-1.23,8.94-5.22,10.3-10.09.86-2.65.84-5.73.84-8.78,0-1.58,0-3.26,0-4.83Z"/>
          <path class="cls-37" d="M1215.89,1053.2c.87,3.66,4.35,6.62,8.18,6.8,4,.35,8.18-.7,10.44-4.53,2.36-4.26,3.16-9.52,6.77-12.55-.21-.02-.42-.02-.63,0-2.18.29-3.37,2.67-4.43,4.51-.99,1.82-1.93,3.71-2.99,5.5-1.77,3.11-4.32,5.32-7.83,5.61-4.55.4-8.79-3.4-9.14-7.92-.39-2.87.81-5.19,2.34-7.49-2.36,2.8-3.75,6.22-2.71,10.08Z"/>
          <rect class="cls-49" x="1217.15" y="1013.72" width="12.65" height="5.12" rx="2.56" ry="2.56"/>
        </g>
        <g>
          <path class="cls-2" d="M1207.03,968.96c0-4.24-3.43-7.68-7.67-7.68h-.31c-4.23,0-7.67,3.44-7.67,7.68v45.57c0,4.24,3.43,7.68,7.67,7.68h.31c4.23,0,7.67-3.44,7.67-7.68v-45.57Z"/>
          <path d="M1202.09,988.51h-5.76c0-8.91,0-17.82,0-26.73.38-.15.85-.29,1.41-.39.69-.12,1.23-.12,1.63-.11.37,0,.86.02,1.48.14.52.1.95.25,1.27.37,0,8.91-.01,17.82-.02,26.73Z"/>
        </g>
        <g>
          <path class="cls-42" d="M1248.32,961.28h-.31c-4.23,0-7.67,3.44-7.67,7.68v45.57c0,4.24,3.43,7.68,7.67,7.68h.31c4.23,0,7.67-3.44,7.67-7.68v-45.57c0-4.24-3.43-7.68-7.67-7.68Z"/>
          <path d="M1251.04,988.51h-5.76c0-8.91,0-17.82,0-26.73.38-.15.85-.29,1.41-.39.69-.12,1.23-.12,1.63-.11.37,0,.86.02,1.48.14.52.1.95.25,1.27.37,0,8.91-.01,17.82-.02,26.73Z"/>
        </g>
        <rect class="cls-33" x="1207.03" y="970.47" width="33.31" height="16.68"/>
        <g>
          <path d="M1207.03,970.47h.98v47.96c0,.27-.22.49-.49.49h0c-.27,0-.49-.22-.49-.49v-47.96h0Z"/>
          <path d="M1239.36,970.47h.98v47.96c0,.27-.22.49-.49.49h0c-.27,0-.49-.22-.49-.49v-47.96h0Z"/>
        </g>
        <g>
          <path class="cls-43" d="M1214.75,997.01c.67,3.49,4.66,2.44,7.32,2.79,1,.17,1.5-1.39,2.5-1.57,1.33-.17,3.99.17,3.66,1.92-.67,2.09-5.66,2.61-3.83,4.88,1.16,1.74,4.66,3.49,2.83,6.1.67.52,1.66.87,2.16.35,1.5-.87,0-2.79.67-4.01.5-.87,2.16-2.79,2.66-1.74.33,1.05.5,2.96,1.83,2.61,2-.35,2-3.49,3.49-5.06.82-1.2.83.98,1.31,1.54v-9.72h-24.19c-.36.56-.55,1.2-.42,1.9Z"/>
          <path class="cls-13" d="M1230.72,1014.61c-1.66-.7-3.83.87-5.82.52-1.16-.17-1.83-2.09-2.16-3.31-1.66,1.05-1.16,3.84-2.83,4.36-1.83.52-2.99-1.22-4.66-1.92-.17,1.05-1.66,1.22-2,.52-.83-1.05-1.5-2.09-2.5-2.61-1.47-.77-2.16,1.19-2.76,2.62v2.15h31.36v-.91c-.84-.34-1.96-.1-2.97-.37-1.5-.52-3.83-.35-5.66-1.05Z"/>
          <path class="cls-48" d="M1238.04,1003.28c-1.5,1.57-1.5,4.71-3.49,5.06-1.33.35-1.5-1.57-1.83-2.61-.5-1.05-2.16.87-2.66,1.74-.67,1.22.83,3.14-.67,4.01-.5.52-1.5.17-2.16-.35,1.83-2.61-1.66-4.36-2.83-6.1-1.83-2.27,3.16-2.79,3.83-4.88.33-1.74-2.33-2.09-3.66-1.92-1,.17-1.5,1.74-2.5,1.57-2.66-.35-6.66.7-7.32-2.79-.13-.69.05-1.33.42-1.9h-7.18v19.68c.6-1.43,1.29-3.39,2.76-2.62,1,.52,1.66,1.57,2.5,2.61.33.7,1.83.52,2-.52,1.66.7,2.83,2.44,4.66,1.92,1.66-.52,1.16-3.31,2.83-4.36.33,1.22,1,3.14,2.16,3.31,2,.35,4.16-1.22,5.82-.52,1.83.7,4.16.52,5.66,1.05,1.02.27,2.13.03,2.97.37v-11.2c-.48-.56-.49-2.75-1.31-1.54Z"/>
        </g>
      </g>
    </g>
  </g>
</svg>