<?xml version="1.0" encoding="UTF-8"?>
<svg xmlns="http://www.w3.org/2000/svg" xmlns:xlink="http://www.w3.org/1999/xlink" viewBox="972 520 958.76 926.05">
  <defs>
    <style>
      .cls-1 {
        fill: url(#linear-gradient-2);
      }

      .cls-2 {
        opacity: .61;
      }

      .cls-3 {
        fill: #263238;
      }

      .cls-4 {
        fill: #fff;
      }

      .cls-5 {
        fill: #0d0d0d;
      }

      .cls-6, .cls-7 {
        fill: none;
      }

      .cls-8 {
        fill: url(#linear-gradient-4);
      }

      .cls-9, .cls-10 {
        fill: #e79956;
      }

      .cls-11 {
        fill: #f0b980;
      }

      .cls-12 {
        fill: url(#radial-gradient);
      }

      .cls-13 {
        fill: url(#radial-gradient-3);
      }

      .cls-10 {
        opacity: .18;
      }

      .cls-10, .cls-14 {
        mix-blend-mode: multiply;
      }

      .cls-15 {
        fill: url(#linear-gradient-3);
      }

      .cls-16 {
        clip-path: url(#clippath-1);
      }

      .cls-17 {
        fill: url(#linear-gradient-5);
      }

      .cls-18 {
        isolation: isolate;
      }

      .cls-19 {
        fill: url(#linear-gradient-8);
      }

      .cls-20 {
        fill: url(#radial-gradient-2);
      }

      .cls-21 {
        fill: #fdbe13;
      }

      .cls-22 {
        fill: url(#radial-gradient-4);
      }

      .cls-23 {
        fill: url(#linear-gradient-7);
      }

      .cls-14 {
        opacity: .66;
      }

      .cls-14, .cls-24 {
        fill: #896b49;
      }

      .cls-25 {
        fill: #231f20;
        font-family: Assistant-Bold, Assistant;
        font-size: 69.64px;
        font-weight: 700;
      }

      .cls-26 {
        fill: url(#linear-gradient-6);
      }

      .cls-27 {
        fill: #eca762;
      }

      .cls-28 {
        fill: #d9823d;
      }

      .cls-7 {
        stroke: #000;
        stroke-miterlimit: 10;
        stroke-width: 3px;
      }

      .cls-29 {
        fill: url(#linear-gradient);
      }

      .cls-30 {
        clip-path: url(#clippath);
      }

      .cls-31 {
        fill: #171717;
      }
    </style>
    <clipPath id="clippath">
      <rect class="cls-6" x="977.34" y="305.99" width="952.97" height="1355.67" rx="90.74" ry="90.74"/>
    </clipPath>
    <clipPath id="clippath-1">
      <path class="cls-6" d="M1065.57,300.87h776.84c49.74,0,90.12,40.38,90.12,90.12v1098.69c0,5.35-4.35,9.7-9.7,9.7h-937.07c-5.7,0-10.33-4.63-10.33-10.33V391c0-49.74,40.38-90.12,90.12-90.12Z"/>
    </clipPath>
    <linearGradient id="linear-gradient" x1="1453.99" y1="300.87" x2="1453.99" y2="1499.38" gradientUnits="userSpaceOnUse">
      <stop offset="0" stop-color="#c49a6c"/>
      <stop offset=".03" stop-color="#c59d71"/>
      <stop offset=".36" stop-color="#d8c1a8"/>
      <stop offset=".64" stop-color="#e5dbd0"/>
      <stop offset=".86" stop-color="#edece8"/>
      <stop offset="1" stop-color="#f1f2f2"/>
    </linearGradient>
    <linearGradient id="linear-gradient-2" x1="3056.48" y1="-4110.23" x2="3056.48" y2="-3918.19" gradientTransform="translate(-900.04 3614.22) rotate(-14.14) scale(1 .62)" gradientUnits="userSpaceOnUse">
      <stop offset="0" stop-color="#fec010"/>
      <stop offset=".46" stop-color="#fdbd10"/>
      <stop offset=".73" stop-color="#fcb513"/>
      <stop offset=".95" stop-color="#faa718"/>
      <stop offset="1" stop-color="#faa31a"/>
    </linearGradient>
    <linearGradient id="linear-gradient-3" x1="1438.06" y1="512.96" x2="1438.06" y2="581.08" gradientTransform="matrix(1,0,0,1,0,0)" xlink:href="#linear-gradient-2"/>
    <linearGradient id="linear-gradient-4" x1="1915.11" y1="377.22" x2="1915.11" y2="595.69" gradientTransform="matrix(1,0,0,1,0,0)" xlink:href="#linear-gradient-2"/>
    <radialGradient id="radial-gradient" cx="1724.03" cy="1084.85" fx="1724.03" fy="1084.85" r="30.26" gradientUnits="userSpaceOnUse">
      <stop offset=".27" stop-color="#2d2d2d"/>
      <stop offset="1" stop-color="#414042"/>
    </radialGradient>
    <radialGradient id="radial-gradient-2" cx="1730.92" cy="1092.03" fx="1730.92" fy="1092.03" r="13.01" gradientUnits="userSpaceOnUse">
      <stop offset=".03" stop-color="#2d2d2d"/>
      <stop offset="1" stop-color="#58595b"/>
    </radialGradient>
    <linearGradient id="linear-gradient-5" x1="1686.85" y1="1021.04" x2="1705.47" y2="1021.04" gradientTransform="matrix(1,0,0,1,0,0)" xlink:href="#linear-gradient-2"/>
    <linearGradient id="linear-gradient-6" x1="1745.12" y1="1021.04" x2="1763.74" y2="1021.04" gradientTransform="matrix(1,0,0,1,0,0)" xlink:href="#linear-gradient-2"/>
    <linearGradient id="linear-gradient-7" x1="1725.3" y1="995.76" x2="1725.3" y2="1015.58" gradientUnits="userSpaceOnUse">
      <stop offset="0" stop-color="#414042"/>
      <stop offset=".07" stop-color="#57575a"/>
      <stop offset=".14" stop-color="#6d6e71"/>
      <stop offset=".38" stop-color="#a5a7a9"/>
      <stop offset=".5" stop-color="#bcbec0"/>
      <stop offset=".59" stop-color="#a8a9ac"/>
      <stop offset=".79" stop-color="#7d7e81"/>
      <stop offset=".89" stop-color="#6d6e71"/>
      <stop offset="1" stop-color="#414042"/>
    </linearGradient>
    <radialGradient id="radial-gradient-3" cx="1736.2" cy="1034.92" fx="1725.56" fy="1034.92" r="19.88" gradientTransform="translate(69.29) scale(.96 1)" gradientUnits="userSpaceOnUse">
      <stop offset=".03" stop-color="#e6e7e8"/>
      <stop offset="1" stop-color="#808285"/>
    </radialGradient>
    <radialGradient id="radial-gradient-4" cx="1732.02" cy="1047.94" fx="1732.02" fy="1047.94" r="23.66" gradientTransform="translate(69.29) scale(.96 1)" gradientUnits="userSpaceOnUse">
      <stop offset=".03" stop-color="#e6e7e8"/>
      <stop offset="1" stop-color="#808285"/>
    </radialGradient>
    <linearGradient id="linear-gradient-8" x1="1725.28" y1="1025.04" x2="1725.28" y2="1050.2" gradientUnits="userSpaceOnUse">
      <stop offset="0" stop-color="#fed700"/>
      <stop offset=".4" stop-color="#fdd401"/>
      <stop offset=".64" stop-color="#fccc06"/>
      <stop offset=".83" stop-color="#fbbe0e"/>
      <stop offset="1" stop-color="#f9aa1a"/>
      <stop offset="1" stop-color="#f9aa1b"/>
    </linearGradient>
  </defs>
  <g class="cls-18">
    <g id="Layer_2" data-name="Layer 2">
      <g id="_עגורן_גשר" data-name="עגורן גשר">
        <g id="_גשר_כרטיס" data-name="גשר כרטיס">
          <rect class="cls-21" x="977.34" y="306.05" width="953.09" height="1355.67" rx="90.74" ry="90.74"/>
          <g class="cls-30">
            <g>
              <rect class="cls-5" x="1815.08" y="-279.56" width="58.78" height="1219.04" transform="translate(635.82 1761.79) rotate(-59.97)"/>
              <rect class="cls-5" x="1676.7" y="-194.08" width="58.78" height="1219.04" transform="translate(492.68 1684.68) rotate(-59.97)"/>
              <rect class="cls-5" x="1510.91" y="-119.28" width="58.78" height="1219.04" transform="translate(345.09 1578.51) rotate(-59.97)"/>
              <rect class="cls-5" x="1716.65" y="-311.9" width="58.78" height="2132.21" transform="translate(219.34 1888.52) rotate(-59.97)"/>
              <rect class="cls-5" x="1528.28" y="-255.25" width="58.78" height="2132.21" transform="translate(76.18 1753.73) rotate(-59.97)"/>
              <rect class="cls-5" x="1293.63" y="-220.17" width="58.78" height="2132.21" transform="translate(-71.42 1568.1) rotate(-59.97)"/>
              <rect class="cls-5" x="1555.29" y="92.82" width="58.78" height="2132.21" transform="translate(-211.68 1951.01) rotate(-59.97)"/>
              <rect class="cls-5" x="1366.92" y="149.47" width="58.78" height="2132.21" transform="translate(-354.84 1816.22) rotate(-59.97)"/>
              <rect class="cls-5" x="1132.27" y="184.55" width="58.78" height="2132.21" transform="translate(-502.44 1630.59) rotate(-59.97)"/>
              <rect class="cls-5" x="1333.34" y="476.14" width="58.78" height="2132.21" transform="translate(-654.44 1950.36) rotate(-59.97)"/>
              <rect class="cls-5" x="1143.19" y="540.8" width="58.78" height="2132.21" transform="translate(-805.43 1818.03) rotate(-59.97)"/>
              <rect class="cls-5" x="908.84" y="559.33" width="58.78" height="2132.21" transform="translate(-938.56 1624.39) rotate(-59.97)"/>
            </g>
          </g>
          <rect class="cls-4" x="1156.18" y="1525.44" width="597.58" height="111.26" rx="11.06" ry="11.06"/>
          <text class="cls-25" transform="translate(1326.74 1602.34)"><tspan x="0" y="0">עגורן גשר</tspan></text>
        </g>
        <g class="cls-16">
          <path class="cls-29" d="M986.67,300.87h934.65c6.19,0,11.22,5.03,11.22,11.22v1187.29h-945.87c-6.19,0-11.22-5.03-11.22-11.22V312.09c0-6.19,5.03-11.22,11.22-11.22Z"/>
          <polygon class="cls-1" points="1920.65 411.51 1002.95 547.69 993.16 523 1919.49 388.73 1920.65 411.51"/>
          <rect class="cls-15" x="965.35" y="512.96" width="945.41" height="68.12" rx="16.93" ry="16.93"/>
          <rect class="cls-8" x="1898.76" y="377.22" width="32.7" height="218.47" rx="12.52" ry="12.52"/>
          <path class="cls-7" d="M1762.2,583.01c-2.56,296.19-5.17,420.84-7.77,420.88-2.6.03-5.51-124.7-8.77-421.21"/>
          <path class="cls-7" d="M1704.14,583.01c-2.56,296.19-5.17,420.84-7.77,420.88-2.6.03-5.51-124.7-8.77-421.21"/>
          <g>
            <path class="cls-12" d="M1749.83,1090.01c-.01-2.06,0-4.42-.74-6.11v-.03c-.52-1.19-1.63-1.9-2.84-2.02-4.3,3.6-5.25,9.85-8.06,14.91-2.69,4.56-7.66,5.8-12.43,5.39-4.56-.21-8.7-3.73-9.74-8.08-1.24-4.59.41-8.65,3.23-11.98.73-1.09,1.52-2.18,2.28-3.29,1.5-2.18,3.07-4.44,4.57-6.63,1.97-3.02,3.52-4.59,4.36-7.59.1-.44.16-.89.16-1.35h0v-12.53h-11.26v5.89c0,1.4-.55,2.75-1.55,3.74,0,0-.01.01-.02.02-1.33,1.36-2.74,2.76-4.19,3.96-3.35,2.89-7.59,4.87-10.48,8.33-4.48,5.4-4.86,13-4.9,19.74,0,3.61-.09,7.29.53,10.86,1.14,7.01,6.44,13.02,13.28,14.84,4.06,1.17,8.17.86,12.43.92,4.29-.07,8.1.26,12.1-.82,5.78-1.47,10.64-6.21,12.26-11.99,1.03-3.15.99-6.81,1-10.44,0-1.88,0-3.87,0-5.74Z"/>
            <path class="cls-20" d="M1716.01,1094.07c1.04,4.35,5.18,7.87,9.74,8.08,4.76.41,9.74-.83,12.43-5.39,2.81-5.06,3.76-11.31,8.06-14.91-.25-.02-.5-.02-.75,0-2.6.34-4.01,3.17-5.28,5.35-1.18,2.17-2.3,4.41-3.56,6.53-2.1,3.7-5.14,6.32-9.32,6.67-5.41.48-10.47-4.04-10.88-9.42-.47-3.41.96-6.17,2.79-8.9-2.81,3.33-4.47,7.39-3.23,11.98Z"/>
            <rect class="cls-31" x="1717.52" y="1047.16" width="15.05" height="6.08" rx="3.04" ry="3.04"/>
          </g>
          <g>
            <rect class="cls-17" x="1686.85" y="984.84" width="18.62" height="72.4" rx="9.13" ry="9.13"/>
            <path d="M1699.58,1017.2h-6.86c0-10.59,0-21.18,0-31.77.45-.17,1.01-.35,1.67-.47.82-.14,1.47-.14,1.94-.13.44,0,1.02.02,1.76.16.62.12,1.14.29,1.51.44,0,10.59-.02,21.17-.02,31.76Z"/>
          </g>
          <g>
            <rect class="cls-26" x="1745.12" y="984.84" width="18.62" height="72.4" rx="9.13" ry="9.13"/>
            <path d="M1757.86,1017.2h-6.86c0-10.59,0-21.18,0-31.77.45-.17,1.01-.35,1.67-.47.82-.14,1.47-.14,1.94-.13.44,0,1.02.02,1.76.16.62.12,1.14.29,1.51.44,0,10.59-.02,21.17-.02,31.76Z"/>
          </g>
          <rect class="cls-23" x="1705.47" y="995.76" width="39.66" height="19.83"/>
          <g>
            <path class="cls-13" d="M1714.66,1027.29c.79,4.14,5.55,2.9,8.72,3.31,1.19.21,1.78-1.66,2.97-1.86,1.58-.21,4.75.21,4.36,2.28-.79,2.49-6.73,3.11-4.56,5.8,1.39,2.07,5.55,4.14,3.37,7.25.79.62,1.98,1.04,2.57.41,1.78-1.04,0-3.31.79-4.76.59-1.04,2.57-3.31,3.17-2.07.4,1.24.59,3.52,2.18,3.11,2.38-.41,2.38-4.14,4.16-6.01.98-1.43.99,1.17,1.56,1.84v-11.55h-28.79c-.43.67-.65,1.43-.5,2.25Z"/>
            <path class="cls-22" d="M1733.67,1048.22c-1.98-.83-4.56,1.04-6.93.62-1.39-.21-2.18-2.49-2.57-3.94-1.98,1.24-1.39,4.56-3.37,5.18-2.18.62-3.57-1.45-5.55-2.28-.2,1.24-1.98,1.45-2.38.62-.99-1.24-1.78-2.49-2.97-3.11-1.75-.92-2.58,1.41-3.29,3.11v2.55h37.34v-1.09c-1-.4-2.33-.12-3.54-.43-1.78-.62-4.56-.41-6.73-1.24Z"/>
            <path class="cls-19" d="M1742.39,1034.75c-1.78,1.86-1.78,5.59-4.16,6.01-1.58.41-1.78-1.86-2.18-3.11-.59-1.24-2.57,1.04-3.17,2.07-.79,1.45.99,3.73-.79,4.76-.59.62-1.78.21-2.57-.41,2.18-3.11-1.98-5.18-3.37-7.25-2.18-2.69,3.76-3.31,4.56-5.8.4-2.07-2.77-2.49-4.36-2.28-1.19.21-1.78,2.07-2.97,1.86-3.17-.41-7.92.83-8.72-3.31-.16-.83.06-1.58.5-2.25h-8.54v23.39c.72-1.7,1.54-4.03,3.29-3.11,1.19.62,1.98,1.86,2.97,3.11.4.83,2.18.62,2.38-.62,1.98.83,3.37,2.9,5.55,2.28,1.98-.62,1.39-3.94,3.37-5.18.4,1.45,1.19,3.73,2.57,3.94,2.38.41,4.95-1.45,6.93-.62,2.18.83,4.95.62,6.73,1.24,1.21.32,2.54.03,3.54.43v-13.31c-.57-.67-.58-3.27-1.56-1.84Z"/>
          </g>
          <g>
            <g>
              <g>
                <g>
                  <polygon class="cls-11" points="1347.49 1190.18 1347.49 1190.71 1244.18 1272.88 1237.8 1272.88 1231.95 1272.88 1210.39 1272.88 1000.82 1273.02 1000.92 1272.96 1104.07 1190.18 1347.49 1190.18"/>
                  <polygon class="cls-11" points="1346.85 1434.25 1347.49 1434.05 1347.49 1434.25 1346.85 1434.25"/>
                  <g>
                    <polyline class="cls-11" points="1224.45 1190.18 1224.45 1190.71 1121.14 1272.88"/>
                    <polygon class="cls-24" points="1120.76 1273.67 1119.5 1272.09 1222.82 1189.92 1223.03 1190.18 1224.45 1190.18 1224.45 1191.19 1224.07 1191.5 1120.76 1273.67"/>
                  </g>
                  <path class="cls-9" d="M1346.91,1191.01l-1.96,1.47-3.29,2.58-.22.16-1.67,1.29-.34.28-2.9,2.3-1.88,1.47-3.25,2.58-.04.04-1.82,1.41-.2.16-3.05,2.42-.99.79-.87.69-3.27,2.58-1.03.81-.81.65-.08.06-3.19,2.54-.85.67-1.01.81-1.01.79-2.24,1.77-1.86,1.47-3.25,2.58-.73.58-1.13.89-.89.71-2.36,1.86-1.86,1.47-3.27,2.6-.59.46-1.25.99-.77.6-2.5,1.98-1.84,1.45-3.27,2.58-.46.36-1.39,1.11-.63.5-2.62,2.08-1.86,1.47-3.25,2.56-.34.26-1.51,1.21-.5.4-2.74,2.18-1.86,1.47-3.27,2.58-.2.16-1.63,1.29-.38.3-2.88,2.3-1.84,1.45-3.27,2.58-.08.06-1.77,1.41-.24.2-3.01,2.38-1.86,1.47-3.21,2.82-.04.04-.4.65h.44v242.71l.02-.08,3.23-2.58.79-.63,1.05-.85.97-.77,2.02-1.61.24-.2,1.77-1.41.08-.06,3.27-2.6.69-.54,1.15-.91.87-.69,2.02-1.61.38-.3,1.63-1.29.2-.16,3.27-2.6.56-.44,1.29-1.03.73-.58,2.02-1.59.5-.4,1.51-1.21.34-.26,3.25-2.58.44-.34,1.41-1.13.61-.48,2.02-1.59.63-.5,1.39-1.11.46-.36,3.27-2.6.3-.24,1.53-1.21.48-.38,2.02-1.61.77-.61,1.25-.99.59-.46,3.27-2.6.18-.14,1.67-1.33.34-.28,2.02-1.59.89-.71,1.13-.89.73-.58,3.25-2.58.06-.04,1.8-1.43.22-.18,2.02-1.59,2.02-1.61.85-.67,3.19-2.54.08-.06,1.84-1.45.1-.08,3.17-2.52.87-.69.99-.79,1.03-.83,2.02-1.59.2-.16,1.82-1.43.04-.04,3.25-2.58.75-.58,1.11-.89.91-.73,2.02-1.59.32-.26,1.69-1.35.16-.12,3.25-2.58.63-.5,1.23-.97.34-.12.44-.2v-243.34l-.58.3Z"/>
                  <polygon class="cls-27" points="1244.62 1272.88 1244.17 1272.88 1000.56 1272.88 1000.56 1514.93 1244.62 1514.93 1244.62 1272.88"/>
                  <g>
                    <line class="cls-11" x1="1244.18" y1="1272.88" x2="1001.15" y2="1272.26"/>
                    <rect class="cls-24" x="1121.66" y="1151.06" width="2.02" height="243.03" transform="translate(-152.77 2391.98) rotate(-89.85)"/>
                  </g>
                </g>
                <g>
                  <path class="cls-3" d="M1312.97,1450.81l-.15-53.38,24.59-19.34v53.37l-24.44,19.35ZM1316.85,1399.39l.13,43.11,16.39-12.98v-43.11l-16.52,12.99Z"/>
                  <polygon class="cls-3" points="1326.49 1404.6 1320.79 1421.37 1325.3 1418.34 1325.3 1432.63 1329.34 1429.85 1329.34 1415.1 1333.04 1412.11 1326.49 1404.6"/>
                </g>
              </g>
              <path class="cls-9" d="M1043.29,1296.37c-2.12-2.12-4.87,1.92-2.38,3.08.74.34,1.24.34,1.98,0,1.17-.54,1.23-2.25.4-3.08Z"/>
              <path class="cls-9" d="M1081.24,1353.79c-2.32,0-2.32,3.59,0,3.59s2.32-3.59,0-3.59Z"/>
              <path class="cls-9" d="M1055.02,1388.85c-2.02,0-2.02,4.07,0,4.07,4.03,0,4.03-4.07,0-4.07Z"/>
              <path class="cls-9" d="M1083.26,1411.32c-2.02,0-2.02,3.5,0,3.5,4.03,0,4.03-3.5,0-3.5Z"/>
              <path class="cls-9" d="M1095.36,1383.57c-2.02,0-2.02,4.54,0,4.54,4.03,0,4.03-4.54,0-4.54Z"/>
              <path class="cls-9" d="M1044.93,1464.93c-3.35,0-3.35,5.2,0,5.2s3.35-5.2,0-5.2Z"/>
              <path class="cls-9" d="M1165.96,1485.9c-2.32,0-2.32,3.59,0,3.59s2.32-3.59,0-3.59Z"/>
              <path class="cls-9" d="M1184.53,1402.86c-.3.12-.61.24-.91.36-1.75.7-1.75,2.85,0,3.56.3.12.61.24.91.36,1.37.55,2.81-.82,2.81-2.14s-1.45-2.69-2.81-2.14Z"/>
              <path class="cls-9" d="M1177.39,1349.99c-.36-.57-.84-1.02-1.59-1.22-1.52-.42-3.13.5-3.55,2.01-.42,1.51.5,3.13,2.01,3.55,1.32.36,2.42-.22,3.11-1.22.94-.83.94-2.29.01-3.12Z"/>
              <path class="cls-9" d="M1236.55,1327.2c-4.03,0-4.03,6.33,0,6.33,6.05,0,6.05-6.33,0-6.33Z"/>
              <path class="cls-9" d="M1157.89,1312.4c-3.23,0-3.23,5,0,5s3.23-5,0-5Z"/>
              <path class="cls-9" d="M1115.53,1289.54c-2.02,0-2.02,5.01,0,5.01,4.03,0,4.03-5.01,0-5.01Z"/>
              <path class="cls-9" d="M1190.16,1295.21c-1.48,0-3,1.31-2.88,2.88.04.48.09.95.2,1.41.65,2.66,4.71,2.66,5.36,0,.11-.46.17-.93.2-1.41.12-1.57-1.4-2.88-2.88-2.88Z"/>
              <path class="cls-9" d="M1133.09,1449.36c-.35.13-.41.19-.16.18-.25,0-.49.06-.72.16-1.21.43-1.75,1.94-.77,2.92s2.49.44,2.92-.77c.1-.23.16-.47.16-.72-.01.25.05.19.18-.16.6-1.02-.59-2.22-1.62-1.62Z"/>
              <path class="cls-9" d="M1184.11,1445.61c-1.12,0-2.01,1.12-1.69,2.21.09.31.18.62.27.93.41,1.4,2.42,1.4,2.83,0,.09-.31.18-.62.27-.93.32-1.09-.56-2.21-1.69-2.21Z"/>
              <path class="cls-9" d="M1206.81,1488.21c-.47.54-.94,1.08-1.41,1.62-1.13,1.3-1.03,3.31.55,4.23,1.44.84,3.59.11,3.96-1.61.15-.72.31-1.45.46-2.17.41-1.93-2.06-3.78-3.56-2.07Z"/>
              <path class="cls-9" d="M1228.49,1421.12c-2.62,0-2.62,4.07,0,4.07s2.62-4.07,0-4.07Z"/>
              <path class="cls-9" d="M1147.8,1406.72c-2.02,0-2.02,4.63,0,4.63,4.03,0,4.03-4.63,0-4.63Z"/>
              <path class="cls-9" d="M1077.74,1479.12c-.26.14-.51.27-.77.41-1.6.85-1.6,3.4,0,4.25.26.14.51.27.77.41,1.94,1.03,4.41-.24,4.41-2.53s-2.47-3.56-4.41-2.53Z"/>
              <path class="cls-9" d="M1024.76,1492.26c-3.23,0-3.23,5.01,0,5.01s3.23-5.01,0-5.01Z"/>
              <path class="cls-9" d="M1012.66,1427.33c-3.72,0-3.72,5.77,0,5.77s3.72-5.77,0-5.77Z"/>
              <path class="cls-9" d="M1020.73,1375.77c-1.28,0-1.28,1.99,0,1.99s1.28-1.99,0-1.99Z"/>
              <path class="cls-9" d="M1060.06,1322.35c-2.74,0-3.76,3.18-2.11,5.08.16.18.31.36.47.54.79.91,2.49.91,3.28,0,.16-.18.31-.36.47-.54,1.65-1.91.63-5.08-2.11-5.08Z"/>
              <path class="cls-9" d="M1044.93,1354.51c-2.02,0-2.02,4.16,0,4.16,4.03,0,4.03-4.16,0-4.16Z"/>
              <path class="cls-27" d="M1192.56,1233.85c-.15-.3-.39-.53-.68-.68-.82-.41-1.61-.29-2.3.3-.27.23-.55.46-.82.7-1.96,1.66,1.14,4.77,2.81,2.81.23-.27.46-.54.7-.82.59-.69.71-1.48.3-2.3Z"/>
              <path class="cls-27" d="M1212.35,1246.16v3.03c2.02,0,2.02-3.03,0-3.03Z"/>
              <path class="cls-27" d="M1228.49,1211.08v.57c2.02,0,2.02-.57,0-.57Z"/>
              <path class="cls-27" d="M1246.64,1226.14c-2.02,0-2.02,4.73,0,4.73,4.03,0,4.03-4.73,0-4.73Z"/>
              <path class="cls-27" d="M1238.57,1246.2v2.93c2.02,0,2.02-2.93,0-2.93Z"/>
              <path class="cls-27" d="M1224.45,1233.28c-1.65,0-1.65,2.55,0,2.55s1.65-2.55,0-2.55Z"/>
              <path class="cls-27" d="M1261.57,1244.14c-.09-.31-.18-.62-.27-.93-.45-1.53-2.65-1.53-3.1,0-.09.31-.18.62-.27.93-.35,1.18.61,2.39,1.82,2.39s2.17-1.21,1.82-2.39Z"/>
              <path class="cls-27" d="M1167.97,1249.15c-2.02,0-2.02,5.11,0,5.11,4.03,0,4.03-5.11,0-5.11Z"/>
              <path class="cls-27" d="M1220.42,1205.5c-3.66,0-3.66,5.67,0,5.67s3.66-5.67,0-5.67Z"/>
              <path class="cls-27" d="M1089.31,1215.81c-2.02,0-2.02,3.21,0,3.21,4.03,0,4.03-3.21,0-3.21Z"/>
              <path class="cls-27" d="M1131.67,1205.04c-1.65,0-1.65,2.55,0,2.55s1.65-2.55,0-2.55Z"/>
              <path class="cls-27" d="M1123.6,1239.92c-2.02,0-2.02,3.4,0,3.4,4.03,0,4.03-3.4,0-3.4Z"/>
              <path class="cls-27" d="M1105.44,1226.19c-2.02,0-2.02,4.63,0,4.63,4.03,0,4.03-4.63,0-4.63Z"/>
              <path class="cls-27" d="M1075.19,1248.95c-2.02,0-2.02,3.5,0,3.5,4.03,0,4.03-3.5,0-3.5Z"/>
              <path class="cls-27" d="M1110.19,1255.52l-.75-.45c-1.27-.76-2.92.22-2.92,1.67s1.65,2.44,2.92,1.67c.25-.15.5-.3.75-.45.92-.55.92-1.9,0-2.45Z"/>
              <path class="cls-27" d="M1148.97,1226.51c-.26-.12-.53-.25-.79-.37-1.83-.85-4.13.14-4.13,2.37s2.29,3.22,4.13,2.37c.26-.12.53-.24.79-.37,1.52-.7,1.52-3.3,0-4Z"/>
              <path class="cls-28" d="M1262.78,1283.65c-4.33,0-4.33,6.71,0,6.71s4.33-6.71,0-6.71Z"/>
              <path class="cls-28" d="M1297.07,1310.51c-2.02,0-2.02,3.4,0,3.4,4.03,0,4.03-3.4,0-3.4Z"/>
              <path class="cls-28" d="M1301.1,1272.32v1.13c2.02,0,2.02-1.13,0-1.13Z"/>
              <path class="cls-28" d="M1327.32,1285.49c-1.95,0-1.95,3.03,0,3.03s1.95-3.03,0-3.03Z"/>
              <path class="cls-28" d="M1325.3,1328.4c-2.02,0-2.02,5.96,0,5.96,4.03,0,4.03-5.96,0-5.96Z"/>
              <path class="cls-28" d="M1286.98,1366.47c-2.02,0-2.02,4.44,0,4.44,4.03,0,4.03-4.44,0-4.44Z"/>
              <path class="cls-28" d="M1295.05,1399.11c-1.1,0-1.1,1.7,0,1.7s1.1-1.7,0-1.7Z"/>
              <path class="cls-28" d="M1272.78,1426.61c-.23-.18-.47-.35-.7-.53-1.54-1.17-3.7.43-3.7,2.12s2.16,3.29,3.7,2.12l.7-.53c1.17-.89,1.17-2.29,0-3.18Z"/>
              <path class="cls-28" d="M1292.69,1452.3c-.42,1.04-.85,1.98-.98,3.1-.03.24.33.31.44.12.57-.97.8-1.98,1.09-3.07.1-.36-.41-.48-.55-.15Z"/>
              <path class="cls-28" d="M1303.12,1427.27c-2.5,0-2.5,3.88,0,3.88s2.5-3.88,0-3.88Z"/>
              <path class="cls-28" d="M1321.27,1360.58c-2.02,0-2.02,6.15,0,6.15,4.03,0,4.03-6.15,0-6.15Z"/>
              <g class="cls-2">
                <rect class="cls-10" x="1006.32" y="1272.88" width="3.31" height="242.05"/>
                <rect class="cls-10" x="1015.45" y="1272.88" width="3.31" height="242.05"/>
                <rect class="cls-10" x="1024.58" y="1272.88" width="3.31" height="242.05"/>
                <rect class="cls-10" x="1033.71" y="1272.88" width="3.31" height="242.05"/>
                <rect class="cls-10" x="1042.85" y="1272.88" width="3.31" height="242.05"/>
                <rect class="cls-10" x="1051.98" y="1272.88" width="3.31" height="242.05"/>
                <rect class="cls-10" x="1061.11" y="1272.88" width="3.31" height="242.05"/>
                <rect class="cls-10" x="1070.25" y="1272.88" width="3.31" height="242.05"/>
                <rect class="cls-10" x="1079.38" y="1272.88" width="3.31" height="242.05"/>
                <rect class="cls-10" x="1088.51" y="1272.88" width="3.31" height="242.05"/>
                <rect class="cls-10" x="1097.65" y="1272.88" width="3.31" height="242.05"/>
                <rect class="cls-10" x="1106.78" y="1272.88" width="3.31" height="242.05"/>
                <rect class="cls-10" x="1115.91" y="1272.88" width="3.31" height="242.05"/>
                <rect class="cls-10" x="1125.04" y="1272.88" width="3.31" height="242.05"/>
                <rect class="cls-10" x="1134.18" y="1272.88" width="3.31" height="242.05"/>
                <rect class="cls-10" x="1143.31" y="1272.88" width="3.31" height="242.05"/>
                <rect class="cls-10" x="1152.44" y="1272.88" width="3.31" height="242.05"/>
                <rect class="cls-10" x="1161.58" y="1272.88" width="3.31" height="242.05"/>
                <rect class="cls-10" x="1170.71" y="1272.88" width="3.31" height="242.05"/>
                <rect class="cls-10" x="1179.84" y="1272.88" width="3.31" height="242.05"/>
                <rect class="cls-10" x="1188.98" y="1272.88" width="3.31" height="242.05"/>
                <rect class="cls-10" x="1198.11" y="1272.88" width="3.31" height="242.05"/>
                <rect class="cls-10" x="1207.24" y="1272.88" width="3.31" height="242.05"/>
                <rect class="cls-10" x="1216.37" y="1272.88" width="3.31" height="242.05"/>
                <rect class="cls-10" x="1225.51" y="1272.88" width="3.31" height="242.05"/>
                <rect class="cls-10" x="1234.64" y="1272.88" width="3.31" height="242.05"/>
              </g>
              <g class="cls-2">
                <polygon class="cls-10" points="1244.62 1271.94 1244.62 1515.52 1244.62 1515.6 1244.62 1272.88 1244.18 1272.88 1244.62 1271.94"/>
                <polygon class="cls-10" points="1250.67 1267.9 1250.67 1510.7 1249.7 1511.46 1248.66 1512.31 1248.66 1269.37 1250.67 1267.9"/>
                <polygon class="cls-10" points="1254.71 1263.85 1254.71 1507.47 1252.93 1508.88 1252.69 1509.08 1252.69 1265.32 1254.71 1263.85"/>
                <polygon class="cls-10" points="1260.76 1259.81 1260.76 1502.67 1259.89 1503.35 1258.74 1504.26 1258.74 1261.27 1260.76 1259.81"/>
                <polygon class="cls-10" points="1264.79 1255.76 1264.79 1499.46 1263.16 1500.75 1262.78 1501.05 1262.78 1257.21 1264.79 1255.76"/>
                <polygon class="cls-10" points="1270.84 1251.7 1270.84 1494.64 1270.12 1495.22 1268.83 1496.25 1268.83 1253.18 1270.84 1251.7"/>
                <polygon class="cls-10" points="1274.88 1247.65 1274.88 1491.43 1273.37 1492.64 1272.86 1493.05 1272.86 1249.12 1274.88 1247.65"/>
                <polygon class="cls-10" points="1280.93 1243.62 1280.93 1486.63 1280.32 1487.12 1278.91 1488.25 1278.91 1245.09 1280.93 1243.62"/>
                <polygon class="cls-10" points="1284.96 1239.56 1284.96 1483.42 1283.57 1484.53 1282.95 1485.04 1282.95 1241.03 1284.96 1239.56"/>
                <polygon class="cls-10" points="1291.01 1235.53 1291.01 1478.62 1290.53 1479.01 1289 1480.22 1289 1236.98 1291.01 1235.53"/>
                <polygon class="cls-10" points="1295.05 1231.49 1295.05 1475.42 1293.8 1476.41 1293.03 1477.01 1293.03 1232.95 1295.05 1231.49"/>
                <polygon class="cls-10" points="1301.1 1227.42 1301.1 1470.6 1300.76 1470.88 1299.08 1472.21 1299.08 1228.89 1301.1 1227.42"/>
                <polygon class="cls-10" points="1305.13 1223.38 1305.13 1467.41 1304 1468.3 1303.12 1469 1303.12 1224.86 1305.13 1223.38"/>
                <polygon class="cls-10" points="1311.19 1219.33 1311.19 1462.59 1310.96 1462.77 1309.17 1464.2 1309.17 1220.8 1311.19 1219.33"/>
                <polygon class="cls-10" points="1315.22 1215.3 1315.22 1459.38 1313.2 1461 1313.2 1216.77 1315.22 1215.3"/>
                <polygon class="cls-10" points="1321.27 1211.24 1321.27 1454.58 1321.17 1454.66 1319.33 1456.11 1319.25 1456.17 1319.25 1212.69 1320.14 1212.05 1321.27 1211.24"/>
                <polygon class="cls-10" points="1331.36 1203.15 1331.36 1446.57 1329.54 1448.01 1329.34 1448.17 1329.34 1204.61 1331.36 1203.15"/>
                <polygon class="cls-10" points="1327.32 1207.19 1327.32 1449.76 1326.29 1450.59 1325.3 1451.37 1325.3 1208.64 1327.32 1207.19"/>
                <polygon class="cls-10" points="1337.41 1199.1 1337.41 1441.75 1336.5 1442.48 1335.39 1443.37 1335.39 1200.57 1337.41 1199.1"/>
                <polygon class="cls-10" points="1341.44 1195.06 1341.44 1438.55 1339.75 1439.9 1339.42 1440.16 1339.42 1196.52 1341.44 1195.06"/>
                <polygon class="cls-10" points="1347.49 1191.01 1347.49 1434.05 1347.05 1434.25 1346.71 1434.37 1345.48 1435.34 1345.48 1192.48 1347.49 1191.01"/>
              </g>
              <g class="cls-2">
                <polygon class="cls-10" points="1112.85 1190.18 1012.76 1272.88 1009.45 1272.88 1109.54 1190.18 1112.85 1190.18"/>
                <polygon class="cls-10" points="1121.98 1190.18 1021.9 1272.88 1018.59 1272.88 1118.68 1190.18 1121.98 1190.18"/>
                <polygon class="cls-10" points="1131.12 1190.18 1031.03 1272.88 1027.73 1272.88 1127.81 1190.18 1131.12 1190.18"/>
                <polygon class="cls-10" points="1140.26 1190.18 1040.17 1272.88 1036.86 1272.88 1136.95 1190.18 1140.26 1190.18"/>
                <polygon class="cls-10" points="1149.4 1190.18 1049.31 1272.88 1046 1272.88 1146.09 1190.18 1149.4 1190.18"/>
                <polygon class="cls-10" points="1158.51 1190.18 1058.43 1272.88 1055.12 1272.88 1155.21 1190.18 1158.51 1190.18"/>
                <polygon class="cls-10" points="1167.65 1190.18 1067.56 1272.88 1064.26 1272.88 1164.34 1190.18 1167.65 1190.18"/>
                <polygon class="cls-10" points="1176.79 1190.18 1076.7 1272.88 1073.39 1272.88 1173.48 1190.18 1176.79 1190.18"/>
                <polygon class="cls-10" points="1185.93 1190.18 1085.84 1272.88 1082.53 1272.88 1182.62 1190.18 1185.93 1190.18"/>
                <polygon class="cls-10" points="1195.06 1190.18 1094.98 1272.88 1091.65 1272.88 1191.73 1190.18 1195.06 1190.18"/>
                <polygon class="cls-10" points="1204.18 1190.18 1104.09 1272.88 1100.78 1272.88 1200.87 1190.18 1204.18 1190.18"/>
                <polygon class="cls-10" points="1213.32 1190.18 1113.23 1272.88 1109.92 1272.88 1210.01 1190.18 1213.32 1190.18"/>
                <polygon class="cls-10" points="1222.45 1190.18 1122.37 1272.88 1119.06 1272.88 1219.15 1190.18 1222.45 1190.18"/>
                <polygon class="cls-10" points="1231.59 1190.18 1131.5 1272.88 1128.2 1272.88 1228.28 1190.18 1231.59 1190.18"/>
                <polygon class="cls-10" points="1240.71 1190.18 1140.62 1272.88 1137.31 1272.88 1237.4 1190.18 1240.71 1190.18"/>
                <polygon class="cls-10" points="1249.85 1190.18 1149.76 1272.88 1146.45 1272.88 1246.54 1190.18 1249.85 1190.18"/>
                <polygon class="cls-10" points="1258.98 1190.18 1158.9 1272.88 1155.59 1272.88 1255.68 1190.18 1258.98 1190.18"/>
                <polygon class="cls-10" points="1268.12 1190.18 1168.03 1272.88 1164.73 1272.88 1264.81 1190.18 1268.12 1190.18"/>
                <polygon class="cls-10" points="1277.26 1190.18 1177.17 1272.88 1173.86 1272.88 1273.95 1190.18 1277.26 1190.18"/>
                <polygon class="cls-10" points="1286.38 1190.18 1186.29 1272.88 1182.98 1272.88 1283.07 1190.18 1286.38 1190.18"/>
                <polygon class="cls-10" points="1295.51 1190.18 1195.43 1272.88 1192.12 1272.88 1292.2 1190.18 1295.51 1190.18"/>
                <polygon class="cls-10" points="1304.65 1190.18 1204.56 1272.88 1201.25 1272.88 1301.34 1190.18 1304.65 1190.18"/>
                <polygon class="cls-10" points="1313.79 1190.18 1213.7 1272.88 1210.39 1272.88 1310.48 1190.18 1313.79 1190.18"/>
                <polygon class="cls-10" points="1322.92 1190.18 1222.84 1272.88 1219.51 1272.88 1319.6 1190.18 1322.92 1190.18"/>
                <polygon class="cls-10" points="1332.04 1190.18 1231.95 1272.88 1228.65 1272.88 1328.73 1190.18 1332.04 1190.18"/>
                <polygon class="cls-10" points="1341.18 1190.18 1241.11 1272.86 1241.09 1272.88 1237.78 1272.88 1237.8 1272.86 1337.87 1190.18 1341.18 1190.18"/>
              </g>
            </g>
            <g>
              <g>
                <g>
                  <polygon class="cls-11" points="1565.14 1255.66 1565.14 1256.12 1474.06 1328.55 1456.67 1328.56 1456.48 1328.56 1259.53 1328.69 1259.62 1328.63 1350.55 1255.66 1565.14 1255.66"/>
                  <polygon class="cls-11" points="1564.57 1470.81 1565.14 1470.63 1565.14 1470.81 1564.57 1470.81"/>
                  <polygon class="cls-24" points="1365.26 1329.26 1364.15 1327.87 1455.23 1255.42 1455.41 1255.66 1456.67 1255.66 1457.93 1255.66 1365.26 1329.26"/>
                  <path class="cls-9" d="M1564.78,1256.12l-90.73,71.89h.28v214.52l90.23-71.72.22-.17v-214.52Z"/>
                  <polygon class="cls-27" points="1474.45 1328.56 1474.05 1328.56 1259.3 1328.56 1259.3 1541.94 1474.45 1541.94 1474.45 1328.56"/>
                  <polygon class="cls-27" points="1367.76 1328.56 1366.94 1328.56 1259.3 1328.56 1259.3 1541.94 1367.76 1541.94 1367.76 1328.56"/>
                  <g>
                    <line class="cls-11" x1="1474.06" y1="1328.56" x2="1259.82" y2="1328.01"/>
                    <rect class="cls-24" x="1366.05" y="1221.17" width="1.78" height="214.24" transform="translate(35.17 2691.83) rotate(-89.85)"/>
                  </g>
                </g>
                <g>
                  <path class="cls-3" d="M1534.7,1481.86l-.14-47.06,21.68-17.05v47.05l-21.54,17.06ZM1538.13,1436.52l.11,38,14.45-11.44v-38.01l-14.56,11.45Z"/>
                  <polygon class="cls-3" points="1546.62 1441.12 1541.6 1455.9 1545.58 1453.23 1545.58 1465.83 1549.13 1463.38 1549.13 1450.38 1552.4 1447.74 1546.62 1441.12"/>
                </g>
                <polygon class="cls-14" points="1474.45 1255.66 1456.67 1255.66 1439.23 1255.42 1346.43 1328.56 1346.43 1541.94 1383.77 1541.94 1383.77 1328.67 1474.45 1255.66"/>
              </g>
              <g class="cls-2">
                <polygon class="cls-10" points="1474.45 1327.73 1474.45 1542.45 1474.45 1542.52 1474.45 1328.56 1474.06 1328.56 1474.45 1327.73"/>
                <polygon class="cls-10" points="1479.79 1324.17 1479.79 1538.2 1478.93 1538.88 1478.01 1539.63 1478.01 1325.47 1479.79 1324.17"/>
                <polygon class="cls-10" points="1483.34 1320.6 1483.34 1535.36 1481.78 1536.6 1481.56 1536.78 1481.56 1321.89 1483.34 1320.6"/>
                <polygon class="cls-10" points="1488.68 1317.04 1488.68 1531.13 1487.91 1531.73 1486.9 1532.53 1486.9 1318.32 1488.68 1317.04"/>
                <polygon class="cls-10" points="1492.23 1313.47 1492.23 1528.3 1490.79 1529.44 1490.46 1529.7 1490.46 1314.75 1492.23 1313.47"/>
                <polygon class="cls-10" points="1497.57 1309.89 1497.57 1524.05 1496.93 1524.57 1495.79 1525.47 1495.79 1311.19 1497.57 1309.89"/>
                <polygon class="cls-10" points="1501.12 1306.32 1501.12 1521.22 1499.79 1522.29 1499.35 1522.64 1499.35 1307.62 1501.12 1306.32"/>
                <polygon class="cls-10" points="1506.46 1302.76 1506.46 1516.99 1505.93 1517.42 1504.68 1518.41 1504.68 1304.06 1506.46 1302.76"/>
                <polygon class="cls-10" points="1510.01 1299.19 1510.01 1514.16 1508.79 1515.14 1508.24 1515.59 1508.24 1300.48 1510.01 1299.19"/>
                <polygon class="cls-10" points="1515.35 1295.63 1515.35 1509.93 1514.92 1510.27 1513.57 1511.34 1513.57 1296.91 1515.35 1295.63"/>
                <polygon class="cls-10" points="1518.91 1292.07 1518.91 1507.1 1517.8 1507.98 1517.13 1508.51 1517.13 1293.35 1518.91 1292.07"/>
                <polygon class="cls-10" points="1524.24 1288.48 1524.24 1502.85 1523.94 1503.1 1522.46 1504.28 1522.46 1289.78 1524.24 1288.48"/>
                <polygon class="cls-10" points="1527.8 1284.93 1527.8 1500.04 1526.8 1500.83 1526.02 1501.45 1526.02 1286.22 1527.8 1284.93"/>
                <polygon class="cls-10" points="1533.13 1281.35 1533.13 1495.79 1532.93 1495.96 1531.35 1497.22 1531.35 1282.65 1533.13 1281.35"/>
                <polygon class="cls-10" points="1536.69 1277.8 1536.69 1492.97 1534.91 1494.39 1534.91 1279.09 1536.69 1277.8"/>
                <polygon class="cls-10" points="1542.02 1274.22 1542.02 1488.74 1541.93 1488.81 1540.31 1490.09 1540.24 1490.14 1540.24 1275.5 1541.03 1274.93 1542.02 1274.22"/>
                <polygon class="cls-10" points="1550.91 1267.09 1550.91 1481.68 1549.31 1482.94 1549.13 1483.08 1549.13 1268.37 1550.91 1267.09"/>
                <polygon class="cls-10" points="1547.36 1270.65 1547.36 1484.49 1546.45 1485.22 1545.58 1485.91 1545.58 1271.93 1547.36 1270.65"/>
                <polygon class="cls-10" points="1556.25 1263.52 1556.25 1477.43 1555.45 1478.07 1554.47 1478.85 1554.47 1264.82 1556.25 1263.52"/>
                <polygon class="cls-10" points="1559.8 1259.96 1559.8 1474.6 1558.31 1475.79 1558.02 1476.02 1558.02 1261.24 1559.8 1259.96"/>
                <polygon class="cls-10" points="1565.14 1256.39 1565.14 1470.63 1564.75 1470.81 1564.44 1470.92 1563.36 1471.77 1563.36 1257.69 1565.14 1256.39"/>
              </g>
              <g class="cls-2">
                <polygon class="cls-10" points="1360.06 1255.66 1271.83 1328.56 1268.92 1328.56 1357.15 1255.66 1360.06 1255.66"/>
                <polygon class="cls-10" points="1368.12 1255.66 1279.89 1328.56 1276.97 1328.56 1365.2 1255.66 1368.12 1255.66"/>
                <polygon class="cls-10" points="1376.17 1255.66 1287.94 1328.56 1285.03 1328.56 1373.26 1255.66 1376.17 1255.66"/>
                <polygon class="cls-10" points="1384.23 1255.66 1296 1328.56 1293.08 1328.56 1381.31 1255.66 1384.23 1255.66"/>
                <polygon class="cls-10" points="1392.28 1255.66 1304.05 1328.56 1301.14 1328.56 1389.37 1255.66 1392.28 1255.66"/>
                <polygon class="cls-10" points="1400.32 1255.66 1312.09 1328.56 1309.17 1328.56 1397.41 1255.66 1400.32 1255.66"/>
                <polygon class="cls-10" points="1408.38 1255.66 1320.15 1328.56 1317.23 1328.56 1405.46 1255.66 1408.38 1255.66"/>
                <polygon class="cls-10" points="1416.43 1255.66 1328.2 1328.56 1325.28 1328.56 1413.52 1255.66 1416.43 1255.66"/>
                <polygon class="cls-10" points="1424.49 1255.66 1336.26 1328.56 1333.34 1328.56 1421.57 1255.66 1424.49 1255.66"/>
                <polygon class="cls-10" points="1432.54 1255.66 1344.31 1328.56 1341.38 1328.56 1429.61 1255.66 1432.54 1255.66"/>
                <polygon class="cls-10" points="1440.58 1255.66 1352.35 1328.56 1349.43 1328.56 1437.66 1255.66 1440.58 1255.66"/>
                <polygon class="cls-10" points="1448.63 1255.66 1360.4 1328.56 1357.49 1328.56 1445.72 1255.66 1448.63 1255.66"/>
                <polygon class="cls-10" points="1456.69 1255.66 1368.46 1328.56 1365.54 1328.56 1453.77 1255.66 1456.69 1255.66"/>
                <polygon class="cls-10" points="1464.74 1255.66 1376.51 1328.56 1373.6 1328.56 1461.83 1255.66 1464.74 1255.66"/>
                <polygon class="cls-10" points="1472.78 1255.66 1384.55 1328.56 1381.63 1328.56 1469.86 1255.66 1472.78 1255.66"/>
                <polygon class="cls-10" points="1480.84 1255.66 1392.6 1328.56 1389.69 1328.56 1477.92 1255.66 1480.84 1255.66"/>
                <polygon class="cls-10" points="1488.89 1255.66 1400.66 1328.56 1397.74 1328.56 1485.97 1255.66 1488.89 1255.66"/>
                <polygon class="cls-10" points="1496.95 1255.66 1408.71 1328.56 1405.8 1328.56 1494.03 1255.66 1496.95 1255.66"/>
                <polygon class="cls-10" points="1505 1255.66 1416.77 1328.56 1413.85 1328.56 1502.08 1255.66 1505 1255.66"/>
                <polygon class="cls-10" points="1513.04 1255.66 1424.81 1328.56 1421.89 1328.56 1510.12 1255.66 1513.04 1255.66"/>
                <polygon class="cls-10" points="1521.09 1255.66 1432.86 1328.56 1429.95 1328.56 1518.18 1255.66 1521.09 1255.66"/>
                <polygon class="cls-10" points="1529.15 1255.66 1440.92 1328.56 1438 1328.56 1526.23 1255.66 1529.15 1255.66"/>
                <polygon class="cls-10" points="1537.2 1255.66 1448.97 1328.56 1446.06 1328.56 1534.29 1255.66 1537.2 1255.66"/>
                <polygon class="cls-10" points="1545.26 1255.66 1457.03 1328.56 1454.09 1328.56 1542.32 1255.66 1545.26 1255.66"/>
                <polygon class="cls-10" points="1553.29 1255.66 1465.06 1328.56 1462.15 1328.56 1550.38 1255.66 1553.29 1255.66"/>
                <polygon class="cls-10" points="1561.35 1255.66 1473.14 1328.54 1473.12 1328.56 1470.2 1328.56 1470.22 1328.54 1558.43 1255.66 1561.35 1255.66"/>
              </g>
              <g class="cls-2">
                <rect class="cls-10" x="1264.37" y="1328.56" width="2.92" height="213.38"/>
                <rect class="cls-10" x="1272.43" y="1328.56" width="2.92" height="213.38"/>
                <rect class="cls-10" x="1280.48" y="1328.56" width="2.92" height="213.38"/>
                <rect class="cls-10" x="1288.53" y="1328.56" width="2.92" height="213.38"/>
                <rect class="cls-10" x="1296.58" y="1328.56" width="2.92" height="213.38"/>
                <rect class="cls-10" x="1304.63" y="1328.56" width="2.92" height="213.38"/>
                <rect class="cls-10" x="1312.68" y="1328.56" width="2.92" height="213.38"/>
                <rect class="cls-10" x="1320.73" y="1328.56" width="2.92" height="213.38"/>
                <rect class="cls-10" x="1328.78" y="1328.56" width="2.92" height="213.38"/>
                <rect class="cls-10" x="1336.83" y="1328.56" width="2.92" height="213.38"/>
                <rect class="cls-10" x="1344.89" y="1328.56" width="2.92" height="213.38"/>
                <rect class="cls-10" x="1352.94" y="1328.56" width="2.92" height="213.38"/>
                <rect class="cls-10" x="1360.99" y="1328.56" width="2.92" height="213.38"/>
                <rect class="cls-10" x="1369.04" y="1328.56" width="2.92" height="213.38"/>
                <rect class="cls-10" x="1377.09" y="1328.56" width="2.92" height="213.38"/>
                <rect class="cls-10" x="1385.14" y="1328.56" width="2.92" height="213.38"/>
                <rect class="cls-10" x="1393.19" y="1328.56" width="2.92" height="213.38"/>
                <rect class="cls-10" x="1401.24" y="1328.56" width="2.92" height="213.38"/>
                <rect class="cls-10" x="1409.3" y="1328.56" width="2.92" height="213.38"/>
                <rect class="cls-10" x="1417.35" y="1328.56" width="2.92" height="213.38"/>
                <rect class="cls-10" x="1425.4" y="1328.56" width="2.92" height="213.38"/>
                <rect class="cls-10" x="1433.45" y="1328.56" width="2.92" height="213.38"/>
                <rect class="cls-10" x="1441.5" y="1328.56" width="2.92" height="213.38"/>
                <rect class="cls-10" x="1449.55" y="1328.56" width="2.92" height="213.38"/>
                <rect class="cls-10" x="1457.6" y="1328.56" width="2.92" height="213.38"/>
                <rect class="cls-10" x="1465.65" y="1328.56" width="2.92" height="213.38"/>
              </g>
            </g>
          </g>
          <rect x="1901.8" y="616.4" width="29.66" height="148.47"/>
          <rect x="975.45" y="616.4" width="29.66" height="148.47"/>
          <g>
            <path d="M1705.47,995.76h1.16v56.99c0,.32-.26.58-.58.58h0c-.32,0-.58-.26-.58-.58v-56.99h0Z"/>
            <path d="M1743.96,995.76h1.16v56.99c0,.32-.26.58-.58.58h0c-.32,0-.58-.26-.58-.58v-56.99h0Z"/>
          </g>
        </g>
      </g>
    </g>
  </g>
</svg>