<?xml version="1.0" encoding="UTF-8"?>
<svg id="Layer_2" xmlns="http://www.w3.org/2000/svg" viewBox="0 0 555.96 80">
  <defs>
    <style>
      .cls-1 {
        fill: #231f20;
      }

      .cls-2 {
        fill: #fbad1b;
      }

      .cls-3 {
        fill: #8ccfec;
      }
    </style>
  </defs>
  <g id="Layer_1-2" data-name="Layer_1">
    <g>
      <rect class="cls-2" width="555.96" height="80"/>
      <polygon class="cls-3" points="470.38 0 430.13 80 555.96 80 555.96 0 470.38 0"/>
      <g>
        <path class="cls-1" d="M78.6,28.3v-6.5c0-.9-.2-1.55-.61-1.95s-1.05-.6-1.95-.6h-3.75v-1.31h3.83c1.35,0,2.38.33,3.07.98s1.04,1.63,1.04,2.92v6.45h-1.63ZM72.31,28.3v-3.53c0-.6.05-1.06.15-1.38s.2-.59.31-.81h1.34c-.07.26-.12.56-.16.88s-.05.73-.05,1.2v3.64h-1.58Z"/>
        <path class="cls-1" d="M84.37,28.3l-1.41-8.97-.73-.12v-1.26h5.03v1.31h-2.68l1.47,9.04h-1.68Z"/>
        <path class="cls-1" d="M98.27,28.49c-.86,0-1.62-.2-2.28-.59s-1.17-.95-1.53-1.67-.56-1.55-.57-2.5v-1.05c0-.46.06-.91.19-1.35s.3-.84.52-1.2.47-.63.76-.81c.02-.01.04-.02.06-.04s.04-.02.07-.03v-.03c-.23.02-.51.08-.86.17s-.68.18-1.01.26l-.32-1.23c.46-.13.96-.25,1.5-.36s1.09-.18,1.65-.24,1.07-.08,1.55-.08c.97,0,1.8.19,2.49.57s1.22.92,1.6,1.63.56,1.56.56,2.55v1.24c0,.95-.18,1.78-.54,2.5s-.87,1.27-1.53,1.67-1.42.59-2.3.59ZM98.27,27.11c.55,0,1.03-.14,1.45-.42s.74-.67.97-1.18.35-1.09.35-1.77v-1.23c0-.7-.12-1.31-.35-1.81s-.56-.9-.99-1.17-.93-.41-1.52-.41c-.53,0-.99.14-1.38.42s-.69.68-.91,1.2-.34,1.14-.36,1.86v1.15c0,.67.11,1.26.34,1.77s.55.9.96,1.18.89.42,1.44.42Z"/>
        <path class="cls-1" d="M109.73,28.3v-7.22c0-.56-.17-1.01-.5-1.33s-.78-.49-1.36-.49h-3.48v-1.31h3.53c1.07,0,1.91.29,2.52.86s.91,1.37.91,2.4v7.1h-1.63Z"/>
        <path class="cls-1" d="M114.78,28.3v-9.04h-1.2v-1.31h2.84v10.35h-1.63Z"/>
        <path class="cls-1" d="M123.08,28.3v-1.28c.87-.03,1.57-.3,2.1-.82s.8-1.23.8-2.14v-4.81h-6.39v-1.31h8.02v6.08c0,.87-.19,1.63-.56,2.26s-.9,1.12-1.58,1.46-1.47.53-2.38.55ZM119.78,31.95v-7.54c0-.59.05-1.05.15-1.36s.2-.59.31-.81h1.34c-.08.26-.13.56-.16.88s-.05.72-.05,1.2v7.64h-1.58Z"/>
        <path class="cls-1" d="M129.73,28.3v-1.32h5.62l1.63-.06,1.26.13v1.25h-8.51ZM135.36,27.93v-6.13c0-.9-.2-1.55-.6-1.95s-1.05-.6-1.96-.6h-2.5v-1.31h2.59c1.35,0,2.37.33,3.06.98s1.04,1.63,1.04,2.92v6.08h-1.63Z"/>
        <path class="cls-1" d="M145.23,28.3v-9.04h-1.2v-1.31h2.84v10.35h-1.63Z"/>
        <path class="cls-1" d="M150.84,23.72v-4.46h-1.9v-1.31h3.53v5.77h-1.63Z"/>
        <path class="cls-1" d="M154.62,19.25v-4.46h1.63v3.15h5.62v1.31h-7.25ZM162.48,18.97l-3.8,9.33h-1.75l4.3-10.35h1.25v1.03Z"/>
        <path class="cls-1" d="M167.35,28.52c-.54,0-1.12-.06-1.74-.17s-1.27-.3-1.95-.56l.4-1.21c.59.23,1.14.4,1.65.51s.99.17,1.43.18c.96,0,1.72-.26,2.31-.78s.87-1.28.87-2.27v-6.27h1.63v6.21c0,.95-.19,1.75-.58,2.4s-.93,1.14-1.62,1.47-1.49.5-2.4.5ZM164.23,17.94h1.63l1.68,7.64c.09.44.2.81.32,1.12s.28.59.48.84l-1.28-.03c-.25-.25-.47-.54-.67-.86s-.35-.71-.45-1.16l-1.71-7.55Z"/>
        <path class="cls-1" d="M180.09,28.3v-9.04h-1.2v-1.31h2.84v10.35h-1.63Z"/>
        <path class="cls-1" d="M186.96,28.45c-.44,0-.9-.04-1.39-.12s-1-.19-1.53-.35l.26-1.22c.97.26,1.82.39,2.55.38.96-.02,1.69-.26,2.19-.74s.75-1.15.75-2.03v-5.12h-5.39v-1.31h7.01v6.07c0,1-.18,1.83-.54,2.49s-.88,1.14-1.54,1.46-1.45.48-2.36.48Z"/>
        <path class="cls-1" d="M194.5,28.3l.79-6.58c.06-.49.2-.94.41-1.36s.46-.75.75-.98c.03-.02.06-.05.09-.07s.06-.04.08-.06l-.02-.03c-.26.04-.58.11-.98.22s-.76.21-1.09.33l-.38-1.23c.45-.16.94-.3,1.47-.41s1.07-.21,1.61-.28,1.05-.1,1.53-.1c1.39,0,2.46.37,3.19,1.11s1.11,1.83,1.11,3.27v6.17h-4.26v-1.31h2.64v-5.04c0-.93-.21-1.63-.63-2.1s-1.02-.72-1.81-.72c-.57,0-1.04.22-1.42.65s-.62,1.03-.7,1.78l-.78,6.74h-1.61Z"/>
        <path class="cls-1" d="M210.29,28.49c-.86,0-1.62-.2-2.28-.59s-1.17-.95-1.53-1.67-.56-1.55-.57-2.5v-1.05c0-.46.06-.91.19-1.35s.3-.84.52-1.2.47-.63.76-.81c.02-.01.04-.02.06-.04s.04-.02.07-.03v-.03c-.23.02-.51.08-.86.17s-.68.18-1.01.26l-.32-1.23c.46-.13.96-.25,1.5-.36s1.09-.18,1.65-.24,1.07-.08,1.55-.08c.97,0,1.8.19,2.49.57s1.22.92,1.6,1.63.56,1.56.56,2.55v1.24c0,.95-.18,1.78-.54,2.5s-.87,1.27-1.53,1.67-1.42.59-2.3.59ZM210.29,27.11c.55,0,1.03-.14,1.45-.42s.74-.67.97-1.18.35-1.09.35-1.77v-1.23c0-.7-.12-1.31-.35-1.81s-.56-.9-.99-1.17-.93-.41-1.52-.41c-.53,0-.99.14-1.38.42s-.69.68-.91,1.2-.34,1.14-.36,1.86v1.15c0,.67.11,1.26.34,1.77s.55.9.96,1.18.89.42,1.44.42Z"/>
        <path class="cls-1" d="M217.97,28.3v-9.04h-1.2v-1.31h2.84v10.35h-1.63Z"/>
        <path class="cls-1" d="M227.01,17.94c1.37,0,2.4.33,3.07.98s1.02,1.65,1.02,2.98v6.39h-1.63v-6.49c0-.9-.2-1.55-.58-1.95s-1-.61-1.86-.61h-1.47c-.19.32-.35.72-.46,1.22s-.17,1-.17,1.52v3.49c0,.96-.23,1.68-.68,2.17s-1.11.73-1.96.73c-.18,0-.34,0-.51-.02s-.33-.03-.51-.06v-1.31c.11.01.21.02.31.03s.2,0,.29,0c.52,0,.89-.13,1.12-.4s.34-.68.34-1.25v-3.27c0-.52.07-1.05.21-1.58s.33-.96.58-1.28h-1.94v-1.31h4.83Z"/>
        <path class="cls-1" d="M238.48,28.3v-10.35h8.26v10.35h-8.26ZM240.11,26.98h5.01v-7.73h-5.01v7.73Z"/>
        <path class="cls-1" d="M254.15,17.94c1.37,0,2.4.33,3.07.98s1.02,1.65,1.02,2.98v6.39h-1.63v-6.49c0-.9-.2-1.55-.58-1.95s-1-.61-1.86-.61h-1.47c-.19.32-.35.72-.46,1.22s-.17,1-.17,1.52v3.49c0,.96-.23,1.68-.68,2.17s-1.11.73-1.96.73c-.18,0-.34,0-.51-.02s-.33-.03-.51-.06v-1.31c.11.01.21.02.31.03s.2,0,.29,0c.52,0,.89-.13,1.12-.4s.34-.68.34-1.25v-3.27c0-.52.07-1.05.21-1.58s.33-.96.58-1.28h-1.94v-1.31h4.83Z"/>
        <path class="cls-1" d="M268.42,28.3l-7.51-10.35h1.83l7.5,10.35h-1.82ZM261.28,28.3v-3.75c0-.97.18-1.75.54-2.34s.91-1.03,1.67-1.3l.64.84c-.84.38-1.27,1.12-1.27,2.21v4.34h-1.58ZM270.28,17.94l-3.57,6.25-1.08-1.26,2.81-4.99h1.84Z"/>
        <path class="cls-1" d="M274.3,17.94v8.52c.56.23,1.15.42,1.77.56s1.22.21,1.78.21c.83,0,1.57-.12,2.23-.36s1.19-.6,1.58-1.09.58-1.11.58-1.86v-5.98h1.58v6.13c0,.76-.16,1.41-.47,1.97s-.74,1.03-1.28,1.4-1.17.65-1.88.83-1.46.27-2.27.27c-.84,0-1.72-.1-2.62-.3s-1.77-.5-2.59-.89v-9.4h1.58ZM276.78,25.44c.22-.23.39-.55.5-.95s.16-.87.16-1.39v-5.15h1.59v4.86c0,.59-.07,1.11-.22,1.56s-.37.82-.68,1.13l-1.35-.05Z"/>
        <path class="cls-1" d="M297.49,28.3v-6.5c0-.9-.2-1.55-.61-1.95s-1.05-.6-1.95-.6h-3.75v-1.31h3.83c1.35,0,2.38.33,3.07.98.69.65,1.04,1.63,1.04,2.92v6.45h-1.63ZM291.2,28.3v-3.53c0-.6.05-1.06.15-1.38s.2-.59.31-.81h1.34c-.07.26-.12.56-.16.88s-.05.73-.05,1.2v3.64h-1.58Z"/>
        <path class="cls-1" d="M301.19,19.25v-4.46h1.63v3.15h5.62v1.31h-7.25ZM309.06,18.97l-3.8,9.33h-1.75l4.3-10.35h1.25v1.03Z"/>
        <path class="cls-1" d="M313.93,28.52c-.54,0-1.12-.06-1.74-.17s-1.27-.3-1.95-.56l.4-1.21c.59.23,1.14.4,1.65.51s.99.17,1.43.18c.96,0,1.72-.26,2.31-.78.58-.52.87-1.28.87-2.27v-6.27h1.63v6.21c0,.95-.2,1.75-.58,2.4-.39.65-.93,1.14-1.62,1.47s-1.49.5-2.4.5ZM310.81,17.94h1.63l1.68,7.64c.09.44.2.81.32,1.12s.28.59.48.84l-1.28-.03c-.25-.25-.47-.54-.67-.86s-.35-.71-.45-1.16l-1.71-7.55Z"/>
        <path class="cls-1" d="M325.25,28.47c-.5,0-1.04-.05-1.64-.15s-1.17-.25-1.74-.44l.32-1.22c.54.16,1.07.28,1.6.36.53.08.99.11,1.39.11.96-.01,1.7-.25,2.22-.73s.78-1.15.78-2.04v-5.12h-4.15c-.19.32-.34.73-.45,1.23-.11.5-.17.99-.17,1.48v.79c.13.06.31.1.53.12s.5.04.84.04v1.41c-.49,0-.9-.02-1.24-.05s-.64-.1-.91-.18-.54-.21-.81-.35l-.04-1.34c0-.59.07-1.17.22-1.74.15-.57.35-1.03.61-1.4h-1.26v-1.31h8.45v6.12c0,1-.2,1.83-.59,2.48s-.93,1.14-1.62,1.46-1.47.48-2.36.47Z"/>
        <path class="cls-1" d="M339.02,28.3v-6.5c0-.9-.2-1.55-.61-1.95s-1.05-.6-1.95-.6h-3.75v-1.31h3.83c1.35,0,2.38.33,3.07.98.69.65,1.04,1.63,1.04,2.92v6.45h-1.63ZM332.73,28.3v-3.53c0-.6.05-1.06.15-1.38s.2-.59.31-.81h1.34c-.07.26-.12.56-.16.88s-.05.73-.05,1.2v3.64h-1.58Z"/>
        <path class="cls-1" d="M348.43,31.95v-12.7h-1.22v-1.31h2.83v14.01h-1.61Z"/>
        <path class="cls-1" d="M353.71,28.3v-9.04h-1.2v-1.31h2.84v10.35h-1.63Z"/>
        <path class="cls-1" d="M359.32,23.72v-4.46h-1.9v-1.31h3.53v5.77h-1.63Z"/>
        <path class="cls-1" d="M365.54,17.94v8.52c.56.23,1.15.42,1.77.56s1.22.21,1.78.21c.83,0,1.57-.12,2.23-.36s1.19-.6,1.58-1.09.58-1.11.58-1.86v-5.98h1.58v6.13c0,.76-.16,1.41-.47,1.97s-.74,1.03-1.28,1.4-1.17.65-1.88.83-1.46.27-2.27.27c-.84,0-1.72-.1-2.62-.3s-1.77-.5-2.59-.89v-9.4h1.58ZM368.03,25.44c.22-.23.39-.55.5-.95s.16-.87.16-1.39v-5.15h1.59v4.86c0,.59-.07,1.11-.21,1.56-.14.45-.37.82-.68,1.13l-1.35-.05Z"/>
        <path class="cls-1" d="M379.04,23.72v-4.46h-1.9v-1.31h3.53v5.77h-1.63Z"/>
        <path class="cls-1" d="M387.96,28.3v-7.22c0-.56-.17-1.01-.5-1.33s-.78-.49-1.36-.49h-3.48v-1.31h3.53c1.07,0,1.91.29,2.52.86.61.57.91,1.37.91,2.4v7.1h-1.63Z"/>
        <path class="cls-1" d="M115.27,57.19c-.32,0-.56-.09-.72-.26s-.24-.39-.24-.65.08-.48.24-.66.4-.27.72-.27.56.09.73.27.25.4.25.66-.08.47-.25.65-.41.26-.73.26ZM114.49,53.49l-.12-9.18h1.72l-.12,9.18h-1.48Z"/>
        <path class="cls-1" d="M118.08,46.74h8.29v1.31h-1.73v9.04h-1.63v-9.04h-4.92v-1.31Z"/>
        <path class="cls-1" d="M127.46,57.1v-1.32h5.62l1.63-.06,1.26.13v1.25h-8.51ZM133.09,56.73v-6.13c0-.9-.2-1.55-.6-1.95s-1.05-.6-1.96-.6h-2.5v-1.31h2.59c1.35,0,2.37.33,3.06.98s1.04,1.63,1.04,2.92v6.08h-1.63Z"/>
        <path class="cls-1" d="M137.14,48.05v-4.46h1.63v3.15h5.62v1.31h-7.25ZM145.01,47.77l-3.8,9.33h-1.75l4.3-10.35h1.25v1.03Z"/>
        <path class="cls-1" d="M146.19,57.1v-1.32h5.62l1.63-.06,1.26.13v1.25h-8.51ZM151.82,56.73v-6.13c0-.9-.2-1.55-.6-1.95s-1.05-.6-1.96-.6h-2.5v-1.31h2.59c1.35,0,2.37.33,3.06.98s1.04,1.63,1.04,2.92v6.08h-1.63Z"/>
        <path class="cls-1" d="M160.33,43.07h11.99v2.75h-2.45v11.27h-3.53v-11.27h-6.01v-2.75Z"/>
        <path class="cls-1" d="M181.01,51.17h-6.6v-2.75h6.6v2.75Z"/>
        <path class="cls-1" d="M183.46,57.25c-.14,0-.29,0-.44-.02s-.29-.03-.43-.05v-3.18c.19.02.37.04.55.06s.35.02.52.02c.61,0,1.14-.11,1.61-.3s.85-.47,1.18-.84.58-.8.77-1.31v-5.81h-3.08v-2.75h6.55v7.11c0,.77.08,1.52.23,2.25l.94,4.66h-3.25l-.84-3.57h-.07c-.12.7-.37,1.32-.77,1.89s-.89,1.01-1.48,1.34-1.25.5-1.98.5Z"/>
        <path class="cls-1" d="M199.94,57.25c-.14,0-.29,0-.44-.02s-.29-.03-.43-.05v-3.18c.19.02.37.04.55.06s.35.02.52.02c.61,0,1.14-.11,1.61-.3s.85-.47,1.18-.84.58-.8.77-1.31v-5.81h-3.08v-2.75h6.55v7.11c0,.77.08,1.52.23,2.25l.94,4.66h-3.25l-.84-3.57h-.07c-.12.7-.37,1.32-.77,1.89s-.89,1.01-1.48,1.34-1.25.5-1.98.5Z"/>
        <path class="cls-1" d="M211.61,57.1v-11.27h-1.28v-2.75h4.8v14.03h-3.53Z"/>
        <path class="cls-1" d="M225.03,57.38c-1.22,0-2.3-.27-3.23-.82s-1.67-1.31-2.2-2.3-.8-2.13-.83-3.45v-.91c0-.48.05-.97.19-1.48s.31-.98.53-1.41.45-.78.7-1.04l.09-.09s.06-.05.09-.08v-.06c-.25.04-.55.11-.93.2s-.7.18-.96.25l-.67-2.57c.63-.18,1.33-.34,2.1-.48s1.55-.25,2.36-.32,1.56-.11,2.28-.11c1.44,0,2.66.26,3.66.77s1.77,1.26,2.29,2.26.79,2.21.79,3.67v1.41c0,1.31-.26,2.46-.78,3.45s-1.25,1.75-2.19,2.3-2.04.82-3.29.82ZM225.03,54.46c.55,0,1.03-.15,1.44-.46s.73-.73.96-1.27.34-1.18.34-1.9v-1.36c0-.84-.11-1.54-.32-2.11s-.53-1-.94-1.3-.91-.45-1.51-.45c-.56,0-1.04.16-1.45.47s-.71.77-.92,1.37-.32,1.34-.33,2.2v1.17c0,.73.11,1.36.34,1.9s.54.97.96,1.27.89.46,1.44.46Z"/>
        <path class="cls-1" d="M234.42,57.1l.91-7.99c.08-.63.24-1.23.49-1.8s.53-1.02.86-1.35c.03-.02.06-.05.09-.08s.05-.04.07-.05v-.06c-.31.05-.69.13-1.13.26s-.81.25-1.12.36l-.75-2.55c.6-.22,1.28-.41,2.02-.58s1.51-.3,2.3-.39,1.54-.14,2.26-.14c2.11,0,3.71.54,4.81,1.62s1.65,2.67,1.66,4.76v7.99h-6.11v-2.75h2.57v-5.7c0-.97-.2-1.72-.59-2.24s-.96-.79-1.68-.79c-.67,0-1.2.26-1.59.79s-.63,1.28-.72,2.26l-.87,8.44h-3.48Z"/>
        <path class="cls-1" d="M254.54,57.1v-10.35h8.26v10.35h-8.26ZM256.17,55.78h5.01v-7.73h-5.01v7.73Z"/>
        <path class="cls-1" d="M266.77,52.52v-4.46h-1.9v-1.31h3.53v5.77h-1.63Z"/>
        <path class="cls-1" d="M272.03,57.27c-.3,0-.59-.02-.86-.05s-.54-.08-.82-.14l.04-1.27c.38.08.81.11,1.28.11s.83-.14,1.08-.41.36-.7.36-1.28v-6.18h-2.03v-1.31h3.67v7.62c0,.96-.24,1.68-.71,2.17s-1.14.74-2.02.74Z"/>
        <path class="cls-1" d="M282.21,57.1v-7.22c0-.56-.17-1.01-.5-1.33s-.78-.49-1.36-.49h-3.48v-1.31h3.53c1.07,0,1.91.29,2.52.86s.91,1.37.91,2.4v7.1h-1.63Z"/>
        <path class="cls-1" d="M287.26,57.1v-9.04h-1.2v-1.31h2.84v10.35h-1.63Z"/>
        <path class="cls-1" d="M291.08,57.17c-.06,0-.13,0-.21,0-.07,0-.14-.01-.21-.02v-1.5c.09.01.18.02.26.03s.17,0,.25,0c.59-.02,1.09-.15,1.51-.38s.76-.55,1.02-.95.44-.84.53-1.32v-4.97h-2.34v-1.31h3.95v5.34c0,.54.06,1.07.17,1.58l.72,3.43h-1.54l-.61-2.9h-.06c-.07.52-.27,1.01-.58,1.46-.32.45-.73.82-1.22,1.09s-1.04.42-1.65.42Z"/>
        <path class="cls-1" d="M301.67,57.32c-.54,0-1.12-.06-1.74-.17s-1.27-.3-1.95-.56l.4-1.21c.59.23,1.14.4,1.65.51s.99.17,1.43.18c.96,0,1.72-.26,2.31-.78.58-.52.87-1.28.87-2.27v-6.27h1.63v6.21c0,.95-.2,1.75-.58,2.4-.39.65-.93,1.14-1.62,1.47s-1.49.5-2.4.5ZM298.55,46.74h1.63l1.68,7.64c.09.44.2.81.32,1.12s.28.59.48.84l-1.28-.03c-.25-.25-.47-.54-.67-.86s-.35-.71-.45-1.16l-1.71-7.55Z"/>
        <path class="cls-1" d="M308.59,48.05v-4.46h1.63v3.15h5.62v1.31h-7.25ZM316.46,47.77l-3.8,9.33h-1.75l4.3-10.35h1.25v1.03Z"/>
        <path class="cls-1" d="M330.42,57.1l-7.51-10.35h1.83l7.5,10.35h-1.82ZM323.28,57.1v-3.75c0-.97.18-1.75.54-2.34s.91-1.03,1.67-1.3l.64.84c-.84.38-1.27,1.12-1.27,2.21v4.34h-1.58ZM332.28,46.74l-3.57,6.25-1.08-1.26,2.81-4.99h1.84Z"/>
        <path class="cls-1" d="M335.21,57.1v-9.04h-1.2v-1.31h2.84v10.35h-1.63Z"/>
        <path class="cls-1" d="M346.04,57.1v-6.5c0-.9-.2-1.55-.61-1.95s-1.05-.6-1.95-.6h-3.75v-1.31h3.83c1.35,0,2.38.33,3.07.98.69.65,1.04,1.63,1.04,2.92v6.45h-1.63ZM339.75,57.1v-3.53c0-.6.05-1.06.15-1.38s.2-.59.31-.81h1.34c-.07.26-.12.56-.16.88s-.05.73-.05,1.2v3.64h-1.58Z"/>
      </g>
      <path class="cls-1" d="M507.7,54.42c0-2.71,1.94-4.7,4.46-4.7s4.46,1.99,4.46,4.7-1.94,4.66-4.46,4.66-4.46-1.99-4.46-4.66ZM508.9,24.97l-.22-6.82h6.96l-.22,6.82-.96,20.47h-4.61l-.96-20.47Z"/>
    </g>
  </g>
</svg>