<?xml version="1.0" encoding="UTF-8"?>
<svg id="Layer_2" data-name="Layer 2" xmlns="http://www.w3.org/2000/svg" xmlns:xlink="http://www.w3.org/1999/xlink" viewBox="640 330 2375.76 1440.39">
  <defs>
    <style>
      .cls-1 {
        fill: url(#linear-gradient-15);
      }

      .cls-2 {
        fill: url(#linear-gradient-13);
      }

      .cls-3 {
        fill: url(#linear-gradient-2);
      }

      .cls-4 {
        fill: url(#linear-gradient-10);
      }

      .cls-5 {
        fill: url(#linear-gradient-12);
      }

      .cls-6 {
        fill: #0d0d0d;
      }

      .cls-7, .cls-8, .cls-9 {
        fill: none;
      }

      .cls-10 {
        fill: url(#linear-gradient-4);
      }

      .cls-11 {
        fill: url(#radial-gradient);
      }

      .cls-12 {
        fill: url(#radial-gradient-3);
      }

      .cls-13 {
        fill: url(#linear-gradient-3);
      }

      .cls-14 {
        fill: url(#linear-gradient-5);
      }

      .cls-15 {
        fill: url(#linear-gradient-22);
      }

      .cls-16 {
        fill: #2b2928;
      }

      .cls-17 {
        fill: url(#linear-gradient-8);
      }

      .cls-18 {
        fill: url(#radial-gradient-2);
      }

      .cls-19 {
        fill: #fdbe13;
      }

      .cls-20 {
        fill: url(#linear-gradient-14);
      }

      .cls-21 {
        fill: url(#linear-gradient-20);
      }

      .cls-22 {
        fill: url(#radial-gradient-4);
      }

      .cls-23 {
        fill: url(#linear-gradient-17);
      }

      .cls-24 {
        fill: url(#linear-gradient-7);
      }

      .cls-25 {
        fill: url(#linear-gradient-9);
      }

      .cls-26 {
        fill: url(#linear-gradient-11);
      }

      .cls-8 {
        stroke-width: 4px;
      }

      .cls-8, .cls-9 {
        stroke: #000;
        stroke-miterlimit: 10;
      }

      .cls-27 {
        fill: url(#linear-gradient-19);
      }

      .cls-28 {
        fill: url(#linear-gradient-6);
      }

      .cls-29 {
        fill: url(#linear-gradient-21);
      }

      .cls-9 {
        stroke-width: 3px;
      }

      .cls-30 {
        fill: url(#linear-gradient-16);
      }

      .cls-31 {
        fill: url(#linear-gradient);
      }

      .cls-32 {
        fill: url(#linear-gradient-23);
      }

      .cls-33 {
        clip-path: url(#clippath);
      }

      .cls-34 {
        fill: url(#linear-gradient-18);
      }

      .cls-35 {
        fill: #171717;
      }
    </style>
    <clipPath id="clippath">
      <path class="cls-7" d="M732.64,329.15h2198.39c49.74,0,90.12,40.38,90.12,90.12v1183.78c0,49.43-40.13,89.56-89.56,89.56H733.49c-50.21,0-90.97-40.76-90.97-90.97V419.27c0-49.74,40.38-90.12,90.12-90.12Z"/>
    </clipPath>
    <linearGradient id="linear-gradient" x1="1831.84" y1="329.15" x2="1831.84" y2="1527.66" gradientUnits="userSpaceOnUse">
      <stop offset="0" stop-color="#b3daf4"/>
      <stop offset=".42" stop-color="#d8ecf9"/>
      <stop offset=".78" stop-color="#f0f8fd"/>
      <stop offset="1" stop-color="#fafdff"/>
    </linearGradient>
    <linearGradient id="linear-gradient-2" x1="1122.68" y1="380.35" x2="1122.68" y2="529.69" gradientUnits="userSpaceOnUse">
      <stop offset="0" stop-color="#fec010"/>
      <stop offset=".46" stop-color="#fdbd10"/>
      <stop offset=".73" stop-color="#fcb513"/>
      <stop offset=".95" stop-color="#faa718"/>
      <stop offset="1" stop-color="#faa31a"/>
    </linearGradient>
    <linearGradient id="linear-gradient-3" x1="825.92" y1="1012.38" x2="676.84" y2="1012.38" xlink:href="#linear-gradient-2"/>
    <linearGradient id="linear-gradient-4" x1="3550.08" y1="-353.21" x2="3550.08" y2="-204.13" gradientTransform="translate(651.55 -2791.25) rotate(90)" xlink:href="#linear-gradient-2"/>
    <linearGradient id="linear-gradient-5" x1="832.29" y1="548.6" x2="671.19" y2="548.6" gradientUnits="userSpaceOnUse">
      <stop offset="0" stop-color="#fec010"/>
      <stop offset="1" stop-color="#faa31a"/>
    </linearGradient>
    <linearGradient id="linear-gradient-6" x1="831.2" y1="980.36" x2="670.1" y2="980.36" xlink:href="#linear-gradient-5"/>
    <radialGradient id="radial-gradient" cx="1427.83" cy="1382.21" fx="1427.83" fy="1382.21" r="51.03" gradientTransform="translate(1.96)" gradientUnits="userSpaceOnUse">
      <stop offset=".27" stop-color="#2d2d2d"/>
      <stop offset="1" stop-color="#414042"/>
    </radialGradient>
    <radialGradient id="radial-gradient-2" cx="1439.44" cy="1394.31" fx="1439.44" fy="1394.31" r="21.94" gradientTransform="translate(1.96)" gradientUnits="userSpaceOnUse">
      <stop offset=".03" stop-color="#2d2d2d"/>
      <stop offset="1" stop-color="#58595b"/>
    </radialGradient>
    <linearGradient id="linear-gradient-7" x1="1364.68" y1="1274.62" x2="1396.02" y2="1274.62" xlink:href="#linear-gradient-2"/>
    <linearGradient id="linear-gradient-8" x1="1462.77" y1="1274.62" x2="1494.11" y2="1274.62" xlink:href="#linear-gradient-2"/>
    <linearGradient id="linear-gradient-9" x1="1429.4" y1="1231.99" x2="1429.4" y2="1265.42" gradientUnits="userSpaceOnUse">
      <stop offset="0" stop-color="#414042"/>
      <stop offset=".07" stop-color="#57575a"/>
      <stop offset=".14" stop-color="#6d6e71"/>
      <stop offset=".38" stop-color="#a5a7a9"/>
      <stop offset=".5" stop-color="#bcbec0"/>
      <stop offset=".59" stop-color="#a8a9ac"/>
      <stop offset=".79" stop-color="#7d7e81"/>
      <stop offset=".89" stop-color="#6d6e71"/>
      <stop offset="1" stop-color="#414042"/>
    </linearGradient>
    <radialGradient id="radial-gradient-3" cx="1345.74" cy="1298.02" fx="1327.8" fy="1298.02" r="33.52" gradientTransform="translate(151.7) scale(.95 1)" gradientUnits="userSpaceOnUse">
      <stop offset=".03" stop-color="#e6e7e8"/>
      <stop offset="1" stop-color="#808285"/>
    </radialGradient>
    <radialGradient id="radial-gradient-4" cx="1338.69" cy="1319.98" fx="1338.69" fy="1319.98" r="39.9" gradientTransform="translate(151.7) scale(.95 1)" gradientUnits="userSpaceOnUse">
      <stop offset=".03" stop-color="#e6e7e8"/>
      <stop offset="1" stop-color="#808285"/>
    </radialGradient>
    <linearGradient id="linear-gradient-10" x1="1429.38" y1="1281.37" x2="1429.38" y2="1323.78" gradientUnits="userSpaceOnUse">
      <stop offset="0" stop-color="#fed700"/>
      <stop offset=".4" stop-color="#fdd401"/>
      <stop offset=".64" stop-color="#fccc06"/>
      <stop offset=".83" stop-color="#fbbe0e"/>
      <stop offset="1" stop-color="#f9aa1a"/>
      <stop offset="1" stop-color="#f9aa1b"/>
    </linearGradient>
    <linearGradient id="linear-gradient-11" x1="840.41" y1="1505.23" x2="662.59" y2="1505.23" xlink:href="#linear-gradient-5"/>
    <linearGradient id="linear-gradient-12" x1="831.93" y1="1017.64" x2="670.83" y2="1017.64" gradientUnits="userSpaceOnUse">
      <stop offset="0" stop-color="#a7a9ac"/>
      <stop offset="1" stop-color="#808285"/>
    </linearGradient>
    <linearGradient id="linear-gradient-13" x1="-728.6" y1="-1720.92" x2="-881.46" y2="-1720.92" gradientTransform="translate(1665.02 2175.93)" xlink:href="#linear-gradient-5"/>
    <linearGradient id="linear-gradient-14" x1="-728.6" y1="-1571.83" x2="-881.46" y2="-1571.83" gradientTransform="translate(1814.1 2026.85)" xlink:href="#linear-gradient-5"/>
    <linearGradient id="linear-gradient-15" x1="-728.6" y1="-1911.33" x2="-881.46" y2="-1911.33" gradientTransform="translate(1474.61 2366.35)" xlink:href="#linear-gradient-5"/>
    <linearGradient id="linear-gradient-16" x1="1229.03" y1="517.13" x2="311.64" y2="517.13" gradientTransform="translate(350.66 6.32)" gradientUnits="userSpaceOnUse">
      <stop offset="0" stop-color="#fec010"/>
      <stop offset=".25" stop-color="#fcb314"/>
      <stop offset=".63" stop-color="#faa718"/>
      <stop offset="1" stop-color="#faa31a"/>
    </linearGradient>
    <linearGradient id="linear-gradient-17" x1="1579.69" y1="358" x2="662.31" y2="358" xlink:href="#linear-gradient-12"/>
    <linearGradient id="linear-gradient-18" x1="731.94" y1="361.42" x2="709.04" y2="361.42" xlink:href="#linear-gradient-12"/>
    <linearGradient id="linear-gradient-19" x1="968.51" y1="362.93" x2="945.61" y2="362.93" xlink:href="#linear-gradient-12"/>
    <linearGradient id="linear-gradient-20" x1="1204.1" y1="361.02" x2="1181.21" y2="361.02" xlink:href="#linear-gradient-12"/>
    <linearGradient id="linear-gradient-21" x1="1440.85" y1="361.3" x2="1417.95" y2="361.3" xlink:href="#linear-gradient-12"/>
    <linearGradient id="linear-gradient-22" x1="32.2" y1="-1370.53" x2="-129.19" y2="-1370.53" gradientTransform="translate(1611.73 1827.38)" xlink:href="#linear-gradient-12"/>
    <linearGradient id="linear-gradient-23" x1="1867.14" y1="-3328.54" x2="1844.25" y2="-3328.54" gradientTransform="translate(-292.46 3850.79)" xlink:href="#linear-gradient-12"/>
  </defs>
  <g id="_עגורן_עמוד_מלבן" data-name="עגורן עמוד מלבן">
    <g class="cls-33">
      <rect class="cls-19" x="644.55" y="333.67" width="2375.04" height="1357.24" rx="90.74" ry="90.74"/>
      <g>
        <polygon class="cls-6" points="2871.28 609.75 2841.93 660.7 1788.09 50.95 1817.45 0 2871.28 609.75"/>
        <polygon class="cls-6" points="2733.19 695.32 2703.83 746.28 1650 136.53 1679.35 85.58 2733.19 695.32"/>
        <polygon class="cls-6" points="2567.73 770.2 2538.38 821.16 1484.54 211.41 1513.9 160.46 2567.73 770.2"/>
        <polygon class="cls-6" points="3167.76 1262.85 3138.41 1313.8 1295.16 247.31 1324.51 196.36 3167.76 1262.85"/>
        <polygon class="cls-6" points="2979.78 1319.57 2950.42 1370.52 1107.17 304.02 1136.53 253.07 2979.78 1319.57"/>
        <polygon class="cls-6" points="2745.61 1354.69 2716.25 1405.64 873.01 339.14 902.36 288.19 2745.61 1354.69"/>
        <polygon class="cls-6" points="3006.73 1668.04 2977.38 1719 1134.13 652.5 1163.48 601.55 3006.73 1668.04"/>
        <polygon class="cls-6" points="2818.75 1724.76 2789.39 1775.71 946.14 709.21 975.5 658.26 2818.75 1724.76"/>
        <polygon class="cls-6" points="2584.58 1759.88 2555.23 1810.83 711.98 744.34 741.33 693.38 2584.58 1759.88"/>
        <polygon class="cls-6" points="2785.24 2051.81 2755.89 2102.76 912.64 1036.26 941.99 985.31 2785.24 2051.81"/>
        <polygon class="cls-6" points="2595.48 2116.54 2566.12 2167.5 722.87 1101 752.23 1050.05 2595.48 2116.54"/>
        <polygon class="cls-6" points="2361.61 2135.1 2332.25 2186.05 489 1119.56 518.36 1068.6 2361.61 2135.1"/>
        <g>
          <polygon class="cls-6" points="2069.96 2172.22 2038.82 2222.1 234.38 1091.18 265.52 1041.3 2069.96 2172.22"/>
          <polygon class="cls-6" points="1835.58 2182.5 1804.44 2232.39 0 1101.47 31.14 1051.59 1835.58 2182.5"/>
        </g>
      </g>
      <rect class="cls-31" x="642.52" y="329.15" width="2378.64" height="1198.51"/>
      <g>
        <rect class="cls-3" x="665.67" y="380.35" width="914.02" height="149.34"/>
        <polygon class="cls-13" points="768.98 979.19 825.92 979.19 825.92 541.32 676.84 541.32 676.84 1483.43 825.92 1483.43 825.92 1001.64 768.68 1002.17 768.98 979.19"/>
        <path class="cls-10" d="M855.68,985.81v-456.11h149.08l-105.61,455.35c-.4,1.72-1.93,2.94-3.69,2.93l-37.64-.02c-1.18,0-2.14-.96-2.14-2.15Z"/>
        <rect class="cls-14" x="671.19" y="541.32" width="161.1" height="14.56" rx="3.69" ry="3.69"/>
        <rect class="cls-28" x="670.1" y="973.08" width="161.1" height="14.56" rx="3.69" ry="3.69"/>
        <path class="cls-8" d="M1491.51,532.13c-4.31,502.18-8.71,713.51-13.08,713.57-4.37.06-9.27-211.42-14.76-714.13"/>
        <path class="cls-8" d="M1393.79,532.63c-4.31,501.82-8.71,713-13.08,713.06-4.37.06-9.27-211.27-14.76-713.63"/>
        <path class="cls-11" d="M1470.69,1390.91c-.02-3.47,0-7.46-1.25-10.31l-.02-.05c-.86-2.01-2.73-3.21-4.77-3.41-7.24,6.07-8.83,16.61-13.57,25.14-4.53,7.68-12.9,9.78-20.92,9.08-7.67-.35-14.64-6.29-16.39-13.62-2.09-7.73.7-14.59,5.43-20.2,1.23-1.84,2.56-3.67,3.84-5.55,2.53-3.67,5.16-7.49,7.7-11.17,3.32-5.09,5.92-7.74,7.34-12.79.18-.74.27-1.51.27-2.27h0v-21.13h-18.94v9.93c0,2.37-.93,4.64-2.61,6.31,0,0-.02.02-.03.03-2.24,2.3-4.61,4.65-7.05,6.68-5.64,4.88-12.78,8.21-17.64,14.04-7.54,9.1-8.19,21.92-8.24,33.28.01,6.09-.16,12.3.89,18.31,1.91,11.82,10.83,21.95,22.35,25.02,6.84,1.98,13.75,1.45,20.93,1.55,7.22-.11,13.63.43,20.37-1.39,9.72-2.47,17.91-10.47,20.63-20.21,1.73-5.32,1.67-11.49,1.68-17.6,0-3.16,0-6.53-.01-9.68Z"/>
        <path class="cls-18" d="M1413.78,1397.75c1.74,7.34,8.72,13.27,16.39,13.62,8.02.7,16.39-1.4,20.92-9.08,4.73-8.54,6.33-19.07,13.57-25.14-.42-.04-.84-.04-1.27,0-4.37.58-6.75,5.35-8.88,9.03-1.99,3.65-3.87,7.44-5.99,11.02-3.54,6.24-8.66,10.66-15.69,11.24-9.11.81-17.61-6.81-18.31-15.88-.79-5.74,1.62-10.41,4.7-15.01-4.74,5.61-7.52,12.47-5.43,20.2Z"/>
        <rect class="cls-35" x="1416.31" y="1318.66" width="25.34" height="10.26" rx="3.22" ry="3.22"/>
        <path class="cls-24" d="M1396.02,1228.97c0-8.5-6.88-15.39-15.36-15.39h-.62c-8.48,0-15.36,6.89-15.36,15.39v91.3c0,8.5,6.88,15.39,15.36,15.39h.62c8.48,0,15.36-6.89,15.36-15.39v-91.3Z"/>
        <path d="M1386.12,1268.15h-11.54c0-17.85,0-35.71,0-53.56.75-.29,1.7-.59,2.82-.78,1.39-.24,2.47-.23,3.27-.22.75.01,1.71.03,2.96.28,1.05.21,1.91.49,2.54.74-.01,17.85-.03,35.7-.04,53.55Z"/>
        <path class="cls-17" d="M1478.75,1213.58h-.62c-8.48,0-15.36,6.89-15.36,15.39v91.3c0,8.5,6.88,15.39,15.36,15.39h.62c8.48,0,15.36-6.89,15.36-15.39v-91.3c0-8.5-6.88-15.39-15.36-15.39Z"/>
        <path d="M1484.21,1268.15h-11.54c0-17.85,0-35.71,0-53.56.75-.29,1.7-.59,2.82-.78,1.39-.24,2.47-.23,3.27-.22.75.01,1.71.03,2.96.28,1.05.21,1.91.49,2.54.74-.01,17.85-.03,35.7-.04,53.55Z"/>
        <rect class="cls-25" x="1396.02" y="1231.99" width="66.75" height="33.43"/>
        <path d="M1396.02,1231.99h1.96v96.45c0,.34-.28.62-.62.62h-.73c-.34,0-.62-.28-.62-.62v-96.45h0Z"/>
        <path d="M1460.81,1231.99h1.96v96.45c0,.34-.28.62-.62.62h-.73c-.34,0-.62-.28-.62-.62v-96.45h0Z"/>
        <path class="cls-12" d="M1411.5,1285.16c1.33,6.99,9.33,4.89,14.67,5.59,2,.35,3-2.79,5-3.14,2.67-.35,8,.35,7.33,3.84-1.33,4.19-11.33,5.24-7.67,9.78,2.33,3.49,9.33,6.99,5.67,12.23,1.33,1.05,3.33,1.75,4.33.7,3-1.75,0-5.59,1.33-8.03,1-1.75,4.33-5.59,5.33-3.49.67,2.1,1,5.94,3.67,5.24,4-.7,4-6.99,7-10.13,1.64-2.41,1.67,1.97,2.63,3.1v-19.47h-48.46c-.73,1.13-1.1,2.41-.84,3.8Z"/>
        <path class="cls-22" d="M1443.5,1320.44c-3.33-1.4-7.67,1.75-11.67,1.05-2.33-.35-3.67-4.19-4.33-6.64-3.33,2.1-2.33,7.68-5.67,8.73-3.67,1.05-6-2.45-9.33-3.84-.33,2.1-3.33,2.45-4,1.05-1.67-2.1-3-4.19-5-5.24-2.95-1.55-4.34,2.39-5.54,5.25v4.3h62.84v-1.83c-1.68-.68-3.92-.2-5.96-.73-3-1.05-7.67-.7-11.33-2.1Z"/>
        <path class="cls-4" d="M1458.17,1297.74c-3,3.14-3,9.43-7,10.13-2.67.7-3-3.14-3.67-5.24-1-2.1-4.33,1.75-5.33,3.49-1.33,2.45,1.67,6.29-1.33,8.03-1,1.05-3,.35-4.33-.7,3.67-5.24-3.33-8.73-5.67-12.23-3.67-4.54,6.33-5.59,7.67-9.78.67-3.49-4.67-4.19-7.33-3.84-2,.35-3,3.49-5,3.14-5.33-.7-13.33,1.4-14.67-5.59-.27-1.39.11-2.67.84-3.8h-14.38v39.43c1.2-2.86,2.59-6.79,5.54-5.25,2,1.05,3.33,3.14,5,5.24.67,1.4,3.67,1.05,4-1.05,3.33,1.4,5.67,4.89,9.33,3.84,3.33-1.05,2.33-6.64,5.67-8.73.67,2.45,2,6.29,4.33,6.64,4,.7,8.33-2.45,11.67-1.05,3.67,1.4,8.33,1.05,11.33,2.1,2.04.53,4.28.05,5.96.73v-22.44c-.96-1.13-.98-5.51-2.63-3.1Z"/>
        <rect class="cls-26" x="662.59" y="1482.78" width="177.83" height="44.9" rx="3.69" ry="3.69"/>
        <rect class="cls-5" x="670.83" y="999.89" width="161.1" height="35.51" rx="3.69" ry="3.69"/>
        <rect class="cls-16" x="793.4" y="992.61" width="91.43" height="50.84" rx="1.43" ry="1.43"/>
        <rect class="cls-2" x="783.56" y="447.75" width="152.86" height="14.53" rx="3.69" ry="3.69" transform="translate(404.97 1315.01) rotate(-90)"/>
        <rect class="cls-20" x="932.64" y="447.75" width="152.86" height="14.53" rx="3.69" ry="3.69" transform="translate(554.05 1464.09) rotate(-90)"/>
        <rect class="cls-1" x="593.14" y="447.75" width="152.86" height="14.53" rx="3.69" ry="3.69" transform="translate(214.56 1124.59) rotate(-90)"/>
        <path class="cls-30" d="M662.31,512.96h917.39v17.3c0,2.04-1.65,3.69-3.69,3.69h-910.01c-2.04,0-3.69-1.65-3.69-3.69v-17.3h0Z"/>
        <rect class="cls-23" x="662.31" y="351.41" width="917.39" height="13.18" rx="3.11" ry="3.11"/>
        <path class="cls-34" d="M714.69,342.54h11.86c2.98,0,5.39,2.42,5.39,5.39v32.37h-22.9v-32.12c0-3.12,2.53-5.65,5.65-5.65Z"/>
        <path class="cls-27" d="M951.26,344.05h11.86c2.98,0,5.39,2.42,5.39,5.39v32.37h-22.9v-32.12c0-3.12,2.53-5.65,5.65-5.65Z"/>
        <path class="cls-21" d="M1186.85,342.14h11.86c2.98,0,5.39,2.42,5.39,5.39v32.37h-22.9v-32.12c0-3.12,2.53-5.65,5.65-5.65Z"/>
        <path class="cls-29" d="M1423.59,342.42h11.86c2.98,0,5.39,2.42,5.39,5.39v32.37h-22.9v-32.12c0-3.12,2.53-5.65,5.65-5.65Z"/>
        <path class="cls-9" d="M718.7,380.18c17.4-15.6,52.69,200.49,120.07,200.49,62.37,0,97.09-196.65,118.28-200.49"/>
        <path class="cls-9" d="M954.64,380.71c17.4-15.6,54.42,201.07,121.8,201.07,62.37,0,95.37-197.23,116.56-201.07"/>
        <path class="cls-9" d="M1191.43,381.76c17.4-15.6,51.59,202.32,118.98,202.32,62.37,0,98.19-198.47,119.38-202.32"/>
        <rect class="cls-15" x="1482.54" y="449.54" width="161.38" height="14.62" rx="3.69" ry="3.69" transform="translate(1106.38 2020.08) rotate(-90)"/>
        <path class="cls-32" d="M1557.43,503.37h11.86c2.98,0,5.39,2.42,5.39,5.39v32.37h-22.9v-32.12c0-3.12,2.53-5.65,5.65-5.65Z" transform="translate(3126.47 1044.5) rotate(180)"/>
      </g>
    </g>
  </g>
</svg>