<?xml version="1.0" encoding="UTF-8"?>
<svg xmlns="http://www.w3.org/2000/svg" xmlns:xlink="http://www.w3.org/1999/xlink" viewBox="640 330 2375.76 1440.39">
  <defs>
    <style>
      .cls-1 {
        fill: #fdfefe;
      }

      .cls-2 {
        fill: url(#linear-gradient-2);
      }

      .cls-3 {
        opacity: .61;
      }

      .cls-4 {
        fill: #263238;
      }

      .cls-5 {
        fill: #0d0d0d;
      }

      .cls-6, .cls-7 {
        fill: none;
      }

      .cls-8 {
        fill: url(#linear-gradient-4);
      }

      .cls-9, .cls-10 {
        fill: #e79956;
      }

      .cls-11 {
        fill: #f0b980;
      }

      .cls-12 {
        fill: url(#radial-gradient);
      }

      .cls-13 {
        fill: url(#radial-gradient-3);
      }

      .cls-10 {
        opacity: .18;
      }

      .cls-10, .cls-14 {
        mix-blend-mode: multiply;
      }

      .cls-15 {
        fill: url(#linear-gradient-3);
      }

      .cls-16 {
        clip-path: url(#clippath-1);
      }

      .cls-17 {
        fill: url(#linear-gradient-5);
      }

      .cls-18 {
        isolation: isolate;
      }

      .cls-19 {
        fill: url(#linear-gradient-8);
      }

      .cls-20 {
        fill: url(#radial-gradient-2);
      }

      .cls-21 {
        fill: #fdbe13;
      }

      .cls-22 {
        fill: url(#radial-gradient-4);
      }

      .cls-23 {
        fill: url(#linear-gradient-7);
      }

      .cls-14 {
        opacity: .66;
      }

      .cls-14, .cls-24 {
        fill: #896b49;
      }

      .cls-25 {
        fill: url(#linear-gradient-6);
      }

      .cls-26 {
        fill: #eca762;
      }

      .cls-27 {
        fill: #d9823d;
      }

      .cls-7 {
        stroke: #000;
        stroke-miterlimit: 10;
        stroke-width: 3px;
      }

      .cls-28 {
        fill: url(#linear-gradient);
      }

      .cls-29 {
        clip-path: url(#clippath);
      }

      .cls-30 {
        fill: #171717;
      }
    </style>
    <clipPath id="clippath">
      <path class="cls-6" d="M732.64,329.15h2198.39c49.74,0,90.12,40.38,90.12,90.12v1183.78c0,49.43-40.13,89.56-89.56,89.56H733.49c-50.21,0-90.97-40.76-90.97-90.97V419.27c0-49.74,40.38-90.12,90.12-90.12Z"/>
    </clipPath>
    <linearGradient id="linear-gradient" x1="1831.84" y1="329.15" x2="1831.84" y2="1527.66" gradientUnits="userSpaceOnUse">
      <stop offset="0" stop-color="#c3996c"/>
      <stop offset=".09" stop-color="#c9a57e"/>
      <stop offset=".4" stop-color="#decab5"/>
      <stop offset=".66" stop-color="#ede6dd"/>
      <stop offset=".87" stop-color="#f6f6f5"/>
      <stop offset="1" stop-color="#fafdff"/>
    </linearGradient>
    <clipPath id="clippath-1">
      <path class="cls-6" d="M712.2,329.15h922.89c.86,0,1.57.7,1.57,1.57v1195.38c0,.86-.7,1.57-1.57,1.57h-1012.13c-.86,0-1.57-.7-1.57-1.57V419.96c0-50.12,40.69-90.81,90.81-90.81Z"/>
    </clipPath>
    <linearGradient id="linear-gradient-2" x1="2231.4" y1="-2772.82" x2="2231.4" y2="-2580.77" gradientTransform="translate(-634.1 2627.2) rotate(-14.14) scale(1 .62)" gradientUnits="userSpaceOnUse">
      <stop offset="0" stop-color="#fec010"/>
      <stop offset=".46" stop-color="#fdbd10"/>
      <stop offset=".73" stop-color="#fcb513"/>
      <stop offset=".95" stop-color="#faa718"/>
      <stop offset="1" stop-color="#faa31a"/>
    </linearGradient>
    <linearGradient id="linear-gradient-3" x1="1105.41" y1="527.39" x2="1105.41" y2="595.51" gradientTransform="matrix(1,0,0,1,0,0)" xlink:href="#linear-gradient-2"/>
    <linearGradient id="linear-gradient-4" x1="1582.47" y1="391.65" x2="1582.47" y2="610.12" gradientTransform="matrix(1,0,0,1,0,0)" xlink:href="#linear-gradient-2"/>
    <radialGradient id="radial-gradient" cx="1391.39" cy="1099.28" fx="1391.39" fy="1099.28" r="30.26" gradientUnits="userSpaceOnUse">
      <stop offset=".27" stop-color="#2d2d2d"/>
      <stop offset="1" stop-color="#414042"/>
    </radialGradient>
    <radialGradient id="radial-gradient-2" cx="1398.27" cy="1106.46" fx="1398.27" fy="1106.46" r="13.01" gradientUnits="userSpaceOnUse">
      <stop offset=".03" stop-color="#2d2d2d"/>
      <stop offset="1" stop-color="#58595b"/>
    </radialGradient>
    <linearGradient id="linear-gradient-5" x1="1354.2" y1="1035.47" x2="1372.82" y2="1035.47" gradientTransform="matrix(1,0,0,1,0,0)" xlink:href="#linear-gradient-2"/>
    <linearGradient id="linear-gradient-6" x1="1412.48" y1="1035.47" x2="1431.1" y2="1035.47" gradientTransform="matrix(1,0,0,1,0,0)" xlink:href="#linear-gradient-2"/>
    <linearGradient id="linear-gradient-7" x1="1392.65" y1="1010.19" x2="1392.65" y2="1030.01" gradientUnits="userSpaceOnUse">
      <stop offset="0" stop-color="#414042"/>
      <stop offset=".07" stop-color="#57575a"/>
      <stop offset=".14" stop-color="#6d6e71"/>
      <stop offset=".38" stop-color="#a5a7a9"/>
      <stop offset=".5" stop-color="#bcbec0"/>
      <stop offset=".59" stop-color="#a8a9ac"/>
      <stop offset=".79" stop-color="#7d7e81"/>
      <stop offset=".89" stop-color="#6d6e71"/>
      <stop offset="1" stop-color="#414042"/>
    </linearGradient>
    <radialGradient id="radial-gradient-3" cx="1427.48" cy="1049.35" fx="1416.85" fy="1049.35" r="19.88" gradientTransform="translate(31.8) scale(.96 1)" gradientUnits="userSpaceOnUse">
      <stop offset=".03" stop-color="#e6e7e8"/>
      <stop offset="1" stop-color="#808285"/>
    </radialGradient>
    <radialGradient id="radial-gradient-4" cx="1423.3" cy="1062.37" fx="1423.3" fy="1062.37" r="23.66" gradientTransform="translate(31.8) scale(.96 1)" gradientUnits="userSpaceOnUse">
      <stop offset=".03" stop-color="#e6e7e8"/>
      <stop offset="1" stop-color="#808285"/>
    </radialGradient>
    <linearGradient id="linear-gradient-8" x1="1392.64" y1="1039.47" x2="1392.64" y2="1064.63" gradientUnits="userSpaceOnUse">
      <stop offset="0" stop-color="#fed700"/>
      <stop offset=".4" stop-color="#fdd401"/>
      <stop offset=".64" stop-color="#fccc06"/>
      <stop offset=".83" stop-color="#fbbe0e"/>
      <stop offset="1" stop-color="#f9aa1a"/>
      <stop offset="1" stop-color="#f9aa1b"/>
    </linearGradient>
  </defs>
  <g class="cls-18">
    <g id="Layer_2" data-name="Layer 2">
      <g id="_עגורן_גשר_מלבן" data-name="עגורן גשר מלבן">
        <g class="cls-29">
          <rect class="cls-21" x="644.55" y="333.67" width="2375.04" height="1357.24" rx="90.74" ry="90.74"/>
          <g>
            <polygon class="cls-5" points="2871.28 609.75 2841.93 660.7 1788.09 50.95 1817.45 0 2871.28 609.75"/>
            <polygon class="cls-5" points="2733.19 695.32 2703.83 746.28 1650 136.53 1679.35 85.58 2733.19 695.32"/>
            <polygon class="cls-5" points="2567.73 770.2 2538.38 821.16 1484.54 211.41 1513.9 160.46 2567.73 770.2"/>
            <polygon class="cls-5" points="3167.76 1262.85 3138.41 1313.8 1295.16 247.31 1324.51 196.36 3167.76 1262.85"/>
            <polygon class="cls-5" points="2979.78 1319.57 2950.42 1370.52 1107.17 304.02 1136.53 253.07 2979.78 1319.57"/>
            <polygon class="cls-5" points="2745.61 1354.69 2716.25 1405.64 873.01 339.14 902.36 288.19 2745.61 1354.69"/>
            <polygon class="cls-5" points="3006.73 1668.04 2977.38 1719 1134.13 652.5 1163.48 601.55 3006.73 1668.04"/>
            <polygon class="cls-5" points="2818.75 1724.76 2789.39 1775.71 946.14 709.21 975.5 658.26 2818.75 1724.76"/>
            <polygon class="cls-5" points="2584.58 1759.88 2555.23 1810.83 711.98 744.34 741.33 693.38 2584.58 1759.88"/>
            <polygon class="cls-5" points="2785.24 2051.81 2755.89 2102.76 912.64 1036.26 941.99 985.31 2785.24 2051.81"/>
            <polygon class="cls-5" points="2595.48 2116.54 2566.12 2167.5 722.87 1101 752.23 1050.05 2595.48 2116.54"/>
            <polygon class="cls-5" points="2361.61 2135.1 2332.25 2186.05 489 1119.56 518.36 1068.6 2361.61 2135.1"/>
            <g>
              <polygon class="cls-5" points="2069.96 2172.22 2038.82 2222.1 234.38 1091.18 265.52 1041.3 2069.96 2172.22"/>
              <polygon class="cls-5" points="1835.58 2182.5 1804.44 2232.39 0 1101.47 31.14 1051.59 1835.58 2182.5"/>
            </g>
          </g>
          <rect class="cls-28" x="642.52" y="329.15" width="2378.64" height="1198.51"/>
          <g class="cls-16">
            <g>
              <polygon class="cls-2" points="1588 425.94 670.3 562.12 660.51 537.43 1586.84 403.16 1588 425.94"/>
              <rect class="cls-15" x="632.7" y="527.39" width="945.41" height="68.12" rx="16.93" ry="16.93"/>
              <rect class="cls-8" x="1566.12" y="391.65" width="32.7" height="218.47" rx="12.52" ry="12.52"/>
              <path class="cls-7" d="M1429.55,597.44c-2.56,296.19-5.17,420.84-7.77,420.88-2.6.03-5.51-124.7-8.77-421.21"/>
              <path class="cls-7" d="M1371.49,597.44c-2.56,296.19-5.17,420.84-7.77,420.88-2.6.03-5.51-124.7-8.77-421.21"/>
              <g>
                <path class="cls-12" d="M1417.18,1104.44c-.01-2.06,0-4.42-.74-6.11v-.03c-.52-1.19-1.63-1.9-2.84-2.02-4.3,3.6-5.25,9.85-8.06,14.91-2.69,4.56-7.66,5.8-12.43,5.39-4.56-.21-8.7-3.73-9.74-8.08-1.24-4.59.41-8.65,3.23-11.98.73-1.09,1.52-2.18,2.28-3.29,1.5-2.18,3.07-4.44,4.57-6.63,1.97-3.02,3.52-4.59,4.36-7.59.1-.44.16-.89.16-1.35h0v-12.53h-11.26v5.89c0,1.4-.55,2.75-1.55,3.74,0,0-.01.01-.02.02-1.33,1.36-2.74,2.76-4.19,3.96-3.35,2.89-7.59,4.87-10.48,8.33-4.48,5.4-4.86,13-4.9,19.74,0,3.61-.09,7.29.53,10.86,1.14,7.01,6.44,13.02,13.28,14.84,4.06,1.17,8.17.86,12.43.92,4.29-.07,8.1.26,12.1-.82,5.78-1.47,10.64-6.21,12.26-11.99,1.03-3.15.99-6.81,1-10.44,0-1.88,0-3.87,0-5.74Z"/>
                <path class="cls-20" d="M1383.37,1108.5c1.04,4.35,5.18,7.87,9.74,8.08,4.76.41,9.74-.83,12.43-5.39,2.81-5.06,3.76-11.31,8.06-14.91-.25-.02-.5-.02-.75,0-2.6.34-4.01,3.17-5.28,5.35-1.18,2.17-2.3,4.41-3.56,6.53-2.1,3.7-5.14,6.32-9.32,6.67-5.41.48-10.47-4.04-10.88-9.42-.47-3.41.96-6.17,2.79-8.9-2.81,3.33-4.47,7.39-3.23,11.98Z"/>
                <rect class="cls-30" x="1384.87" y="1061.59" width="15.05" height="6.08" rx="3.04" ry="3.04"/>
              </g>
              <g>
                <rect class="cls-17" x="1354.2" y="999.27" width="18.62" height="72.4" rx="9.13" ry="9.13"/>
                <path d="M1366.94,1031.63h-6.86c0-10.59,0-21.18,0-31.77.45-.17,1.01-.35,1.67-.47.82-.14,1.47-.14,1.94-.13.44,0,1.02.02,1.76.16.62.12,1.14.29,1.51.44,0,10.59-.02,21.17-.02,31.76Z"/>
              </g>
              <g>
                <rect class="cls-25" x="1412.48" y="999.27" width="18.62" height="72.4" rx="9.13" ry="9.13"/>
                <path d="M1425.21,1031.63h-6.86c0-10.59,0-21.18,0-31.77.45-.17,1.01-.35,1.67-.47.82-.14,1.47-.14,1.94-.13.44,0,1.02.02,1.76.16.62.12,1.14.29,1.51.44,0,10.59-.02,21.17-.02,31.76Z"/>
              </g>
              <rect class="cls-23" x="1372.82" y="1010.19" width="39.66" height="19.83"/>
              <g>
                <path class="cls-13" d="M1382.01,1041.72c.79,4.14,5.55,2.9,8.72,3.31,1.19.21,1.78-1.66,2.97-1.86,1.58-.21,4.75.21,4.36,2.28-.79,2.49-6.73,3.11-4.56,5.8,1.39,2.07,5.55,4.14,3.37,7.25.79.62,1.98,1.04,2.57.41,1.78-1.04,0-3.31.79-4.76.59-1.04,2.57-3.31,3.17-2.07.4,1.24.59,3.52,2.18,3.11,2.38-.41,2.38-4.14,4.16-6.01.98-1.43.99,1.17,1.56,1.84v-11.55h-28.79c-.43.67-.65,1.43-.5,2.25Z"/>
                <path class="cls-22" d="M1401.03,1062.65c-1.98-.83-4.56,1.04-6.93.62-1.39-.21-2.18-2.49-2.57-3.94-1.98,1.24-1.39,4.56-3.37,5.18-2.18.62-3.57-1.45-5.55-2.28-.2,1.24-1.98,1.45-2.38.62-.99-1.24-1.78-2.49-2.97-3.11-1.75-.92-2.58,1.41-3.29,3.11v2.55h37.34v-1.09c-1-.4-2.33-.12-3.54-.43-1.78-.62-4.56-.41-6.73-1.24Z"/>
                <path class="cls-19" d="M1409.74,1049.18c-1.78,1.86-1.78,5.59-4.16,6.01-1.58.41-1.78-1.86-2.18-3.11-.59-1.24-2.57,1.04-3.17,2.07-.79,1.45.99,3.73-.79,4.76-.59.62-1.78.21-2.57-.41,2.18-3.11-1.98-5.18-3.37-7.25-2.18-2.69,3.76-3.31,4.56-5.8.4-2.07-2.77-2.49-4.36-2.28-1.19.21-1.78,2.07-2.97,1.86-3.17-.41-7.92.83-8.72-3.31-.16-.83.06-1.58.5-2.25h-8.54v23.39c.72-1.7,1.54-4.03,3.29-3.11,1.19.62,1.98,1.86,2.97,3.11.4.83,2.18.62,2.38-.62,1.98.83,3.37,2.9,5.55,2.28,1.98-.62,1.39-3.94,3.37-5.18.4,1.45,1.19,3.73,2.57,3.94,2.38.41,4.95-1.45,6.93-.62,2.18.83,4.95.62,6.73,1.24,1.21.32,2.54.03,3.54.43v-13.31c-.57-.67-.58-3.27-1.56-1.84Z"/>
              </g>
              <g>
                <g>
                  <g>
                    <g>
                      <polygon class="cls-11" points="1014.85 1204.61 1014.85 1205.14 911.53 1287.31 905.16 1287.31 899.31 1287.31 877.75 1287.31 668.17 1287.45 668.27 1287.39 771.43 1204.61 1014.85 1204.61"/>
                      <polygon class="cls-11" points="1014.2 1448.68 1014.85 1448.48 1014.85 1448.68 1014.2 1448.68"/>
                      <g>
                        <polyline class="cls-11" points="891.8 1204.61 891.8 1205.14 788.49 1287.31"/>
                        <polygon class="cls-24" points="788.11 1288.1 786.85 1286.52 890.17 1204.35 890.38 1204.61 891.8 1204.61 891.8 1205.62 891.42 1205.93 788.11 1288.1"/>
                      </g>
                      <path class="cls-9" d="M1014.26,1205.44l-1.96,1.47-3.29,2.58-.22.16-1.67,1.29-.34.28-2.9,2.3-1.88,1.47-3.25,2.58-.04.04-1.82,1.41-.2.16-3.05,2.42-.99.79-.87.69-3.27,2.58-1.03.81-.81.65-.08.06-3.19,2.54-.85.67-1.01.81-1.01.79-2.24,1.77-1.86,1.47-3.25,2.58-.73.58-1.13.89-.89.71-2.36,1.86-1.86,1.47-3.27,2.6-.59.46-1.25.99-.77.6-2.5,1.98-1.84,1.45-3.27,2.58-.46.36-1.39,1.11-.63.5-2.62,2.08-1.86,1.47-3.25,2.56-.34.26-1.51,1.21-.5.4-2.74,2.18-1.86,1.47-3.27,2.58-.2.16-1.63,1.29-.38.3-2.88,2.3-1.84,1.45-3.27,2.58-.08.06-1.77,1.41-.24.2-3.01,2.38-1.86,1.47-3.21,2.82-.04.04-.4.65h.44v242.71l.02-.08,3.23-2.58.79-.63,1.05-.85.97-.77,2.02-1.61.24-.2,1.77-1.41.08-.06,3.27-2.6.69-.54,1.15-.91.87-.69,2.02-1.61.38-.3,1.63-1.29.2-.16,3.27-2.6.56-.44,1.29-1.03.73-.58,2.02-1.59.5-.4,1.51-1.21.34-.26,3.25-2.58.44-.34,1.41-1.13.61-.48,2.02-1.59.63-.5,1.39-1.11.46-.36,3.27-2.6.3-.24,1.53-1.21.48-.38,2.02-1.61.77-.61,1.25-.99.59-.46,3.27-2.6.18-.14,1.67-1.33.34-.28,2.02-1.59.89-.71,1.13-.89.73-.58,3.25-2.58.06-.04,1.8-1.43.22-.18,2.02-1.59,2.02-1.61.85-.67,3.19-2.54.08-.06,1.84-1.45.1-.08,3.17-2.52.87-.69.99-.79,1.03-.83,2.02-1.59.2-.16,1.82-1.43.04-.04,3.25-2.58.75-.58,1.11-.89.91-.73,2.02-1.59.32-.26,1.69-1.35.16-.12,3.25-2.58.63-.5,1.23-.97.34-.12.44-.2v-243.34l-.58.3Z"/>
                      <polygon class="cls-26" points="911.97 1287.31 911.52 1287.31 667.91 1287.31 667.91 1529.36 911.97 1529.36 911.97 1287.31"/>
                      <g>
                        <line class="cls-11" x1="911.53" y1="1287.31" x2="668.5" y2="1286.69"/>
                        <rect class="cls-24" x="789.01" y="1165.49" width="2.02" height="243.03" transform="translate(-499 2073.73) rotate(-89.85)"/>
                      </g>
                    </g>
                    <g>
                      <path class="cls-4" d="M980.32,1465.24l-.15-53.38,24.59-19.34v53.37l-24.44,19.35ZM984.21,1413.82l.13,43.11,16.39-12.98v-43.11l-16.52,12.99Z"/>
                      <polygon class="cls-4" points="993.84 1419.03 988.14 1435.8 992.66 1432.77 992.66 1447.06 996.69 1444.28 996.69 1429.53 1000.4 1426.54 993.84 1419.03"/>
                    </g>
                  </g>
                  <path class="cls-9" d="M710.65,1310.8c-2.12-2.12-4.87,1.92-2.38,3.08.74.34,1.24.34,1.98,0,1.17-.54,1.23-2.25.4-3.08Z"/>
                  <path class="cls-9" d="M748.59,1368.22c-2.32,0-2.32,3.59,0,3.59s2.32-3.59,0-3.59Z"/>
                  <path class="cls-9" d="M722.37,1403.28c-2.02,0-2.02,4.07,0,4.07,4.03,0,4.03-4.07,0-4.07Z"/>
                  <path class="cls-9" d="M750.61,1425.75c-2.02,0-2.02,3.5,0,3.5,4.03,0,4.03-3.5,0-3.5Z"/>
                  <path class="cls-9" d="M762.71,1398c-2.02,0-2.02,4.54,0,4.54,4.03,0,4.03-4.54,0-4.54Z"/>
                  <path class="cls-9" d="M712.29,1479.36c-3.35,0-3.35,5.2,0,5.2s3.35-5.2,0-5.2Z"/>
                  <path class="cls-9" d="M833.31,1500.33c-2.32,0-2.32,3.59,0,3.59s2.32-3.59,0-3.59Z"/>
                  <path class="cls-9" d="M851.88,1417.29c-.3.12-.61.24-.91.36-1.75.7-1.75,2.85,0,3.56.3.12.61.24.91.36,1.37.55,2.81-.82,2.81-2.14s-1.45-2.69-2.81-2.14Z"/>
                  <path class="cls-9" d="M844.74,1364.42c-.36-.57-.84-1.02-1.59-1.22-1.52-.42-3.13.5-3.55,2.01-.42,1.51.5,3.13,2.01,3.55,1.32.36,2.42-.22,3.11-1.22.94-.83.94-2.29.01-3.12Z"/>
                  <path class="cls-9" d="M903.91,1341.63c-4.03,0-4.03,6.33,0,6.33,6.05,0,6.05-6.33,0-6.33Z"/>
                  <path class="cls-9" d="M825.24,1326.84c-3.23,0-3.23,5,0,5s3.23-5,0-5Z"/>
                  <path class="cls-9" d="M782.88,1303.97c-2.02,0-2.02,5.01,0,5.01,4.03,0,4.03-5.01,0-5.01Z"/>
                  <path class="cls-9" d="M857.51,1309.64c-1.48,0-3,1.31-2.88,2.88.04.48.09.95.2,1.41.65,2.66,4.71,2.66,5.36,0,.11-.46.17-.93.2-1.41.12-1.57-1.4-2.88-2.88-2.88Z"/>
                  <path class="cls-9" d="M800.44,1463.79c-.35.13-.41.19-.16.18-.25,0-.49.06-.72.16-1.21.43-1.75,1.94-.77,2.92.98.98,2.49.44,2.92-.77.1-.23.16-.47.16-.72-.01.25.05.19.18-.16.6-1.02-.59-2.22-1.62-1.62Z"/>
                  <path class="cls-9" d="M851.46,1460.04c-1.12,0-2.01,1.12-1.69,2.21.09.31.18.62.27.93.41,1.4,2.42,1.4,2.83,0,.09-.31.18-.62.27-.93.32-1.09-.56-2.21-1.69-2.21Z"/>
                  <path class="cls-9" d="M874.16,1502.64c-.47.54-.94,1.08-1.41,1.62-1.13,1.3-1.03,3.31.55,4.23,1.44.84,3.59.11,3.96-1.61.15-.72.31-1.45.46-2.17.41-1.93-2.06-3.78-3.56-2.07Z"/>
                  <path class="cls-9" d="M895.84,1435.55c-2.62,0-2.62,4.07,0,4.07s2.62-4.07,0-4.07Z"/>
                  <path class="cls-9" d="M815.16,1421.15c-2.02,0-2.02,4.63,0,4.63,4.03,0,4.03-4.63,0-4.63Z"/>
                  <path class="cls-9" d="M745.1,1493.55c-.26.14-.51.27-.77.41-1.6.85-1.6,3.4,0,4.25.26.14.51.27.77.41,1.94,1.03,4.41-.24,4.41-2.53s-2.47-3.56-4.41-2.53Z"/>
                  <path class="cls-9" d="M692.11,1506.69c-3.23,0-3.23,5.01,0,5.01s3.23-5.01,0-5.01Z"/>
                  <path class="cls-9" d="M680.01,1441.76c-3.72,0-3.72,5.77,0,5.77s3.72-5.77,0-5.77Z"/>
                  <path class="cls-9" d="M688.08,1390.2c-1.28,0-1.28,1.99,0,1.99s1.28-1.99,0-1.99Z"/>
                  <path class="cls-9" d="M727.41,1336.78c-2.74,0-3.76,3.18-2.11,5.08.16.18.31.36.47.54.79.91,2.49.91,3.28,0,.16-.18.31-.36.47-.54,1.65-1.91.63-5.08-2.11-5.08Z"/>
                  <path class="cls-9" d="M712.29,1368.94c-2.02,0-2.02,4.16,0,4.16,4.03,0,4.03-4.16,0-4.16Z"/>
                  <path class="cls-26" d="M859.91,1248.28c-.15-.3-.39-.53-.68-.68-.82-.41-1.61-.29-2.3.3-.27.23-.55.46-.82.7-1.96,1.66,1.14,4.77,2.81,2.81.23-.27.46-.54.7-.82.59-.69.71-1.48.3-2.3Z"/>
                  <path class="cls-26" d="M879.7,1260.59v3.03c2.02,0,2.02-3.03,0-3.03Z"/>
                  <path class="cls-26" d="M895.84,1225.51v.57c2.02,0,2.02-.57,0-.57Z"/>
                  <path class="cls-26" d="M913.99,1240.57c-2.02,0-2.02,4.73,0,4.73,4.03,0,4.03-4.73,0-4.73Z"/>
                  <path class="cls-26" d="M905.92,1260.63v2.93c2.02,0,2.02-2.93,0-2.93Z"/>
                  <path class="cls-26" d="M891.8,1247.71c-1.65,0-1.65,2.55,0,2.55s1.65-2.55,0-2.55Z"/>
                  <path class="cls-26" d="M928.93,1258.57c-.09-.31-.18-.62-.27-.93-.45-1.53-2.65-1.53-3.1,0-.09.31-.18.62-.27.93-.35,1.18.61,2.39,1.82,2.39s2.17-1.21,1.82-2.39Z"/>
                  <path class="cls-26" d="M835.33,1263.58c-2.02,0-2.02,5.11,0,5.11,4.03,0,4.03-5.11,0-5.11Z"/>
                  <path class="cls-26" d="M887.77,1219.93c-3.66,0-3.66,5.67,0,5.67s3.66-5.67,0-5.67Z"/>
                  <path class="cls-26" d="M756.66,1230.24c-2.02,0-2.02,3.21,0,3.21,4.03,0,4.03-3.21,0-3.21Z"/>
                  <path class="cls-26" d="M799.02,1219.47c-1.65,0-1.65,2.55,0,2.55s1.65-2.55,0-2.55Z"/>
                  <path class="cls-26" d="M790.95,1254.35c-2.02,0-2.02,3.4,0,3.4,4.03,0,4.03-3.4,0-3.4Z"/>
                  <path class="cls-26" d="M772.8,1240.62c-2.02,0-2.02,4.63,0,4.63,4.03,0,4.03-4.63,0-4.63Z"/>
                  <path class="cls-26" d="M742.54,1263.38c-2.02,0-2.02,3.5,0,3.5,4.03,0,4.03-3.5,0-3.5Z"/>
                  <path class="cls-26" d="M777.55,1269.95l-.75-.45c-1.27-.76-2.92.22-2.92,1.67s1.65,2.44,2.92,1.67c.25-.15.5-.3.75-.45.92-.55.92-1.9,0-2.45Z"/>
                  <path class="cls-26" d="M816.32,1240.94c-.26-.12-.53-.25-.79-.37-1.83-.85-4.13.14-4.13,2.37s2.29,3.22,4.13,2.37c.26-.12.53-.24.79-.37,1.52-.7,1.52-3.3,0-4Z"/>
                  <path class="cls-27" d="M930.13,1298.08c-4.33,0-4.33,6.71,0,6.71s4.33-6.71,0-6.71Z"/>
                  <path class="cls-27" d="M964.42,1324.94c-2.02,0-2.02,3.4,0,3.4,4.03,0,4.03-3.4,0-3.4Z"/>
                  <path class="cls-27" d="M968.45,1286.75v1.13c2.02,0,2.02-1.13,0-1.13Z"/>
                  <path class="cls-27" d="M994.67,1299.92c-1.95,0-1.95,3.03,0,3.03s1.95-3.03,0-3.03Z"/>
                  <path class="cls-27" d="M992.66,1342.83c-2.02,0-2.02,5.96,0,5.96,4.03,0,4.03-5.96,0-5.96Z"/>
                  <path class="cls-27" d="M954.33,1380.9c-2.02,0-2.02,4.44,0,4.44,4.03,0,4.03-4.44,0-4.44Z"/>
                  <path class="cls-27" d="M962.4,1413.54c-1.1,0-1.1,1.7,0,1.7s1.1-1.7,0-1.7Z"/>
                  <path class="cls-27" d="M940.14,1441.04c-.23-.18-.47-.35-.7-.53-1.54-1.17-3.7.43-3.7,2.12s2.16,3.29,3.7,2.12l.7-.53c1.17-.89,1.17-2.29,0-3.18Z"/>
                  <path class="cls-27" d="M960.04,1466.73c-.42,1.04-.85,1.98-.98,3.1-.03.24.33.31.44.12.57-.97.8-1.98,1.09-3.07.1-.36-.41-.48-.55-.15Z"/>
                  <path class="cls-27" d="M970.47,1441.7c-2.5,0-2.5,3.88,0,3.88s2.5-3.88,0-3.88Z"/>
                  <path class="cls-27" d="M988.62,1375.01c-2.02,0-2.02,6.15,0,6.15,4.03,0,4.03-6.15,0-6.15Z"/>
                  <g class="cls-3">
                    <rect class="cls-10" x="673.67" y="1287.31" width="3.31" height="242.05"/>
                    <rect class="cls-10" x="682.8" y="1287.31" width="3.31" height="242.05"/>
                    <rect class="cls-10" x="691.93" y="1287.31" width="3.31" height="242.05"/>
                    <rect class="cls-10" x="701.07" y="1287.31" width="3.31" height="242.05"/>
                    <rect class="cls-10" x="710.2" y="1287.31" width="3.31" height="242.05"/>
                    <rect class="cls-10" x="719.33" y="1287.31" width="3.31" height="242.05"/>
                    <rect class="cls-10" x="728.47" y="1287.31" width="3.31" height="242.05"/>
                    <rect class="cls-10" x="737.6" y="1287.31" width="3.31" height="242.05"/>
                    <rect class="cls-10" x="746.73" y="1287.31" width="3.31" height="242.05"/>
                    <rect class="cls-10" x="755.87" y="1287.31" width="3.31" height="242.05"/>
                    <rect class="cls-10" x="765" y="1287.31" width="3.31" height="242.05"/>
                    <rect class="cls-10" x="774.13" y="1287.31" width="3.31" height="242.05"/>
                    <rect class="cls-10" x="783.26" y="1287.31" width="3.31" height="242.05"/>
                    <rect class="cls-10" x="792.4" y="1287.31" width="3.31" height="242.05"/>
                    <rect class="cls-10" x="801.53" y="1287.31" width="3.31" height="242.05"/>
                    <rect class="cls-10" x="810.66" y="1287.31" width="3.31" height="242.05"/>
                    <rect class="cls-10" x="819.8" y="1287.31" width="3.31" height="242.05"/>
                    <rect class="cls-10" x="828.93" y="1287.31" width="3.31" height="242.05"/>
                    <rect class="cls-10" x="838.06" y="1287.31" width="3.31" height="242.05"/>
                    <rect class="cls-10" x="847.2" y="1287.31" width="3.31" height="242.05"/>
                    <rect class="cls-10" x="856.33" y="1287.31" width="3.31" height="242.05"/>
                    <rect class="cls-10" x="865.46" y="1287.31" width="3.31" height="242.05"/>
                    <rect class="cls-10" x="874.59" y="1287.31" width="3.31" height="242.05"/>
                    <rect class="cls-10" x="883.73" y="1287.31" width="3.31" height="242.05"/>
                    <rect class="cls-10" x="892.86" y="1287.31" width="3.31" height="242.05"/>
                    <rect class="cls-10" x="901.99" y="1287.31" width="3.31" height="242.05"/>
                  </g>
                  <g class="cls-3">
                    <polygon class="cls-10" points="911.97 1286.37 911.97 1529.95 911.97 1530.03 911.97 1287.31 911.53 1287.31 911.97 1286.37"/>
                    <polygon class="cls-10" points="918.03 1282.33 918.03 1525.13 917.06 1525.89 916.01 1526.74 916.01 1283.8 918.03 1282.33"/>
                    <polygon class="cls-10" points="922.06 1278.28 922.06 1521.9 920.29 1523.31 920.04 1523.51 920.04 1279.75 922.06 1278.28"/>
                    <polygon class="cls-10" points="928.11 1274.24 928.11 1517.1 927.24 1517.78 926.09 1518.69 926.09 1275.7 928.11 1274.24"/>
                    <polygon class="cls-10" points="932.15 1270.19 932.15 1513.89 930.51 1515.18 930.13 1515.48 930.13 1271.64 932.15 1270.19"/>
                    <polygon class="cls-10" points="938.2 1266.13 938.2 1509.07 937.47 1509.65 936.18 1510.68 936.18 1267.61 938.2 1266.13"/>
                    <polygon class="cls-10" points="942.23 1262.08 942.23 1505.86 940.72 1507.07 940.21 1507.48 940.21 1263.55 942.23 1262.08"/>
                    <polygon class="cls-10" points="948.28 1258.05 948.28 1501.06 947.68 1501.55 946.27 1502.68 946.27 1259.52 948.28 1258.05"/>
                    <polygon class="cls-10" points="952.32 1253.99 952.32 1497.86 950.92 1498.96 950.3 1499.47 950.3 1255.46 952.32 1253.99"/>
                    <polygon class="cls-10" points="958.37 1249.96 958.37 1493.05 957.88 1493.44 956.35 1494.65 956.35 1251.41 958.37 1249.96"/>
                    <polygon class="cls-10" points="962.4 1245.92 962.4 1489.85 961.15 1490.84 960.38 1491.44 960.38 1247.38 962.4 1245.92"/>
                    <polygon class="cls-10" points="968.45 1241.85 968.45 1485.03 968.11 1485.31 966.44 1486.64 966.44 1243.32 968.45 1241.85"/>
                    <polygon class="cls-10" points="972.49 1237.81 972.49 1481.84 971.36 1482.73 970.47 1483.43 970.47 1239.29 972.49 1237.81"/>
                    <polygon class="cls-10" points="978.54 1233.76 978.54 1477.02 978.32 1477.2 976.52 1478.63 976.52 1235.23 978.54 1233.76"/>
                    <polygon class="cls-10" points="982.57 1229.73 982.57 1473.81 980.56 1475.43 980.56 1231.2 982.57 1229.73"/>
                    <polygon class="cls-10" points="988.62 1225.67 988.62 1469.01 988.52 1469.09 986.69 1470.54 986.61 1470.6 986.61 1227.12 987.49 1226.48 988.62 1225.67"/>
                    <polygon class="cls-10" points="998.71 1217.58 998.71 1461 996.89 1462.44 996.69 1462.6 996.69 1219.04 998.71 1217.58"/>
                    <polygon class="cls-10" points="994.67 1221.62 994.67 1464.19 993.65 1465.02 992.66 1465.8 992.66 1223.07 994.67 1221.62"/>
                    <polygon class="cls-10" points="1004.76 1213.53 1004.76 1456.18 1003.85 1456.91 1002.74 1457.8 1002.74 1215 1004.76 1213.53"/>
                    <polygon class="cls-10" points="1008.79 1209.5 1008.79 1452.98 1007.1 1454.33 1006.78 1454.59 1006.78 1210.95 1008.79 1209.5"/>
                    <polygon class="cls-10" points="1014.85 1205.44 1014.85 1448.48 1014.4 1448.68 1014.06 1448.8 1012.83 1449.77 1012.83 1206.91 1014.85 1205.44"/>
                  </g>
                  <g class="cls-3">
                    <polygon class="cls-10" points="780.2 1204.61 680.11 1287.31 676.8 1287.31 776.89 1204.61 780.2 1204.61"/>
                    <polygon class="cls-10" points="789.34 1204.61 689.25 1287.31 685.94 1287.31 786.03 1204.61 789.34 1204.61"/>
                    <polygon class="cls-10" points="798.47 1204.61 698.39 1287.31 695.08 1287.31 795.17 1204.61 798.47 1204.61"/>
                    <polygon class="cls-10" points="807.61 1204.61 707.52 1287.31 704.22 1287.31 804.3 1204.61 807.61 1204.61"/>
                    <polygon class="cls-10" points="816.75 1204.61 716.66 1287.31 713.35 1287.31 813.44 1204.61 816.75 1204.61"/>
                    <polygon class="cls-10" points="825.87 1204.61 725.78 1287.31 722.47 1287.31 822.56 1204.61 825.87 1204.61"/>
                    <polygon class="cls-10" points="835 1204.61 734.92 1287.31 731.61 1287.31 831.7 1204.61 835 1204.61"/>
                    <polygon class="cls-10" points="844.14 1204.61 744.05 1287.31 740.75 1287.31 840.83 1204.61 844.14 1204.61"/>
                    <polygon class="cls-10" points="853.28 1204.61 753.19 1287.31 749.88 1287.31 849.97 1204.61 853.28 1204.61"/>
                    <polygon class="cls-10" points="862.42 1204.61 762.33 1287.31 759 1287.31 859.09 1204.61 862.42 1204.61"/>
                    <polygon class="cls-10" points="871.53 1204.61 771.45 1287.31 768.14 1287.31 868.22 1204.61 871.53 1204.61"/>
                    <polygon class="cls-10" points="880.67 1204.61 780.58 1287.31 777.28 1287.31 877.36 1204.61 880.67 1204.61"/>
                    <polygon class="cls-10" points="889.81 1204.61 789.72 1287.31 786.41 1287.31 886.5 1204.61 889.81 1204.61"/>
                    <polygon class="cls-10" points="898.94 1204.61 798.86 1287.31 795.55 1287.31 895.64 1204.61 898.94 1204.61"/>
                    <polygon class="cls-10" points="908.06 1204.61 807.97 1287.31 804.67 1287.31 904.75 1204.61 908.06 1204.61"/>
                    <polygon class="cls-10" points="917.2 1204.61 817.11 1287.31 813.8 1287.31 913.89 1204.61 917.2 1204.61"/>
                    <polygon class="cls-10" points="926.34 1204.61 826.25 1287.31 822.94 1287.31 923.03 1204.61 926.34 1204.61"/>
                    <polygon class="cls-10" points="935.47 1204.61 835.39 1287.31 832.08 1287.31 932.17 1204.61 935.47 1204.61"/>
                    <polygon class="cls-10" points="944.61 1204.61 844.52 1287.31 841.22 1287.31 941.3 1204.61 944.61 1204.61"/>
                    <polygon class="cls-10" points="953.73 1204.61 853.64 1287.31 850.33 1287.31 950.42 1204.61 953.73 1204.61"/>
                    <polygon class="cls-10" points="962.87 1204.61 862.78 1287.31 859.47 1287.31 959.56 1204.61 962.87 1204.61"/>
                    <polygon class="cls-10" points="972 1204.61 871.92 1287.31 868.61 1287.31 968.69 1204.61 972 1204.61"/>
                    <polygon class="cls-10" points="981.14 1204.61 881.05 1287.31 877.75 1287.31 977.83 1204.61 981.14 1204.61"/>
                    <polygon class="cls-10" points="990.28 1204.61 890.19 1287.31 886.86 1287.31 986.95 1204.61 990.28 1204.61"/>
                    <polygon class="cls-10" points="999.39 1204.61 899.31 1287.31 896 1287.31 996.09 1204.61 999.39 1204.61"/>
                    <polygon class="cls-10" points="1008.53 1204.61 908.47 1287.29 908.45 1287.31 905.14 1287.31 905.16 1287.29 1005.22 1204.61 1008.53 1204.61"/>
                  </g>
                </g>
                <g>
                  <g>
                    <g>
                      <polygon class="cls-11" points="1232.49 1270.09 1232.49 1270.55 1141.41 1342.98 1124.02 1342.99 1123.83 1342.99 926.88 1343.13 926.97 1343.06 1017.9 1270.09 1232.49 1270.09"/>
                      <polygon class="cls-11" points="1231.92 1485.24 1232.49 1485.06 1232.49 1485.24 1231.92 1485.24"/>
                      <polygon class="cls-24" points="1032.61 1343.69 1031.51 1342.3 1122.58 1269.85 1122.77 1270.09 1124.02 1270.09 1125.29 1270.09 1032.61 1343.69"/>
                      <path class="cls-9" d="M1232.13,1270.55l-90.73,71.89h.28v214.52l90.23-71.72.22-.17v-214.52Z"/>
                      <polygon class="cls-26" points="1141.81 1342.99 1141.41 1342.99 926.65 1342.99 926.65 1556.37 1141.81 1556.37 1141.81 1342.99"/>
                      <polygon class="cls-26" points="1035.12 1342.99 1034.29 1342.99 926.65 1342.99 926.65 1556.37 1035.12 1556.37 1035.12 1342.99"/>
                      <g>
                        <line class="cls-11" x1="1141.41" y1="1342.99" x2="927.17" y2="1342.44"/>
                        <rect class="cls-24" x="1033.4" y="1235.6" width="1.78" height="214.24" transform="translate(-311.06 2373.58) rotate(-89.85)"/>
                      </g>
                    </g>
                    <g>
                      <path class="cls-4" d="M1202.06,1496.29l-.14-47.06,21.68-17.05v47.05l-21.54,17.06ZM1205.48,1450.95l.11,38,14.45-11.44v-38.01l-14.56,11.45Z"/>
                      <polygon class="cls-4" points="1213.98 1455.55 1208.95 1470.33 1212.93 1467.66 1212.93 1480.26 1216.49 1477.81 1216.49 1464.81 1219.75 1462.17 1213.98 1455.55"/>
                    </g>
                    <polygon class="cls-14" points="1141.81 1270.09 1124.02 1270.09 1106.58 1269.85 1013.78 1342.99 1013.78 1556.37 1051.12 1556.37 1051.12 1343.1 1141.81 1270.09"/>
                  </g>
                  <g class="cls-3">
                    <polygon class="cls-10" points="1141.81 1342.16 1141.81 1556.88 1141.81 1556.95 1141.81 1342.99 1141.41 1342.99 1141.81 1342.16"/>
                    <polygon class="cls-10" points="1147.14 1338.6 1147.14 1552.63 1146.29 1553.31 1145.36 1554.06 1145.36 1339.9 1147.14 1338.6"/>
                    <polygon class="cls-10" points="1150.7 1335.03 1150.7 1549.79 1149.13 1551.03 1148.92 1551.21 1148.92 1336.32 1150.7 1335.03"/>
                    <polygon class="cls-10" points="1156.03 1331.47 1156.03 1545.56 1155.27 1546.16 1154.25 1546.96 1154.25 1332.75 1156.03 1331.47"/>
                    <polygon class="cls-10" points="1159.59 1327.9 1159.59 1542.73 1158.15 1543.87 1157.81 1544.13 1157.81 1329.18 1159.59 1327.9"/>
                    <polygon class="cls-10" points="1164.92 1324.32 1164.92 1538.48 1164.28 1539 1163.14 1539.9 1163.14 1325.62 1164.92 1324.32"/>
                    <polygon class="cls-10" points="1168.48 1320.75 1168.48 1535.65 1167.14 1536.72 1166.7 1537.08 1166.7 1322.05 1168.48 1320.75"/>
                    <polygon class="cls-10" points="1173.81 1317.19 1173.81 1531.42 1173.28 1531.85 1172.03 1532.84 1172.03 1318.49 1173.81 1317.19"/>
                    <polygon class="cls-10" points="1177.37 1313.62 1177.37 1528.59 1176.14 1529.57 1175.59 1530.02 1175.59 1314.91 1177.37 1313.62"/>
                    <polygon class="cls-10" points="1182.7 1310.06 1182.7 1524.36 1182.28 1524.7 1180.92 1525.77 1180.92 1311.34 1182.7 1310.06"/>
                    <polygon class="cls-10" points="1186.26 1306.5 1186.26 1521.53 1185.16 1522.41 1184.48 1522.94 1184.48 1307.78 1186.26 1306.5"/>
                    <polygon class="cls-10" points="1191.59 1302.91 1191.59 1517.28 1191.29 1517.53 1189.81 1518.71 1189.81 1304.21 1191.59 1302.91"/>
                    <polygon class="cls-10" points="1195.15 1299.36 1195.15 1514.47 1194.15 1515.26 1193.37 1515.88 1193.37 1300.65 1195.15 1299.36"/>
                    <polygon class="cls-10" points="1200.48 1295.78 1200.48 1510.23 1200.29 1510.39 1198.71 1511.65 1198.71 1297.08 1200.48 1295.78"/>
                    <polygon class="cls-10" points="1204.04 1292.23 1204.04 1507.4 1202.26 1508.82 1202.26 1293.52 1204.04 1292.23"/>
                    <polygon class="cls-10" points="1209.37 1288.65 1209.37 1503.17 1209.29 1503.24 1207.67 1504.52 1207.6 1504.57 1207.6 1289.93 1208.38 1289.36 1209.37 1288.65"/>
                    <polygon class="cls-10" points="1218.26 1281.52 1218.26 1496.11 1216.66 1497.37 1216.49 1497.51 1216.49 1282.8 1218.26 1281.52"/>
                    <polygon class="cls-10" points="1214.71 1285.08 1214.71 1498.92 1213.8 1499.65 1212.93 1500.34 1212.93 1286.36 1214.71 1285.08"/>
                    <polygon class="cls-10" points="1223.6 1277.95 1223.6 1491.86 1222.8 1492.5 1221.82 1493.28 1221.82 1279.25 1223.6 1277.95"/>
                    <polygon class="cls-10" points="1227.16 1274.39 1227.16 1489.03 1225.66 1490.22 1225.38 1490.45 1225.38 1275.67 1227.16 1274.39"/>
                    <polygon class="cls-10" points="1232.49 1270.82 1232.49 1485.06 1232.1 1485.24 1231.8 1485.35 1230.71 1486.2 1230.71 1272.12 1232.49 1270.82"/>
                  </g>
                  <g class="cls-3">
                    <polygon class="cls-10" points="1027.42 1270.09 939.19 1342.99 936.27 1342.99 1024.5 1270.09 1027.42 1270.09"/>
                    <polygon class="cls-10" points="1035.47 1270.09 947.24 1342.99 944.33 1342.99 1032.56 1270.09 1035.47 1270.09"/>
                    <polygon class="cls-10" points="1043.53 1270.09 955.3 1342.99 952.38 1342.99 1040.61 1270.09 1043.53 1270.09"/>
                    <polygon class="cls-10" points="1051.58 1270.09 963.35 1342.99 960.44 1342.99 1048.67 1270.09 1051.58 1270.09"/>
                    <polygon class="cls-10" points="1059.64 1270.09 971.41 1342.99 968.49 1342.99 1056.72 1270.09 1059.64 1270.09"/>
                    <polygon class="cls-10" points="1067.67 1270.09 979.44 1342.99 976.53 1342.99 1064.76 1270.09 1067.67 1270.09"/>
                    <polygon class="cls-10" points="1075.73 1270.09 987.5 1342.99 984.58 1342.99 1072.81 1270.09 1075.73 1270.09"/>
                    <polygon class="cls-10" points="1083.78 1270.09 995.55 1342.99 992.64 1342.99 1080.87 1270.09 1083.78 1270.09"/>
                    <polygon class="cls-10" points="1091.84 1270.09 1003.61 1342.99 1000.69 1342.99 1088.92 1270.09 1091.84 1270.09"/>
                    <polygon class="cls-10" points="1099.89 1270.09 1011.66 1342.99 1008.73 1342.99 1096.96 1270.09 1099.89 1270.09"/>
                    <polygon class="cls-10" points="1107.93 1270.09 1019.7 1342.99 1016.78 1342.99 1105.02 1270.09 1107.93 1270.09"/>
                    <polygon class="cls-10" points="1115.99 1270.09 1027.76 1342.99 1024.84 1342.99 1113.07 1270.09 1115.99 1270.09"/>
                    <polygon class="cls-10" points="1124.04 1270.09 1035.81 1342.99 1032.89 1342.99 1121.13 1270.09 1124.04 1270.09"/>
                    <polygon class="cls-10" points="1132.1 1270.09 1043.87 1342.99 1040.95 1342.99 1129.18 1270.09 1132.1 1270.09"/>
                    <polygon class="cls-10" points="1140.13 1270.09 1051.9 1342.99 1048.99 1342.99 1137.22 1270.09 1140.13 1270.09"/>
                    <polygon class="cls-10" points="1148.19 1270.09 1059.96 1342.99 1057.04 1342.99 1145.27 1270.09 1148.19 1270.09"/>
                    <polygon class="cls-10" points="1156.24 1270.09 1068.01 1342.99 1065.1 1342.99 1153.33 1270.09 1156.24 1270.09"/>
                    <polygon class="cls-10" points="1164.3 1270.09 1076.07 1342.99 1073.15 1342.99 1161.38 1270.09 1164.3 1270.09"/>
                    <polygon class="cls-10" points="1172.35 1270.09 1084.12 1342.99 1081.21 1342.99 1169.44 1270.09 1172.35 1270.09"/>
                    <polygon class="cls-10" points="1180.39 1270.09 1092.16 1342.99 1089.24 1342.99 1177.47 1270.09 1180.39 1270.09"/>
                    <polygon class="cls-10" points="1188.45 1270.09 1100.21 1342.99 1097.3 1342.99 1185.53 1270.09 1188.45 1270.09"/>
                    <polygon class="cls-10" points="1196.5 1270.09 1108.27 1342.99 1105.35 1342.99 1193.58 1270.09 1196.5 1270.09"/>
                    <polygon class="cls-10" points="1204.56 1270.09 1116.32 1342.99 1113.41 1342.99 1201.64 1270.09 1204.56 1270.09"/>
                    <polygon class="cls-10" points="1212.61 1270.09 1124.38 1342.99 1121.45 1342.99 1209.68 1270.09 1212.61 1270.09"/>
                    <polygon class="cls-10" points="1220.65 1270.09 1132.42 1342.99 1129.5 1342.99 1217.73 1270.09 1220.65 1270.09"/>
                    <polygon class="cls-10" points="1228.7 1270.09 1140.49 1342.97 1140.47 1342.99 1137.56 1342.99 1137.57 1342.97 1225.79 1270.09 1228.7 1270.09"/>
                  </g>
                  <g class="cls-3">
                    <rect class="cls-10" x="931.73" y="1342.99" width="2.92" height="213.38"/>
                    <rect class="cls-10" x="939.78" y="1342.99" width="2.92" height="213.38"/>
                    <rect class="cls-10" x="947.83" y="1342.99" width="2.92" height="213.38"/>
                    <rect class="cls-10" x="955.88" y="1342.99" width="2.92" height="213.38"/>
                    <rect class="cls-10" x="963.93" y="1342.99" width="2.92" height="213.38"/>
                    <rect class="cls-10" x="971.98" y="1342.99" width="2.92" height="213.38"/>
                    <rect class="cls-10" x="980.03" y="1342.99" width="2.92" height="213.38"/>
                    <rect class="cls-10" x="988.09" y="1342.99" width="2.92" height="213.38"/>
                    <rect class="cls-10" x="996.14" y="1342.99" width="2.92" height="213.38"/>
                    <rect class="cls-10" x="1004.19" y="1342.99" width="2.92" height="213.38"/>
                    <rect class="cls-10" x="1012.24" y="1342.99" width="2.92" height="213.38"/>
                    <rect class="cls-10" x="1020.29" y="1342.99" width="2.92" height="213.38"/>
                    <rect class="cls-10" x="1028.34" y="1342.99" width="2.92" height="213.38"/>
                    <rect class="cls-10" x="1036.39" y="1342.99" width="2.92" height="213.38"/>
                    <rect class="cls-10" x="1044.44" y="1342.99" width="2.92" height="213.38"/>
                    <rect class="cls-10" x="1052.49" y="1342.99" width="2.92" height="213.38"/>
                    <rect class="cls-10" x="1060.55" y="1342.99" width="2.92" height="213.38"/>
                    <rect class="cls-10" x="1068.6" y="1342.99" width="2.92" height="213.38"/>
                    <rect class="cls-10" x="1076.65" y="1342.99" width="2.92" height="213.38"/>
                    <rect class="cls-10" x="1084.7" y="1342.99" width="2.92" height="213.38"/>
                    <rect class="cls-10" x="1092.75" y="1342.99" width="2.92" height="213.38"/>
                    <rect class="cls-10" x="1100.8" y="1342.99" width="2.92" height="213.38"/>
                    <rect class="cls-10" x="1108.85" y="1342.99" width="2.92" height="213.38"/>
                    <rect class="cls-10" x="1116.9" y="1342.99" width="2.92" height="213.38"/>
                    <rect class="cls-10" x="1124.96" y="1342.99" width="2.92" height="213.38"/>
                    <rect class="cls-10" x="1133.01" y="1342.99" width="2.92" height="213.38"/>
                  </g>
                </g>
              </g>
              <rect x="1569.16" y="630.83" width="29.66" height="148.47"/>
              <rect x="642.8" y="630.83" width="29.66" height="148.47"/>
            </g>
          </g>
        </g>
        <g id="Layer_20" data-name="Layer 20">
          <rect class="cls-1" x="1597.39" y="329.15" width="54" height="1198.51"/>
        </g>
      </g>
    </g>
  </g>
</svg>