<?xml version="1.0" encoding="UTF-8"?>
<svg id="Layer_1" xmlns="http://www.w3.org/2000/svg" viewBox="0 0 396.76 54">
  <defs>
    <style>
      .cls-1, .cls-2 {
        fill: #231f20;
      }

      .cls-3 {
        fill: #fbae17;
      }

      .cls-2 {
        font-family: Heebo-Bold, Heebo;
        font-size: 20.56px;
        font-weight: 700;
      }

      .cls-4 {
        fill: #8ccfeb;
      }
    </style>
  </defs>
  <rect class="cls-3" x="12.95" y="14.09" width="369.4" height="26.87"/>
  <polygon class="cls-4" points="321.95 40.96 382.35 40.96 382.35 14.09 340.93 14.09 321.95 40.96"/>
  <g>
    <path class="cls-1" d="M37.71,29.57c-.14,0-.25-.04-.33-.12s-.11-.17-.11-.29.04-.21.11-.29.18-.12.33-.12.25.04.33.12.11.18.11.29-.04.21-.11.29-.19.12-.33.12ZM37.36,27.92l-.06-4.08h.78l-.06,4.08h-.67Z"/>
    <path class="cls-1" d="M38.98,24.92h3.76v.58h-.79v4.02h-.74v-4.02h-2.23v-.58Z"/>
    <path class="cls-1" d="M43.25,29.52v-.59h2.55l.74-.03.57.06v.55h-3.86ZM45.8,29.36v-2.72c0-.4-.09-.69-.27-.87s-.48-.27-.89-.27h-1.14v-.58h1.18c.61,0,1.07.15,1.39.44.31.29.47.72.47,1.3v2.7h-.74Z"/>
    <path class="cls-1" d="M47.64,25.51v-1.98h.74v1.4h2.55v.58h-3.29ZM51.21,25.38l-1.72,4.14h-.79l1.95-4.6h.57v.46Z"/>
    <path class="cls-1" d="M51.75,29.52v-.59h2.55l.74-.03.57.06v.55h-3.86ZM54.3,29.36v-2.72c0-.4-.09-.69-.27-.87s-.48-.27-.89-.27h-1.14v-.58h1.18c.61,0,1.07.15,1.39.44.31.29.47.72.47,1.3v2.7h-.74Z"/>
    <path class="cls-1" d="M58.19,22.51h6.12v1.38h-1.25v5.64h-1.8v-5.64h-3.07v-1.38Z"/>
    <path class="cls-1" d="M68.76,26.56h-3.37v-1.38h3.37v1.38Z"/>
    <path class="cls-1" d="M70.01,29.6c-.07,0-.15,0-.22,0-.08,0-.15-.01-.22-.03v-1.59c.1.01.19.02.28.03s.18.01.26.01c.31,0,.58-.05.82-.15.24-.1.44-.24.6-.42s.3-.4.39-.65v-2.91h-1.57v-1.38h3.34v3.56c0,.38.04.76.12,1.12l.48,2.33h-1.66l-.43-1.79h-.04c-.06.35-.19.66-.39.94-.2.28-.45.5-.76.67s-.64.25-1.01.25Z"/>
    <path class="cls-1" d="M78.42,29.6c-.07,0-.15,0-.22,0-.08,0-.15-.01-.22-.03v-1.59c.1.01.19.02.28.03s.18.01.26.01c.31,0,.58-.05.82-.15.24-.1.44-.24.6-.42s.3-.4.39-.65v-2.91h-1.57v-1.38h3.34v3.56c0,.38.04.76.12,1.12l.48,2.33h-1.66l-.43-1.79h-.04c-.06.35-.19.66-.39.94-.2.28-.45.5-.76.67s-.64.25-1.01.25Z"/>
    <path class="cls-1" d="M84.38,29.52v-5.64h-.65v-1.38h2.45v7.01h-1.8Z"/>
    <path class="cls-1" d="M91.23,29.67c-.62,0-1.17-.14-1.65-.41-.48-.27-.85-.66-1.12-1.15-.27-.49-.41-1.07-.42-1.72v-.46c0-.24.03-.48.1-.74s.16-.49.27-.71c.11-.22.23-.39.36-.52.02-.02.03-.03.04-.04.01-.01.03-.03.04-.04v-.03c-.13.02-.28.05-.47.1-.19.05-.36.09-.49.12l-.34-1.28c.32-.09.68-.17,1.07-.24s.79-.12,1.2-.16c.41-.04.8-.06,1.16-.06.73,0,1.36.13,1.87.38.51.26.9.63,1.17,1.13.27.5.4,1.11.4,1.83v.7c0,.66-.13,1.23-.4,1.72-.27.49-.64.88-1.12,1.15-.48.27-1.04.41-1.68.41ZM91.23,28.21c.28,0,.52-.08.73-.23s.37-.36.49-.64.17-.59.17-.95v-.68c0-.42-.06-.77-.16-1.05-.11-.29-.27-.5-.48-.65s-.47-.22-.77-.22-.53.08-.74.23-.36.38-.47.69-.16.67-.17,1.1v.59c0,.36.06.68.17.95s.28.48.49.64.45.23.73.23Z"/>
    <path class="cls-1" d="M96.03,29.52l.47-4c.04-.32.12-.62.25-.9.13-.29.27-.51.44-.67.02-.01.03-.02.05-.04.02-.01.03-.02.04-.03v-.03c-.16.02-.35.07-.58.13-.23.06-.42.12-.57.18l-.38-1.28c.31-.11.65-.21,1.03-.29.38-.08.77-.15,1.17-.2s.78-.07,1.15-.07c1.08,0,1.9.27,2.46.81.56.54.84,1.33.85,2.38v4h-3.12v-1.38h1.31v-2.85c0-.48-.1-.86-.3-1.12-.2-.26-.49-.4-.86-.4-.34,0-.61.13-.81.39-.2.26-.32.64-.37,1.13l-.44,4.22h-1.78Z"/>
    <path class="cls-1" d="M105.95,29.52v-4.6h3.75v4.6h-3.75ZM106.69,28.94h2.27v-3.43h-2.27v3.43Z"/>
    <path class="cls-1" d="M111.5,27.49v-1.98h-.86v-.58h1.6v2.57h-.74Z"/>
    <path class="cls-1" d="M113.89,29.6c-.14,0-.27,0-.39-.02s-.25-.04-.37-.06l.02-.57c.17.03.37.05.58.05s.38-.06.49-.18.17-.31.17-.57v-2.75h-.92v-.58h1.66v3.39c0,.42-.11.75-.32.96-.21.22-.52.33-.92.33Z"/>
    <path class="cls-1" d="M118.51,29.52v-3.21c0-.25-.08-.45-.23-.59s-.36-.22-.62-.22h-1.58v-.58h1.6c.49,0,.87.13,1.14.38.28.25.41.61.41,1.06v3.16h-.74Z"/>
    <path class="cls-1" d="M120.8,29.52v-4.02h-.55v-.58h1.29v4.6h-.74Z"/>
    <path class="cls-1" d="M122.53,29.56s-.06,0-.09,0-.06,0-.09,0v-.67s.08,0,.12.01c.04,0,.08,0,.11,0,.27,0,.49-.06.69-.17.19-.11.35-.25.46-.42.12-.18.2-.37.24-.59v-2.21h-1.06v-.58h1.79v2.38c0,.24.03.48.08.7l.33,1.52h-.7l-.28-1.29h-.03c-.03.23-.12.45-.27.65s-.33.36-.55.49c-.22.12-.47.19-.75.19Z"/>
    <path class="cls-1" d="M127.34,29.62c-.24,0-.51-.03-.79-.08s-.58-.13-.88-.25l.18-.54c.27.1.52.18.75.23s.45.08.65.08c.43,0,.78-.12,1.05-.35s.4-.57.4-1.01v-2.79h.74v2.76c0,.42-.09.78-.27,1.06-.18.29-.42.51-.74.65s-.68.22-1.09.22ZM125.92,24.92h.74l.76,3.39c.04.2.09.36.14.5.05.14.13.26.22.38h-.58c-.11-.12-.21-.25-.3-.39s-.16-.31-.2-.52l-.78-3.36Z"/>
    <path class="cls-1" d="M130.48,25.51v-1.98h.74v1.4h2.55v.58h-3.29ZM134.05,25.38l-1.72,4.14h-.79l1.95-4.6h.57v.46Z"/>
    <path class="cls-1" d="M140.39,29.52l-3.41-4.6h.83l3.4,4.6h-.83ZM137.15,29.52v-1.67c0-.43.08-.78.24-1.04.16-.26.42-.46.76-.58l.29.38c-.38.17-.57.5-.57.98v1.93h-.72ZM141.24,24.92l-1.62,2.78-.49-.56,1.28-2.22h.83Z"/>
    <path class="cls-1" d="M142.56,29.52v-4.02h-.55v-.58h1.29v4.6h-.74Z"/>
    <path class="cls-1" d="M147.48,29.52v-2.89c0-.4-.09-.69-.27-.87-.18-.18-.48-.27-.89-.27h-1.7v-.58h1.74c.61,0,1.08.15,1.39.44.31.29.47.72.47,1.3v2.87h-.74ZM144.63,29.52v-1.57c0-.27.02-.47.07-.61.05-.14.09-.26.14-.36h.61c-.03.12-.06.25-.07.39-.02.14-.02.32-.02.53v1.62h-.72Z"/>
    <path class="cls-1" d="M154.31,29.52v-2.89c0-.4-.09-.69-.27-.87-.18-.18-.48-.27-.89-.27h-1.7v-.58h1.74c.61,0,1.08.15,1.39.44.31.29.47.72.47,1.3v2.87h-.74ZM151.46,29.52v-1.57c0-.27.02-.47.07-.61.05-.14.09-.26.14-.36h.61c-.03.12-.06.25-.07.39-.02.14-.02.32-.02.53v1.62h-.72Z"/>
    <path class="cls-1" d="M156.93,29.52l-.64-3.99-.33-.05v-.56h2.28v.58h-1.22l.67,4.02h-.76Z"/>
    <path class="cls-1" d="M163.24,29.61c-.39,0-.74-.09-1.03-.26s-.53-.42-.7-.74c-.17-.32-.25-.69-.26-1.11v-.47c0-.2.03-.4.09-.6.06-.2.14-.37.24-.53s.22-.28.34-.36c0,0,.02-.01.03-.02s.02-.01.03-.01h0c-.1,0-.23.02-.39.06-.16.04-.31.08-.46.12l-.14-.55c.21-.06.43-.11.68-.16.25-.05.5-.08.75-.11.25-.02.49-.04.7-.04.44,0,.81.08,1.13.25.31.17.56.41.72.72.17.31.25.69.25,1.13v.55c0,.42-.08.79-.25,1.11s-.4.56-.69.74-.65.26-1.04.26ZM163.24,29c.25,0,.47-.06.66-.19s.33-.3.44-.52c.11-.22.16-.49.16-.79v-.55c0-.31-.05-.58-.16-.81-.1-.23-.25-.4-.45-.52-.19-.12-.42-.18-.69-.18-.24,0-.45.06-.62.19s-.31.3-.42.53c-.1.23-.15.51-.16.83v.51c0,.3.05.56.16.79.1.22.25.4.44.52s.4.19.65.19Z"/>
    <path class="cls-1" d="M168.44,29.52v-3.21c0-.25-.08-.45-.23-.59s-.36-.22-.62-.22h-1.58v-.58h1.6c.49,0,.87.13,1.14.38.28.25.41.61.41,1.06v3.16h-.74Z"/>
    <path class="cls-1" d="M170.74,29.52v-4.02h-.55v-.58h1.29v4.6h-.74Z"/>
    <path class="cls-1" d="M174.5,29.52v-.57c.39-.01.71-.13.95-.36s.36-.55.36-.95v-2.14h-2.9v-.58h3.64v2.7c0,.39-.09.72-.26,1-.17.28-.41.5-.72.65s-.67.23-1.08.24ZM173.01,31.15v-3.35c0-.26.02-.46.07-.61.05-.14.09-.26.14-.36h.61c-.03.12-.06.25-.07.39s-.02.32-.02.53v3.39h-.72Z"/>
    <path class="cls-1" d="M177.52,29.52v-.59h2.55l.74-.03.57.06v.55h-3.86ZM180.08,29.36v-2.72c0-.4-.09-.69-.27-.87s-.48-.27-.89-.27h-1.14v-.58h1.18c.61,0,1.07.15,1.39.44.31.29.47.72.47,1.3v2.7h-.74Z"/>
    <path class="cls-1" d="M184.56,29.52v-4.02h-.55v-.58h1.29v4.6h-.74Z"/>
    <path class="cls-1" d="M187.1,27.49v-1.98h-.86v-.58h1.6v2.57h-.74Z"/>
    <path class="cls-1" d="M188.82,25.51v-1.98h.74v1.4h2.55v.58h-3.29ZM192.39,25.38l-1.72,4.14h-.79l1.95-4.6h.57v.46Z"/>
    <path class="cls-1" d="M194.6,29.62c-.24,0-.51-.03-.79-.08s-.58-.13-.88-.25l.18-.54c.27.1.52.18.75.23s.45.08.65.08c.43,0,.78-.12,1.05-.35s.4-.57.4-1.01v-2.79h.74v2.76c0,.42-.09.78-.27,1.06-.18.29-.42.51-.74.65s-.68.22-1.09.22ZM193.18,24.92h.74l.76,3.39c.04.2.09.36.14.5.05.14.13.26.22.38h-.58c-.11-.12-.21-.25-.3-.39s-.16-.31-.2-.52l-.78-3.36Z"/>
    <path class="cls-1" d="M200.38,29.52v-4.02h-.55v-.58h1.29v4.6h-.74Z"/>
    <path class="cls-1" d="M203.5,29.59c-.2,0-.41-.02-.63-.05-.22-.04-.45-.09-.7-.15l.12-.54c.44.12.82.17,1.16.17.44,0,.77-.12.99-.33s.34-.51.34-.9v-2.27h-2.45v-.58h3.18v2.7c0,.45-.08.81-.25,1.11s-.4.51-.7.65-.66.21-1.07.21Z"/>
    <path class="cls-1" d="M206.92,29.52l.36-2.93c.03-.22.09-.42.19-.61.1-.19.21-.33.34-.43.01-.01.03-.02.04-.03s.03-.02.04-.03h0c-.12,0-.27.04-.44.08s-.35.09-.5.15l-.17-.55c.21-.07.43-.13.67-.18s.48-.09.73-.12c.25-.03.48-.04.69-.04.63,0,1.12.16,1.45.49.33.33.5.81.5,1.45v2.74h-1.93v-.58h1.2v-2.24c0-.41-.1-.72-.29-.94-.19-.21-.46-.32-.82-.32-.26,0-.47.1-.65.29s-.28.46-.32.79l-.35,3h-.73Z"/>
    <path class="cls-1" d="M214.09,29.61c-.39,0-.74-.09-1.03-.26s-.53-.42-.7-.74c-.17-.32-.25-.69-.26-1.11v-.47c0-.2.03-.4.09-.6.06-.2.14-.37.24-.53s.22-.28.34-.36c0,0,.02-.01.03-.02s.02-.01.03-.01h0c-.1,0-.23.02-.39.06-.16.04-.31.08-.46.12l-.14-.55c.21-.06.43-.11.68-.16.25-.05.5-.08.75-.11.25-.02.49-.04.7-.04.44,0,.81.08,1.13.25.31.17.56.41.72.72.17.31.25.69.25,1.13v.55c0,.42-.08.79-.25,1.11s-.4.56-.69.74-.65.26-1.04.26ZM214.09,29c.25,0,.47-.06.66-.19s.33-.3.44-.52c.11-.22.16-.49.16-.79v-.55c0-.31-.05-.58-.16-.81-.1-.23-.25-.4-.45-.52-.19-.12-.42-.18-.69-.18-.24,0-.45.06-.62.19s-.31.3-.42.53c-.1.23-.15.51-.16.83v.51c0,.3.05.56.16.79.1.22.25.4.44.52s.4.19.65.19Z"/>
    <path class="cls-1" d="M217.57,29.52v-4.02h-.55v-.58h1.29v4.6h-.74Z"/>
    <path class="cls-1" d="M221.68,24.92c.62,0,1.09.15,1.39.44s.46.73.46,1.33v2.84h-.74v-2.88c0-.4-.09-.69-.27-.87s-.46-.27-.84-.27h-.67c-.09.14-.16.32-.21.54-.05.22-.08.45-.08.68v1.55c0,.42-.1.75-.31.96s-.5.33-.89.33c-.08,0-.16,0-.23,0s-.15-.02-.23-.03v-.58s.09,0,.14.01c.05,0,.09,0,.13,0,.23,0,.4-.06.51-.18.1-.12.16-.3.16-.55v-1.45c0-.23.03-.47.09-.7.06-.24.15-.43.27-.57h-.88v-.58h2.19Z"/>
    <path class="cls-1" d="M226.88,29.52v-4.6h3.75v4.6h-3.75ZM227.62,28.94h2.27v-3.43h-2.27v3.43Z"/>
    <path class="cls-1" d="M234,24.92c.62,0,1.09.15,1.39.44s.46.73.46,1.33v2.84h-.74v-2.88c0-.4-.09-.69-.27-.87s-.46-.27-.84-.27h-.67c-.09.14-.16.32-.21.54-.05.22-.08.45-.08.68v1.55c0,.42-.1.75-.31.96s-.5.33-.89.33c-.08,0-.16,0-.23,0s-.15-.02-.23-.03v-.58s.09,0,.14.01c.05,0,.09,0,.13,0,.23,0,.4-.06.51-.18.1-.12.16-.3.16-.55v-1.45c0-.23.03-.47.09-.7.06-.24.15-.43.27-.57h-.88v-.58h2.19Z"/>
    <path class="cls-1" d="M240.47,29.52l-3.41-4.6h.83l3.4,4.6h-.83ZM237.23,29.52v-1.67c0-.43.08-.78.24-1.04.16-.26.42-.46.76-.58l.29.38c-.38.17-.57.5-.57.98v1.93h-.72ZM241.32,24.92l-1.62,2.78-.49-.56,1.28-2.22h.83Z"/>
    <path class="cls-1" d="M243.14,24.92v3.79c.25.1.52.19.8.25.28.06.55.09.81.09.38,0,.71-.05,1.01-.16.3-.11.54-.27.72-.48s.27-.49.27-.83v-2.66h.72v2.72c0,.34-.07.63-.21.88s-.33.46-.58.62c-.25.17-.53.29-.85.37s-.67.12-1.03.12c-.38,0-.78-.04-1.19-.13s-.8-.22-1.18-.4v-4.18h.72ZM244.27,28.26c.1-.1.18-.25.23-.42s.07-.38.07-.62v-2.29h.72v2.16c0,.26-.03.49-.1.69-.07.2-.17.37-.31.5l-.61-.02Z"/>
    <path class="cls-1" d="M253.67,29.52v-2.89c0-.4-.09-.69-.27-.87-.18-.18-.48-.27-.89-.27h-1.7v-.58h1.74c.61,0,1.08.15,1.39.44.31.29.47.72.47,1.3v2.87h-.74ZM250.81,29.52v-1.57c0-.27.02-.47.07-.61.05-.14.09-.26.14-.36h.61c-.03.12-.06.25-.07.39-.02.14-.02.32-.02.53v1.62h-.72Z"/>
    <path class="cls-1" d="M255.35,25.51v-1.98h.74v1.4h2.55v.58h-3.29ZM258.92,25.38l-1.72,4.14h-.79l1.95-4.6h.57v.46Z"/>
    <path class="cls-1" d="M261.13,29.62c-.24,0-.51-.03-.79-.08s-.58-.13-.88-.25l.18-.54c.27.1.52.18.75.23s.45.08.65.08c.43,0,.78-.12,1.05-.35s.4-.57.4-1.01v-2.79h.74v2.76c0,.42-.09.78-.27,1.06-.18.29-.42.51-.74.65s-.68.22-1.09.22ZM259.71,24.92h.74l.76,3.39c.04.2.09.36.14.5.05.14.13.26.22.38h-.58c-.11-.12-.21-.25-.3-.39s-.16-.31-.2-.52l-.78-3.36Z"/>
    <path class="cls-1" d="M266.27,29.6c-.23,0-.47-.02-.74-.07-.27-.04-.53-.11-.79-.2l.14-.54c.24.07.49.13.73.16s.45.05.63.05c.44,0,.77-.11,1.01-.32s.35-.51.35-.91v-2.27h-1.88c-.08.14-.15.33-.21.55s-.08.44-.08.66v.35c.06.03.14.04.24.05.1.01.23.02.38.02v.62c-.22,0-.41,0-.56-.02s-.29-.04-.41-.08-.24-.09-.37-.16l-.02-.59c0-.26.03-.52.1-.77s.16-.46.28-.62h-.57v-.58h3.83v2.72c0,.45-.09.81-.27,1.1s-.42.51-.73.65-.67.21-1.07.21Z"/>
    <path class="cls-1" d="M272.52,29.52v-2.89c0-.4-.09-.69-.27-.87-.18-.18-.48-.27-.89-.27h-1.7v-.58h1.74c.61,0,1.08.15,1.39.44.31.29.47.72.47,1.3v2.87h-.74ZM269.66,29.52v-1.57c0-.27.02-.47.07-.61.05-.14.09-.26.14-.36h.61c-.03.12-.06.25-.07.39-.02.14-.02.32-.02.53v1.62h-.72Z"/>
    <path class="cls-1" d="M276.79,31.15v-5.64h-.55v-.58h1.28v6.23h-.73Z"/>
    <path class="cls-1" d="M279.19,29.52v-4.02h-.55v-.58h1.29v4.6h-.74Z"/>
    <path class="cls-1" d="M281.73,27.49v-1.98h-.86v-.58h1.6v2.57h-.74Z"/>
    <path class="cls-1" d="M284.56,24.92v3.79c.25.1.52.19.8.25.28.06.55.09.81.09.38,0,.71-.05,1.01-.16.3-.11.54-.27.72-.48s.27-.49.27-.83v-2.66h.72v2.72c0,.34-.07.63-.21.88-.14.25-.33.46-.58.62s-.53.29-.85.37c-.32.08-.67.12-1.03.12-.38,0-.78-.04-1.19-.13-.41-.09-.8-.22-1.18-.4v-4.18h.72ZM285.69,28.26c.1-.1.18-.25.23-.42.05-.18.07-.38.07-.62v-2.29h.72v2.16c0,.26-.03.49-.1.69-.07.2-.17.37-.31.5l-.61-.02Z"/>
    <path class="cls-1" d="M290.69,27.49v-1.98h-.86v-.58h1.6v2.57h-.74Z"/>
    <path class="cls-1" d="M294.73,29.52v-3.21c0-.25-.08-.45-.23-.59s-.36-.22-.62-.22h-1.58v-.58h1.6c.49,0,.87.13,1.14.38s.41.61.41,1.06v3.16h-.74Z"/>
  </g>
  <text class="cls-2" transform="translate(354.94 34.6) scale(1.02 1)"><tspan x="0" y="0">!</tspan></text>
</svg>